<svg xmlns="http://www.w3.org/2000/svg" width="80" height="80" viewBox="0 0 80 80"><defs><style>.cls-1{fill:#fff;}.cls-2{fill:#d8d8d8;}.cls-3{fill:#f2f2f2;}.cls-4{fill:gray;}.cls-5{fill:#22b573;}.cls-6{fill:#f15a24;}.cls-7{fill:#29abe2;}.cls-8{fill:blue;}.cls-9{fill:none;stroke:#999;stroke-linecap:round;stroke-linejoin:round;stroke-width:0.75px;}</style></defs><title>df</title><g id="brand-logo-grey"><rect class="cls-1" x="0.5" y="0.5" width="79" height="79"/><path class="cls-2" d="M79,1V79H1V1H79m1-1H0V80H80V0Z"/><rect y="64" width="80" height="16"/><path class="cls-3" d="M17,70V71H16V70Zm0,1V72H16V71Zm0,1V73H16V72Zm0,1V74H16V73Zm0,1V75H16V74Zm1-5V70H17V69Zm0,6V76H17V75Zm1-6V70H18V69Zm0,6V76H18V75Zm1-6V70H19V69Zm0,4V74H19V73Zm0,2V76H19V75Zm1-6V70H20V69Zm0,4V74H20V73Zm0,1V75H20V74Z"/><path class="cls-3" d="M23,71V72H22V71Zm0,1V73H22V72Zm0,1V74H22V73Zm0,1V75H22V74Zm0,1V76H22V75Zm1-3V73H23V72Zm1-1V72H24V71Zm1,0V72H25V71Z"/><path class="cls-3" d="M27,74V75H26V74Zm1-3V72H27V71Zm0,2V74H27V73Zm0,2V76H27V75Zm1-4V72H28V71Zm0,2V74H28V73Zm0,2V76H28V75Zm1-4V72H29V71Zm0,2V74H29V73Zm0,2V76H29V75Zm1-3V73H30V72Zm0,1V74H30V73Zm0,1V75H30V74Zm0,1V76H30V75Z"/><path class="cls-3" d="M32,77V78H31V77Zm1-6V72H32V71Zm0,1V73H32V72Zm0,1V74H32V73Zm0,4V78H32V77Zm1-3V75H33V74Zm0,2V77H33V76Zm1-1V76H34V75Zm1-1V75H35V74Zm1-3V72H36V71Zm0,1V73H36V72Zm0,1V74H36V73Z"/><path class="cls-3" d="M41,72V73H40V72Zm0,3V76H40V75Zm1-4V72H41V71Zm0,2V74H41V73Zm0,2V76H41V75Zm1-4V72H42V71Zm0,2V74H42V73Zm0,2V76H42V75Zm1-4V72H43V71Zm0,3V75H43V74Z"/><path class="cls-3" d="M46,72V73H45V72Zm0,1V74H45V73Zm0,1V75H45V74Zm1-3V72H46V71Zm0,4V76H46V75Zm1-4V72H47V71Zm0,4V76H47V75Zm1-4V72H48V71Zm0,4V76H48V75Zm1-4V72H49V71Zm0,4V76H49V75Z"/><path class="cls-3" d="M52,74V75H51V74Zm1-3V72H52V71Zm0,2V74H52V73Zm0,2V76H52V75Zm1-4V72H53V71Zm0,2V74H53V73Zm0,2V76H53V75Zm1-4V72H54V71Zm0,2V74H54V73Zm0,2V76H54V75Zm1-3V73H55V72Zm0,1V74H55V73Zm0,1V75H55V74Zm0,1V76H55V75Z"/><path class="cls-3" d="M58,68V69H57V68Zm0,1V70H57V69Zm0,1V71H57V70Zm0,1V72H57V71Zm0,1V73H57V72Zm0,1V74H57V73Zm0,1V75H57V74Zm1,1V76H58V75Zm1,0V76H59V75Z"/><path class="cls-3" d="M61,72V73H60V72Zm0,1V74H60V73Zm0,1V75H60V74Zm1-3V72H61V71Zm0,2V74H61V73Zm0,2V76H61V75Zm1-4V72H62V71Zm0,2V74H62V73Zm0,2V76H62V75Zm1-4V72H63V71Zm0,2V74H63V73Zm0,2V76H63V75Zm1-3V73H64V72Zm0,1V74H64V73Zm0,2V76H64V75Z"/><path class="cls-4" d="M15,29V30H14V29Zm0,1V31H14V30Zm0,1V32H14V31Zm0,1V33H14V32Zm0,1V34H14V33Zm0,1V35H14V34Zm0,1V36H14V35Zm1,0V36H15V35Zm1,0V36H16V35Zm1,0V36H17V35Zm1,0V36H18V35Z"/><path class="cls-4" d="M21,30V31H20V30Zm0,1V32H20V31Zm0,1V33H20V32Zm0,1V34H20V33Zm0,1V35H20V34Zm1-5V30H21V29Zm0,6V36H21V35Zm1-6V30H22V29Zm0,6V36H22V35Zm1-6V30H23V29Zm0,6V36H23V35Zm1-5V31H24V30Zm0,1V32H24V31Zm0,1V33H24V32Zm0,1V34H24V33Zm0,1V35H24V34Z"/><path class="cls-4" d="M27,30V31H26V30Zm0,1V32H26V31Zm0,1V33H26V32Zm0,1V34H26V33Zm0,1V35H26V34Zm1-5V30H27V29Zm0,6V36H27V35Zm1-6V30H28V29Zm0,6V36H28V35Zm1-6V30H29V29Zm0,4V34H29V33Zm0,2V36H29V35Zm1-6V30H30V29Zm0,4V34H30V33Zm0,1V35H30V34Z"/><path class="cls-4" d="M33,30V31H32V30Zm0,1V32H32V31Zm0,1V33H32V32Zm0,1V34H32V33Zm0,1V35H32V34Zm1-5V30H33V29Zm0,6V36H33V35Zm1-6V30H34V29Zm0,6V36H34V35Zm1-6V30H35V29Zm0,6V36H35V35Zm1-5V31H36V30Zm0,1V32H36V31Zm0,1V33H36V32Zm0,1V34H36V33Zm0,1V35H36V34Z"/><path class="cls-5" d="M44,29V30H43V29Zm0,1V31H43V30Zm0,1V32H43V31Zm0,1V33H43V32Zm0,1V34H43V33Zm0,1V35H43V34Zm0,1V36H43V35Zm1,0V36H44V35Zm1,0V36H45V35Zm1,0V36H46V35Zm1,0V36H47V35Z"/><path class="cls-6" d="M50,30V31H49V30Zm0,1V32H49V31Zm0,1V33H49V32Zm0,1V34H49V33Zm0,1V35H49V34Zm1-5V30H50V29Zm0,6V36H50V35Zm1-6V30H51V29Zm0,6V36H51V35Zm1-6V30H52V29Zm0,6V36H52V35Zm1-5V31H53V30Zm0,1V32H53V31Zm0,1V33H53V32Zm0,1V34H53V33Zm0,1V35H53V34Z"/><path class="cls-7" d="M56,30V31H55V30Zm0,1V32H55V31Zm0,1V33H55V32Zm0,1V34H55V33Zm0,1V35H55V34Zm1-5V30H56V29Zm0,6V36H56V35Zm1-6V30H57V29Zm0,6V36H57V35Zm1-6V30H58V29Zm0,4V34H58V33Zm0,2V36H58V35Zm1-6V30H59V29Zm0,4V34H59V33Zm0,1V35H59V34Z"/><path class="cls-8" d="M62,30V31H61V30Zm0,1V32H61V31Zm0,1V33H61V32Zm0,1V34H61V33Zm0,1V35H61V34Zm1-5V30H62V29Zm0,6V36H62V35Zm1-6V30H63V29Zm0,6V36H63V35Zm1-6V30H64V29Zm0,6V36H64V35Zm1-5V31H65V30Zm0,1V32H65V31Zm0,1V33H65V32Zm0,1V34H65V33Zm0,1V35H65V34Z"/><polyline class="cls-9" points="60.27 42.06 59.56 38.52 63.1 39.23"/><line class="cls-9" x1="59.56" y1="38.53" x2="64.51" y2="43.47"/></g></svg>