<svg xmlns="http://www.w3.org/2000/svg" width="80" height="80" viewBox="0 0 80 80"><defs><style>.cls-1{fill:#fff;}.cls-2{fill:#d8d8d8;}.cls-3{fill:#f2f2f2;}.cls-4,.cls-8{fill:#22b573;}.cls-4,.cls-5,.cls-6,.cls-7{opacity:0.3;}.cls-5,.cls-9{fill:#f15a24;}.cls-10,.cls-6{fill:#29abe2;}.cls-11,.cls-7{fill:blue;}.cls-12{fill:none;stroke:#999;stroke-linecap:round;stroke-linejoin:round;stroke-width:0.75px;}</style></defs><title>df</title><g id="brand-logo-opacity"><rect class="cls-1" x="0.5" y="0.5" width="79" height="79"/><path class="cls-2" d="M79,1V79H1V1H79m1-1H0V80H80V0Z"/><rect y="64" width="80" height="16"/><path class="cls-3" d="M24,70V71h-.92V70Zm0,1V72h-.92V71Zm0,1V73h-.92V72Zm0,1V74h-.92V73Zm0,1V75h-.92V74Zm1-5V70h-.92V69Zm0,6V76h-.92V75Zm1-6V70h-.92V69Zm0,6V76h-.92V75Zm1-6V70h-.92V69Zm0,6V76h-.92V75Zm1-5V71h-.92V70Zm0,1V72h-.92V71Zm0,1V73h-.92V72Zm0,1V74h-.92V73Zm0,1V75h-.92V74Z"/><path class="cls-3" d="M30,71V72h-.92V71Zm0,1V73h-.92V72Zm0,1V74h-.92V73Zm0,1V75h-.92V74Zm0,1V76h-.92V75Zm0,1V77h-.92V76Zm0,1V78h-.92V77Zm1-6V72h-.92V71Zm0,4V76h-.92V75Zm1-4V72h-.92V71Zm0,4V76h-.92V75Zm1-4V72h-.92V71Zm0,4V76h-.92V75Zm1-3V73h-.92V72Zm0,1V74h-.92V73Zm0,1V75h-.92V74Z"/><path class="cls-3" d="M36,74V75h-.92V74Zm1-3V72h-.92V71Zm0,2V74h-.92V73Zm0,2V76h-.92V75Zm1-4V72h-.92V71Zm0,2V74h-.92V73Zm0,2V76h-.92V75Zm1-4V72h-.92V71Zm0,2V74h-.92V73Zm0,2V76h-.92V75Zm1-3V73h-.92V72Zm0,1V74h-.92V73Zm0,1V75h-.92V74Zm0,1V76h-.92V75Z"/><path class="cls-3" d="M42,72V73h-.92V72Zm0,1V74h-.92V73Zm0,1V75h-.92V74Zm1-3V72h-.92V71Zm0,4V76h-.92V75Zm1-4V72h-.92V71Zm0,4V76h-.92V75Zm1-4V72h-.92V71Zm0,4V76h-.92V75Zm1-4V72h-.92V71Zm0,4V76h-.92V75Z"/><path class="cls-3" d="M48,68V69h-.92V68Zm0,3V72h-.92V71Zm0,1V73h-.92V72Zm0,1V74h-.92V73Zm0,1V75h-.92V74Zm0,1V76h-.92V75Z"/><path class="cls-3" d="M50,69V70h-.92V69Zm0,1V71h-.92V70Zm0,1V72h-.92V71Zm0,1V73h-.92V72Zm0,1V74h-.92V73Zm0,1V75h-.92V74Zm1-3V72h-.92V71Zm0,4V76h-.92V75Zm1-4V72h-.92V71Zm0,4V76h-.92V75Zm1-4V72h-.92V71Zm0,4V76h-.92V75Z"/><path class="cls-3" d="M54,77V78h-.92V77Zm1-6V72h-.92V71Zm0,1V73h-.92V72Zm0,1V74h-.92V73Zm0,4V78h-.92V77Zm1-3V75h-.92V74Zm0,2V77h-.92V76Zm1-1V76h-.92V75Zm1-1V75h-.92V74Zm1-3V72h-.92V71Zm0,1V73h-.92V72Zm0,1V74h-.92V73Z"/><path class="cls-4" d="M15,29V30H14V29Zm0,1V31H14V30Zm0,1V32H14V31Zm0,1V33H14V32Zm0,1V34H14V33Zm0,1V35H14V34Zm0,1V36H14V35Zm1,0V36H15V35Zm1,0V36H16V35Zm1,0V36H17V35Zm1,0V36H18V35Z"/><path class="cls-5" d="M21,30V31H20V30Zm0,1V32H20V31Zm0,1V33H20V32Zm0,1V34H20V33Zm0,1V35H20V34Zm1-5V30H21V29Zm0,6V36H21V35Zm1-6V30H22V29Zm0,6V36H22V35Zm1-6V30H23V29Zm0,6V36H23V35Zm1-5V31H24V30Zm0,1V32H24V31Zm0,1V33H24V32Zm0,1V34H24V33Zm0,1V35H24V34Z"/><path class="cls-6" d="M27,30V31H26V30Zm0,1V32H26V31Zm0,1V33H26V32Zm0,1V34H26V33Zm0,1V35H26V34Zm1-5V30H27V29Zm0,6V36H27V35Zm1-6V30H28V29Zm0,6V36H28V35Zm1-6V30H29V29Zm0,4V34H29V33Zm0,2V36H29V35Zm1-6V30H30V29Zm0,4V34H30V33Zm0,1V35H30V34Z"/><path class="cls-7" d="M33,30V31H32V30Zm0,1V32H32V31Zm0,1V33H32V32Zm0,1V34H32V33Zm0,1V35H32V34Zm1-5V30H33V29Zm0,6V36H33V35Zm1-6V30H34V29Zm0,6V36H34V35Zm1-6V30H35V29Zm0,6V36H35V35Zm1-5V31H36V30Zm0,1V32H36V31Zm0,1V33H36V32Zm0,1V34H36V33Zm0,1V35H36V34Z"/><path class="cls-8" d="M44,29V30H43V29Zm0,1V31H43V30Zm0,1V32H43V31Zm0,1V33H43V32Zm0,1V34H43V33Zm0,1V35H43V34Zm0,1V36H43V35Zm1,0V36H44V35Zm1,0V36H45V35Zm1,0V36H46V35Zm1,0V36H47V35Z"/><path class="cls-9" d="M50,30V31H49V30Zm0,1V32H49V31Zm0,1V33H49V32Zm0,1V34H49V33Zm0,1V35H49V34Zm1-5V30H50V29Zm0,6V36H50V35Zm1-6V30H51V29Zm0,6V36H51V35Zm1-6V30H52V29Zm0,6V36H52V35Zm1-5V31H53V30Zm0,1V32H53V31Zm0,1V33H53V32Zm0,1V34H53V33Zm0,1V35H53V34Z"/><path class="cls-10" d="M56,30V31H55V30Zm0,1V32H55V31Zm0,1V33H55V32Zm0,1V34H55V33Zm0,1V35H55V34Zm1-5V30H56V29Zm0,6V36H56V35Zm1-6V30H57V29Zm0,6V36H57V35Zm1-6V30H58V29Zm0,4V34H58V33Zm0,2V36H58V35Zm1-6V30H59V29Zm0,4V34H59V33Zm0,1V35H59V34Z"/><path class="cls-11" d="M62,30V31H61V30Zm0,1V32H61V31Zm0,1V33H61V32Zm0,1V34H61V33Zm0,1V35H61V34Zm1-5V30H62V29Zm0,6V36H62V35Zm1-6V30H63V29Zm0,6V36H63V35Zm1-6V30H64V29Zm0,6V36H64V35Zm1-5V31H65V30Zm0,1V32H65V31Zm0,1V33H65V32Zm0,1V34H65V33Zm0,1V35H65V34Z"/><polyline class="cls-12" points="60.27 42.06 59.56 38.52 63.1 39.23"/><line class="cls-12" x1="59.56" y1="38.53" x2="64.51" y2="43.47"/></g></svg>