<svg xmlns="http://www.w3.org/2000/svg" width="80" height="80" viewBox="0 0 80 80"><defs><style>.cls-1{fill:#fff;}.cls-2{fill:#d8d8d8;}.cls-3{fill:#f2f2f2;}.cls-4{fill:#e6e6e6;}</style></defs><title>df</title><g id="countdown-style-2"><rect class="cls-1" x="0.5" y="0.5" width="79" height="79"/><path class="cls-2" d="M79,1V79H1V1H79m1-1H0V80H80V0Z"/><rect y="64" width="80" height="16"/><path class="cls-3" d="M25,70V71H24V70Zm0,1V72H24V71Zm0,4V76H24V75Zm1-6V70H25V69Zm0,3V73H25V72Zm0,3V76H25V75Zm1-6V70H26V69Zm0,3V73H26V72Zm0,3V76H26V75Zm1-6V70H27V69Zm0,3V73H27V72Zm0,3V76H27V75Zm1-6V70H28V69Zm0,4V74H28V73Zm0,1V75H28V74Z"/><path class="cls-3" d="M31,69V70H30V69Zm0,1V71H30V70Zm0,1V72H30V71Zm0,1V73H30V72Zm0,1V74H30V73Zm0,1V75H30V74Zm1-3V72H31V71Zm0,4V76H31V75Zm1-4V72H32V71Zm0,4V76H32V75Zm1-4V72H33V71Zm0,4V76H33V75Z"/><path class="cls-3" d="M35,77V78H34V77Zm1-6V72H35V71Zm0,1V73H35V72Zm0,1V74H35V73Zm0,4V78H35V77Zm1-3V75H36V74Zm0,2V77H36V76Zm1-1V76H37V75Zm1-1V75H38V74Zm1-3V72H39V71Zm0,1V73H39V72Zm0,1V74H39V73Z"/><path class="cls-3" d="M42,68V69H41V68Zm0,1V70H41V69Zm0,1V71H41V70Zm0,1V72H41V71Zm0,1V73H41V72Zm0,1V74H41V73Zm0,1V75H41V74Zm1,1V76H42V75Zm1,0V76H43V75Z"/><path class="cls-3" d="M45,72V73H44V72Zm0,1V74H44V73Zm0,1V75H44V74Zm1-3V72H45V71Zm0,2V74H45V73Zm0,2V76H45V75Zm1-4V72H46V71Zm0,2V74H46V73Zm0,2V76H46V75Zm1-4V72H47V71Zm0,2V74H47V73Zm0,2V76H47V75Zm1-3V73H48V72Zm0,1V74H48V73Zm0,2V76H48V75Z"/><path class="cls-3" d="M53,69V70H52V69Zm0,5V75H52V74Zm0,1V76H52V75Zm1-6V70H53V69Zm0,4V74H53V73Zm0,2V76H53V75Zm1-6V70H54V69Zm0,3V73H54V72Zm0,3V76H54V75Zm1-6V70H55V69Zm0,3V73H55V72Zm0,3V76H55V75Zm1-5V71H56V70Zm0,1V72H56V71Zm0,4V76H56V75Z"/><path d="M3.94,29V30H3V29Zm0,1V31H3V30Zm0,1V32H3V31Zm0,1V33H3V32Zm0,1V34H3V33Zm1-5V29H4V28Zm0,2V31H4V30Zm0,4V35H4V34Zm1-6V29H5V28Zm0,3V32H5V31Zm0,3V35H5V34Zm1-6V29H6V28Zm0,4V33H6V32Zm0,2V35H6V34Zm1-5V30H7V29Zm0,1V31H7V30Zm0,1V32H7V31Zm0,1V33H7V32Zm0,1V34H7V33Z"/><path d="M9.94,30V31H9V30Zm0,1V32H9V31Zm0,1V33H9V32Zm0,1V34H9V33Zm1-4V30H10V29Zm0,2V32H10V31Zm0,3V35H10V34Zm1-6V29H11V28Zm0,3V32H11V31Zm0,3V35H11V34Zm1-6V29H12V28Zm0,3V32H12V31Zm0,3V35H12V34Zm1-6V29H13V28Zm0,4V33H13V32Zm0,1V34H13V33Z"/><path d="M27,30V31H26V30Zm0,1V32H26V31Zm0,2V34H26V33Zm0,1V35H26V34Z"/><path d="M53,30V31H52V30Zm0,1V32H52V31Zm0,2V34H52V33Zm0,1V35H52V34Z"/><rect class="cls-4" x="16" y="31" width="8" height="4"/><path d="M29.94,29V30H29V29Zm0,1V31H29V30Zm0,1V32H29V31Zm0,1V33H29V32Zm0,1V34H29V33Zm1-5V29H30V28Zm0,2V31H30V30Zm0,4V35H30V34Zm1-6V29H31V28Zm0,3V32H31V31Zm0,3V35H31V34Zm1-6V29H32V28Zm0,4V33H32V32Zm0,2V35H32V34Zm1-5V30H33V29Zm0,1V31H33V30Zm0,1V32H33V31Zm0,1V33H33V32Zm0,1V34H33V33Z"/><path d="M35.94,31V32H35V31Zm0,1V33H35V32Zm1-2V31H36V30Zm0,2V33H36V32Zm1-3V30H37V29Zm0,3V33H37V32Zm1-4V29H38V28Zm0,4V33H38V32Zm1-4V29H39V28Zm0,1V30H39V29Zm0,1V31H39V30Zm0,1V32H39V31Zm0,1V33H39V32Zm0,1V34H39V33Zm0,1V35H39V34Z"/><rect class="cls-4" x="42" y="31" width="8" height="4"/><path d="M55.94,28V29H55V28Zm0,5V34H55V33Zm0,1V35H55V34Zm1-6V29H56V28Zm0,4V33H56V32Zm0,2V35H56V34Zm1-6V29H57V28Zm0,3V32H57V31Zm0,3V35H57V34Zm1-6V29H58V28Zm0,3V32H58V31Zm0,3V35H58V34Zm1-5V30H59V29Zm0,1V31H59V30Zm0,4V35H59V34Z"/><path d="M61.94,29V30H61V29Zm0,1V31H61V30Zm0,1V32H61V31Zm0,1V33H61V32Zm0,1V34H61V33Zm1-5V29H62V28Zm0,2V31H62V30Zm0,4V35H62V34Zm1-6V29H63V28Zm0,3V32H63V31Zm0,3V35H63V34Zm1-6V29H64V28Zm0,4V33H64V32Zm0,2V35H64V34Zm1-5V30H65V29Zm0,1V31H65V30Zm0,1V32H65V31Zm0,1V33H65V32Zm0,1V34H65V33Z"/><rect class="cls-4" x="68" y="31" width="8" height="4"/></g></svg>