<svg xmlns="http://www.w3.org/2000/svg" width="80" height="80" viewBox="0 0 80 80"><defs><style>.cls-1{fill:#fff;}.cls-2{fill:#d8d8d8;}.cls-3{fill:#f2f2f2;}.cls-4{fill:#e6e6e6;}</style></defs><title>df</title><g id="countdown-style-1"><rect class="cls-1" x="0.5" y="0.5" width="79" height="79"/><path class="cls-2" d="M79,1V79H1V1H79m1-1H0V80H80V0Z"/><rect y="64" width="80" height="16"/><path class="cls-3" d="M25,70V71H24V70Zm0,1V72H24V71Zm0,4V76H24V75Zm1-6V70H25V69Zm0,3V73H25V72Zm0,3V76H25V75Zm1-6V70H26V69Zm0,3V73H26V72Zm0,3V76H26V75Zm1-6V70H27V69Zm0,3V73H27V72Zm0,3V76H27V75Zm1-6V70H28V69Zm0,4V74H28V73Zm0,1V75H28V74Z"/><path class="cls-3" d="M31,69V70H30V69Zm0,1V71H30V70Zm0,1V72H30V71Zm0,1V73H30V72Zm0,1V74H30V73Zm0,1V75H30V74Zm1-3V72H31V71Zm0,4V76H31V75Zm1-4V72H32V71Zm0,4V76H32V75Zm1-4V72H33V71Zm0,4V76H33V75Z"/><path class="cls-3" d="M35,77V78H34V77Zm1-6V72H35V71Zm0,1V73H35V72Zm0,1V74H35V73Zm0,4V78H35V77Zm1-3V75H36V74Zm0,2V77H36V76Zm1-1V76H37V75Zm1-1V75H38V74Zm1-3V72H39V71Zm0,1V73H39V72Zm0,1V74H39V73Z"/><path class="cls-3" d="M42,68V69H41V68Zm0,1V70H41V69Zm0,1V71H41V70Zm0,1V72H41V71Zm0,1V73H41V72Zm0,1V74H41V73Zm0,1V75H41V74Zm1,1V76H42V75Zm1,0V76H43V75Z"/><path class="cls-3" d="M45,72V73H44V72Zm0,1V74H44V73Zm0,1V75H44V74Zm1-3V72H45V71Zm0,2V74H45V73Zm0,2V76H45V75Zm1-4V72H46V71Zm0,2V74H46V73Zm0,2V76H46V75Zm1-4V72H47V71Zm0,2V74H47V73Zm0,2V76H47V75Zm1-3V73H48V72Zm0,1V74H48V73Zm0,2V76H48V75Z"/><path class="cls-3" d="M53,69V70H52V69Zm0,6V76H52V75Zm1-6V70H53V69Zm0,6V76H53V75Zm1-6V70H54V69Zm0,1V71H54V70Zm0,1V72H54V71Zm0,1V73H54V72Zm0,1V74H54V73Zm0,1V75H54V74Zm0,1V76H54V75Zm1,0V76H55V75Zm1,0V76H56V75Z"/><path d="M8,29V30H7V29Zm0,1V31H7V30Zm0,1V32H7V31Zm0,1V33H7V32Zm0,1V34H7V33Zm1-5V29H8V28Zm0,2V31H8V30Zm0,4V35H8V34Zm1-6V29H9V28Zm0,3V32H9V31Zm0,3V35H9V34Zm1-6V29H10V28Zm0,4V33H10V32Zm0,2V35H10V34Zm1-5V30H11V29Zm0,1V31H11V30Zm0,1V32H11V31Zm0,1V33H11V32Zm0,1V34H11V33Z"/><path d="M14,30V31H13V30Zm0,1V32H13V31Zm0,1V33H13V32Zm0,1V34H13V33Zm1-4V30H14V29Zm0,2V32H14V31Zm0,3V35H14V34Zm1-6V29H15V28Zm0,3V32H15V31Zm0,3V35H15V34Zm1-6V29H16V28Zm0,3V32H16V31Zm0,3V35H16V34Zm1-6V29H17V28Zm0,4V33H17V32Zm0,1V34H17V33Z"/><path d="M23,30V31H22V30Zm0,1V32H22V31Zm0,2V34H22V33Zm0,1V35H22V34Z"/><path d="M27,29V30H26V29Zm0,1V31H26V30Zm0,1V32H26V31Zm0,1V33H26V32Zm0,1V34H26V33Zm1-5V29H27V28Zm0,2V31H27V30Zm0,4V35H27V34Zm1-6V29H28V28Zm0,3V32H28V31Zm0,3V35H28V34Zm1-6V29H29V28Zm0,4V33H29V32Zm0,2V35H29V34Zm1-5V30H30V29Zm0,1V31H30V30Zm0,1V32H30V31Zm0,1V33H30V32Zm0,1V34H30V33Z"/><path d="M33,31V32H32V31Zm0,1V33H32V32Zm1-2V31H33V30Zm0,2V33H33V32Zm1-3V30H34V29Zm0,3V33H34V32Zm1-4V29H35V28Zm0,4V33H35V32Zm1-4V29H36V28Zm0,1V30H36V29Zm0,1V31H36V30Zm0,1V32H36V31Zm0,1V33H36V32Zm0,1V34H36V33Zm0,1V35H36V34Z"/><path d="M42,30V31H41V30Zm0,1V32H41V31Zm0,2V34H41V33Zm0,1V35H41V34Z"/><path d="M46,28V29H45V28Zm0,5V34H45V33Zm0,1V35H45V34Zm1-6V29H46V28Zm0,4V33H46V32Zm0,2V35H46V34Zm1-6V29H47V28Zm0,3V32H47V31Zm0,3V35H47V34Zm1-6V29H48V28Zm0,3V32H48V31Zm0,3V35H48V34Zm1-5V30H49V29Zm0,1V31H49V30Zm0,4V35H49V34Z"/><path d="M52,29V30H51V29Zm0,1V31H51V30Zm0,1V32H51V31Zm0,1V33H51V32Zm0,1V34H51V33Zm1-5V29H52V28Zm0,2V31H52V30Zm0,4V35H52V34Zm1-6V29H53V28Zm0,3V32H53V31Zm0,3V35H53V34Zm1-6V29H54V28Zm0,4V33H54V32Zm0,2V35H54V34Zm1-5V30H55V29Zm0,1V31H55V30Zm0,1V32H55V31Zm0,1V33H55V32Zm0,1V34H55V33Z"/><path d="M61,30V31H60V30Zm0,1V32H60V31Zm0,2V34H60V33Zm0,1V35H60V34Z"/><path d="M65,29V30H64V29Zm0,1V31H64V30Zm0,1V32H64V31Zm0,1V33H64V32Zm0,1V34H64V33Zm1-5V29H65V28Zm0,2V31H65V30Zm0,4V35H65V34Zm1-6V29H66V28Zm0,3V32H66V31Zm0,3V35H66V34Zm1-6V29H67V28Zm0,4V33H67V32Zm0,2V35H67V34Zm1-5V30H68V29Zm0,1V31H68V30Zm0,1V32H68V31Zm0,1V33H68V32Zm0,1V34H68V33Z"/><path d="M71,29V30H70V29Zm0,1V31H70V30Zm0,1V32H70V31Zm0,1V33H70V32Zm0,1V34H70V33Zm1-5V29H71V28Zm0,2V31H71V30Zm0,4V35H71V34Zm1-6V29H72V28Zm0,3V32H72V31Zm0,3V35H72V34Zm1-6V29H73V28Zm0,4V33H73V32Zm0,2V35H73V34Zm1-5V30H74V29Zm0,1V31H74V30Zm0,1V32H74V31Zm0,1V33H74V32Zm0,1V34H74V33Z"/><rect class="cls-4" x="8" y="37" width="9" height="2"/><rect class="cls-4" x="27" y="37" width="9" height="2"/><rect class="cls-4" x="46" y="37" width="9" height="2"/><rect class="cls-4" x="65" y="37" width="9" height="2"/></g></svg>