<svg xmlns="http://www.w3.org/2000/svg" width="80" height="80" viewBox="0 0 80 80"><defs><style>.cls-1{fill:#fff;}.cls-2{fill:#d8d8d8;}.cls-3{fill:#f2f2f2;}.cls-4{fill:#262626;}</style></defs><title>df</title><g id="design-image"><rect class="cls-1" x="0.5" y="0.5" width="79" height="79"/><path class="cls-2" d="M79,1V79H1V1H79m1-1H0V80H80V0Z"/><rect y="64" width="80" height="16"/><path class="cls-3" d="M27,69V70H26V69Zm0,6V76H26V75Zm1-6V70H27V69Zm0,1V71H27V70Zm0,1V72H27V71Zm0,1V73H27V72Zm0,1V74H27V73Zm0,1V75H27V74Zm0,1V76H27V75Zm1-6V70H28V69Zm0,6V76H28V75Z"/><path class="cls-3" d="M31,71V72H30V71Zm0,1V73H30V72Zm0,1V74H30V73Zm0,1V75H30V74Zm0,1V76H30V75Zm1-4V72H31V71Zm1,0V72H32V71Zm1,0V72H33V71Zm0,1V73H33V72Zm0,1V74H33V73Zm0,1V75H33V74Zm0,1V76H33V75Zm1-4V72H34V71Zm1,0V72H35V71Zm1,1V73H36V72Zm0,1V74H36V73Zm0,1V75H36V74Zm0,1V76H36V75Z"/><path class="cls-3" d="M39,74V75H38V74Zm1-3V72H39V71Zm0,2V74H39V73Zm0,2V76H39V75Zm1-4V72H40V71Zm0,2V74H40V73Zm0,2V76H40V75Zm1-4V72H41V71Zm0,2V74H41V73Zm0,2V76H41V75Zm1-3V73H42V72Zm0,1V74H42V73Zm0,1V75H42V74Zm0,1V76H42V75Z"/><path class="cls-3" d="M45,72V73H44V72Zm0,1V74H44V73Zm0,1V75H44V74Zm0,3V78H44V77Zm1-6V72H45V71Zm0,4V76H45V75Zm0,2V78H45V77Zm1-6V72H46V71Zm0,4V76H46V75Zm0,2V78H46V77Zm1-6V72H47V71Zm0,4V76H47V75Zm0,2V78H47V77Zm1-6V72H48V71Zm0,1V73H48V72Zm0,1V74H48V73Zm0,1V75H48V74Zm0,1V76H48V75Zm0,1V77H48V76Z"/><path class="cls-3" d="M51,72V73H50V72Zm0,1V74H50V73Zm0,1V75H50V74Zm1-3V72H51V71Zm0,2V74H51V73Zm0,2V76H51V75Zm1-4V72H52V71Zm0,2V74H52V73Zm0,2V76H52V75Zm1-4V72H53V71Zm0,2V74H53V73Zm0,2V76H53V75Zm1-3V73H54V72Zm0,1V74H54V73Zm0,2V76H54V75Z"/><path class="cls-4" d="M34,29.11,39.33,39H28.67L34,29.11M34,27,27,40H41L34,27Z"/><path class="cls-4" d="M46,32.63,51,39H41l5-6.37M46,31l-7,9H53l-7-9Z"/><path class="cls-4" d="M44,25a2,2,0,1,1-2,2,2,2,0,0,1,2-2m0-1a3,3,0,1,0,3,3,3,3,0,0,0-3-3Z"/></g></svg>