<svg xmlns="http://www.w3.org/2000/svg" width="80" height="80" viewBox="0 0 80 80"><defs><style>.cls-1{fill:#fff;}.cls-2{fill:#d8d8d8;}.cls-3{fill:#f2f2f2;}.cls-4{fill:#262626;}</style></defs><title>df</title><g id="design-none"><rect class="cls-1" x="0.5" y="0.5" width="79" height="79"/><path class="cls-2" d="M79,1V79H1V1H79m1-1H0V80H80V0Z"/><rect y="64" width="80" height="16"/><path class="cls-3" d="M30,69V70H29V69Zm0,1V71H29V70Zm0,1V72H29V71Zm0,1V73H29V72Zm0,1V74H29V73Zm0,1V75H29V74Zm0,1V76H29V75Zm1-4V72H30V71Zm1,1V73H31V72Zm1,1V74H32V73Zm1-4V70H33V69Zm0,1V71H33V70Zm0,1V72H33V71Zm0,1V73H33V72Zm0,1V74H33V73Zm0,1V75H33V74Zm0,1V76H33V75Z"/><path class="cls-3" d="M36,72V73H35V72Zm0,1V74H35V73Zm0,1V75H35V74Zm1-3V72H36V71Zm0,4V76H36V75Zm1-4V72H37V71Zm0,4V76H37V75Zm1-4V72H38V71Zm0,4V76H38V75Zm1-3V73H39V72Zm0,1V74H39V73Zm0,1V75H39V74Z"/><path class="cls-3" d="M42,71V72H41V71Zm0,1V73H41V72Zm0,1V74H41V73Zm0,1V75H41V74Zm0,1V76H41V75Zm1-4V72H42V71Zm1,0V72H43V71Zm1,0V72H44V71Zm1,1V73H45V72Zm0,1V74H45V73Zm0,1V75H45V74Zm0,1V76H45V75Z"/><path class="cls-3" d="M48,72V73H47V72Zm0,1V74H47V73Zm0,1V75H47V74Zm1-3V72H48V71Zm0,2V74H48V73Zm0,2V76H48V75Zm1-4V72H49V71Zm0,2V74H49V73Zm0,2V76H49V75Zm1-4V72H50V71Zm0,2V74H50V73Zm0,2V76H50V75Zm1-3V73H51V72Zm0,1V74H51V73Zm0,2V76H51V75Z"/><polygon class="cls-4" points="47.78 23.52 31.52 39.78 32.22 40.48 48.48 24.22 47.78 23.52 47.78 23.52"/><polygon class="cls-4" points="32.22 23.52 31.52 24.22 47.78 40.48 48.48 39.78 32.22 23.52 32.22 23.52"/></g></svg>