<svg xmlns="http://www.w3.org/2000/svg" width="80" height="80" viewBox="0 0 80 80"><defs><style>.cls-1{fill:#fff;}.cls-2{fill:#d8d8d8;}.cls-3{fill:#f2f2f2;}.cls-4{fill:#262626;}</style></defs><title>df</title><g id="design-video"><rect class="cls-1" x="0.5" y="0.5" width="79" height="79"/><path class="cls-2" d="M79,1V79H1V1H79m1-1H0V80H80V0Z"/><rect y="64" width="80" height="16"/><path class="cls-3" d="M29,69V70H28V69Zm0,1V71H28V70Zm0,1V72H28V71Zm0,1V73H28V72Zm0,1V74H28V73Zm1,1V75H29V74Zm1,1V76H30V75Zm1-1V75H31V74Zm1-5V70H32V69Zm0,1V71H32V70Zm0,1V72H32V71Zm0,1V73H32V72Zm0,1V74H32V73Z"/><path class="cls-3" d="M35,68V69H34V68Zm0,3V72H34V71Zm0,1V73H34V72Zm0,1V74H34V73Zm0,1V75H34V74Zm0,1V76H34V75Z"/><path class="cls-3" d="M37,72V73H36V72Zm0,1V74H36V73Zm0,1V75H36V74Zm1-3V72H37V71Zm0,4V76H37V75Zm1-4V72H38V71Zm0,4V76H38V75Zm1-4V72H39V71Zm0,4V76H39V75Zm1-7V69H40V68Zm0,1V70H40V69Zm0,1V71H40V70Zm0,1V72H40V71Zm0,1V73H40V72Zm0,1V74H40V73Zm0,1V75H40V74Zm0,1V76H40V75Z"/><path class="cls-3" d="M43,72V73H42V72Zm0,1V74H42V73Zm0,1V75H42V74Zm1-3V72H43V71Zm0,2V74H43V73Zm0,2V76H43V75Zm1-4V72H44V71Zm0,2V74H44V73Zm0,2V76H44V75Zm1-4V72H45V71Zm0,2V74H45V73Zm0,2V76H45V75Zm1-3V73H46V72Zm0,1V74H46V73Zm0,2V76H46V75Z"/><path class="cls-3" d="M49,72V73H48V72Zm0,1V74H48V73Zm0,1V75H48V74Zm1-3V72H49V71Zm0,4V76H49V75Zm1-4V72H50V71Zm0,4V76H50V75Zm1-4V72H51V71Zm0,4V76H51V75Zm1-3V73H52V72Zm0,1V74H52V73Zm0,1V75H52V74Z"/><path class="cls-4" d="M58,18a1,1,0,0,1,1,1V45a1,1,0,0,1-1,1H22a1,1,0,0,1-1-1V19a1,1,0,0,1,1-1H58m0-1H22a2,2,0,0,0-2,2V45a2,2,0,0,0,2,2H58a2,2,0,0,0,2-2V19a2,2,0,0,0-2-2Z"/><path class="cls-4" d="M52,18V46H28V18H52m1-1H27V47H53V17Z"/><path class="cls-4" d="M36,26.67,45.89,32,36,37.33V26.67M35,25V39l13-7L35,25Z"/><polygon class="cls-4" points="27 21 21 21 21 22 27 22 27 21 27 21"/><polygon class="cls-4" points="27 26 21 26 21 27 27 27 27 26 27 26"/><polygon class="cls-4" points="27 31 21 31 21 32 27 32 27 31 27 31"/><polygon class="cls-4" points="27 36 21 36 21 37 27 37 27 36 27 36"/><polygon class="cls-4" points="27 41 21 41 21 42 27 42 27 41 27 41"/><polygon class="cls-4" points="59 22 53 22 53 23 59 23 59 22 59 22"/><polygon class="cls-4" points="59 27 53 27 53 28 59 28 59 27 59 27"/><polygon class="cls-4" points="59 32 53 32 53 33 59 33 59 32 59 32"/><polygon class="cls-4" points="59 37 53 37 53 38 59 38 59 37 59 37"/><polygon class="cls-4" points="59 42 53 42 53 43 59 43 59 42 59 42"/></g></svg>