<svg xmlns="http://www.w3.org/2000/svg" width="80" height="80" viewBox="0 0 80 80"><defs><style>.cls-1{fill:#fff;}.cls-2{fill:#d8d8d8;}.cls-3{fill:#f2f2f2;}.cls-4{fill:#ccc;}.cls-5{fill:gray;}.cls-6{fill:#b3b3b3;}</style></defs><title>df</title><g id="hotspot-text"><rect class="cls-1" x="0.5" y="0.5" width="79" height="79"/><path class="cls-2" d="M79,1V79H1V1H79m1-1H0V80H80V0Z"/><rect y="64" width="80" height="16"/><path class="cls-3" d="M30,69V70h-.92V69Zm1,0V70h-.92V69Zm1,0V70h-.92V69Zm0,1V71h-.92V70Zm0,1V72h-.92V71Zm0,1V73h-.92V72Zm0,1V74h-.92V73Zm0,1V75h-.92V74Zm0,1V76h-.92V75Zm1-6V70h-.92V69Zm1,0V70h-.92V69Z"/><path class="cls-3" d="M35,72V73h-.92V72Zm0,1V74h-.92V73Zm0,1V75h-.92V74Zm1-3V72h-.92V71Zm0,2V74h-.92V73Zm0,2V76h-.92V75Zm1-4V72h-.92V71Zm0,2V74h-.92V73Zm0,2V76h-.92V75Zm1-4V72h-.92V71Zm0,2V74h-.92V73Zm0,2V76h-.92V75Zm1-3V73h-.92V72Zm0,1V74h-.92V73Zm0,2V76h-.92V75Z"/><path class="cls-3" d="M41,71V72h-.92V71Zm0,1V73h-.92V72Zm0,2V75h-.92V74Zm0,1V76h-.92V75Zm1-2V74h-.92V73Zm1,0V74h-.92V73Zm1,0V74h-.92V73Zm1-2V72h-.92V71Zm0,1V73h-.92V72Zm0,2V75h-.92V74Zm0,1V76h-.92V75Z"/><path class="cls-3" d="M47,69V70h-.92V69Zm0,1V71h-.92V70Zm0,1V72h-.92V71Zm0,1V73h-.92V72Zm0,1V74h-.92V73Zm0,1V75h-.92V74Zm1-3V72h-.92V71Zm0,4V76h-.92V75Zm1-4V72h-.92V71Zm0,4V76h-.92V75Zm1-4V72h-.92V71Zm0,4V76h-.92V75Z"/><path class="cls-4" d="M68,15V49H12V15H68m1-1H11V50H69V14Z"/><rect class="cls-5" x="17" y="20" width="14" height="4"/><rect class="cls-6" x="17" y="26" width="47" height="1"/><rect class="cls-6" x="17" y="29" width="47" height="1"/><rect class="cls-6" x="17" y="32" width="47" height="1"/><rect class="cls-6" x="17" y="35" width="47" height="1"/><rect class="cls-6" x="17" y="38" width="47" height="1"/><rect class="cls-6" x="17" y="41" width="47" height="1"/><rect class="cls-6" x="17" y="44" width="27" height="1"/></g></svg>