<svg xmlns="http://www.w3.org/2000/svg" width="80" height="80" viewBox="0 0 80 80"><defs><style>.cls-1{fill:#fff;}.cls-2{fill:#d8d8d8;}.cls-3{fill:#f2f2f2;}.cls-4{fill:#262626;}.cls-5{fill:#ccc;}.cls-6{fill:none;stroke:#1a1a1a;stroke-linecap:round;stroke-linejoin:round;stroke-width:0.5px;}</style></defs><title>df</title><g id="hotspot-lightbox"><rect class="cls-1" x="0.5" y="0.5" width="79" height="79"/><path class="cls-2" d="M79,1V79H1V1H79m1-1H0V80H80V0Z"/><rect y="64" width="80" height="16"/><path class="cls-3" d="M21,69V70H20V69Zm0,1V71H20V70Zm0,1V72H20V71Zm0,1V73H20V72Zm0,1V74H20V73Zm0,1V75H20V74Zm0,1V76H20V75Zm1,0V76H21V75Zm1,0V76H22V75Zm1,0V76H23V75Zm1,0V76H24V75Z"/><path class="cls-3" d="M26,68V69H25V68Zm0,3V72H25V71Zm0,1V73H25V72Zm0,1V74H25V73Zm0,1V75H25V74Zm0,1V76H25V75Z"/><path class="cls-3" d="M28,72V73H27V72Zm0,1V74H27V73Zm0,1V75H27V74Zm0,3V78H27V77Zm1-6V72H28V71Zm0,4V76H28V75Zm0,2V78H28V77Zm1-6V72H29V71Zm0,4V76H29V75Zm0,2V78H29V77Zm1-6V72H30V71Zm0,4V76H30V75Zm0,2V78H30V77Zm1-6V72H31V71Zm0,1V73H31V72Zm0,1V74H31V73Zm0,1V75H31V74Zm0,1V76H31V75Zm0,1V77H31V76Z"/><path class="cls-3" d="M34,68V69H33V68Zm0,1V70H33V69Zm0,1V71H33V70Zm0,1V72H33V71Zm0,1V73H33V72Zm0,1V74H33V73Zm0,1V75H33V74Zm0,1V76H33V75Zm1-4V72H34V71Zm1,0V72H35V71Zm1,0V72H36V71Zm1,1V73H37V72Zm0,1V74H37V73Zm0,1V75H37V74Zm0,1V76H37V75Z"/><path class="cls-3" d="M40,69V70H39V69Zm0,1V71H39V70Zm0,1V72H39V71Zm0,1V73H39V72Zm0,1V74H39V73Zm0,1V75H39V74Zm1-3V72H40V71Zm0,4V76H40V75Zm1-4V72H41V71Zm0,4V76H41V75Zm1-4V72H42V71Zm0,4V76H42V75Z"/><path class="cls-3" d="M45,68V69H44V68Zm0,1V70H44V69Zm0,1V71H44V70Zm0,1V72H44V71Zm0,1V73H44V72Zm0,1V74H44V73Zm0,1V75H44V74Zm0,1V76H44V75Zm1-4V72H45V71Zm0,4V76H45V75Zm1-4V72H46V71Zm0,4V76H46V75Zm1-4V72H47V71Zm0,4V76H47V75Zm1-3V73H48V72Zm0,1V74H48V73Zm0,1V75H48V74Z"/><path class="cls-3" d="M51,72V73H50V72Zm0,1V74H50V73Zm0,1V75H50V74Zm1-3V72H51V71Zm0,4V76H51V75Zm1-4V72H52V71Zm0,4V76H52V75Zm1-4V72H53V71Zm0,4V76H53V75Zm1-3V73H54V72Zm0,1V74H54V73Zm0,1V75H54V74Z"/><path class="cls-3" d="M57,71V72H56V71Zm0,1V73H56V72Zm0,2V75H56V74Zm0,1V76H56V75Zm1-2V74H57V73Zm1,0V74H58V73Zm1,0V74H59V73Zm1-2V72H60V71Zm0,1V73H60V72Zm0,2V75H60V74Zm0,1V76H60V75Z"/><path class="cls-4" d="M34,29.11,39.33,39H28.67L34,29.11M34,27,27,40H41L34,27Z"/><path class="cls-4" d="M46,32.63,51,39H41l5-6.37M46,31l-7,9H53l-7-9Z"/><path class="cls-4" d="M44,25a2,2,0,1,1-2,2,2,2,0,0,1,2-2m0-1a3,3,0,1,0,3,3,3,3,0,0,0-3-3Z"/><path class="cls-5" d="M62,15V49H18V15H62m1-1H17V50H63V14Z"/><polyline class="cls-6" points="69 30 72 32 69 34"/><line class="cls-6" x1="72" y1="32" x2="65" y2="32"/><polyline class="cls-6" points="11 30 8 32 11 34"/><line class="cls-6" x1="8" y1="32" x2="15" y2="32"/></g></svg>