<svg xmlns="http://www.w3.org/2000/svg" width="80" height="80" viewBox="0 0 80 80"><defs><style>.cls-1{fill:#fff;}.cls-2{fill:#d8d8d8;}.cls-3{fill:#f2f2f2;}.cls-4{fill:#262626;}.cls-5{fill:gray;}.cls-6{fill:#b3b3b3;}</style></defs><title>df</title><g id="icon-box-style-3"><rect class="cls-1" x="0.5" y="0.5" width="79" height="79"/><path class="cls-2" d="M79,1V79H1V1H79m1-1H0V80H80V0Z"/><rect y="64" width="80" height="16"/><path class="cls-3" d="M25,70V71H24V70Zm0,1V72H24V71Zm0,4V76H24V75Zm1-6V70H25V69Zm0,3V73H25V72Zm0,3V76H25V75Zm1-6V70H26V69Zm0,3V73H26V72Zm0,3V76H26V75Zm1-6V70H27V69Zm0,3V73H27V72Zm0,3V76H27V75Zm1-6V70H28V69Zm0,4V74H28V73Zm0,1V75H28V74Z"/><path class="cls-3" d="M31,69V70H30V69Zm0,1V71H30V70Zm0,1V72H30V71Zm0,1V73H30V72Zm0,1V74H30V73Zm0,1V75H30V74Zm1-3V72H31V71Zm0,4V76H31V75Zm1-4V72H32V71Zm0,4V76H32V75Zm1-4V72H33V71Zm0,4V76H33V75Z"/><path class="cls-3" d="M35,77V78H34V77Zm1-6V72H35V71Zm0,1V73H35V72Zm0,1V74H35V73Zm0,4V78H35V77Zm1-3V75H36V74Zm0,2V77H36V76Zm1-1V76H37V75Zm1-1V75H38V74Zm1-3V72H39V71Zm0,1V73H39V72Zm0,1V74H39V73Z"/><path class="cls-3" d="M42,68V69H41V68Zm0,1V70H41V69Zm0,1V71H41V70Zm0,1V72H41V71Zm0,1V73H41V72Zm0,1V74H41V73Zm0,1V75H41V74Zm1,1V76H42V75Zm1,0V76H43V75Z"/><path class="cls-3" d="M45,72V73H44V72Zm0,1V74H44V73Zm0,1V75H44V74Zm1-3V72H45V71Zm0,2V74H45V73Zm0,2V76H45V75Zm1-4V72H46V71Zm0,2V74H46V73Zm0,2V76H46V75Zm1-4V72H47V71Zm0,2V74H47V73Zm0,2V76H47V75Zm1-3V73H48V72Zm0,1V74H48V73Zm0,2V76H48V75Z"/><path class="cls-3" d="M53,69V70H52V69Zm0,6V76H52V75Zm1-6V70H53V69Zm0,3V73H53V72Zm0,3V76H53V75Zm1-6V70H54V69Zm0,2V72H54V71Zm0,1V73H54V72Zm0,3V76H54V75Zm1-6V70H55V69Zm0,1V71H55V70Zm0,2V73H55V72Zm0,3V76H55V75Zm1-6V70H56V69Zm0,4V74H56V73Zm0,1V75H56V74Z"/><path class="cls-4" d="M40,14.5A6.5,6.5,0,1,1,33.5,21,6.51,6.51,0,0,1,40,14.5m0-.5a7,7,0,1,0,7,7,7,7,0,0,0-7-7Z"/><path class="cls-4" d="M44,18.52a3.28,3.28,0,0,1-.94.26,1.65,1.65,0,0,0,.72-.91,3.31,3.31,0,0,1-1,.4,1.64,1.64,0,0,0-2.8,1.5,4.66,4.66,0,0,1-3.38-1.71,1.64,1.64,0,0,0,.51,2.19,1.64,1.64,0,0,1-.74-.21v0a1.64,1.64,0,0,0,1.32,1.61,1.66,1.66,0,0,1-.43.06,1.58,1.58,0,0,1-.31,0,1.64,1.64,0,0,0,1.53,1.14,3.29,3.29,0,0,1-2,.7l-.39,0a4.67,4.67,0,0,0,7.18-3.93v-.21A3.28,3.28,0,0,0,44,18.52Z"/><rect class="cls-5" x="32" y="31" width="16" height="4"/><rect class="cls-6" x="14" y="38" width="52" height="1"/><rect class="cls-6" x="14" y="41" width="52" height="1"/><rect class="cls-6" x="14" y="44" width="52" height="1"/><rect class="cls-6" x="23" y="47" width="34" height="1"/><rect class="cls-4" x="34" y="51" width="12" height="1"/></g></svg>