<svg id="menu-custom" xmlns="http://www.w3.org/2000/svg" width="80" height="80" viewBox="0 0 80 80"><defs><style>.cls-1{fill:#fff;}.cls-2{fill:#d8d8d8;}.cls-3{fill:#f2f2f2;}.cls-4{fill:#09090a;opacity:0.9;}.cls-5{fill:gray;}.cls-6{fill:#4d4d4d;}.cls-7{fill:#b3b3b3;}.cls-8{fill:#e6e6e6;}</style></defs><title>df</title><rect class="cls-1" x="0.5" y="0.5" width="79" height="79"/><path class="cls-2" d="M79,1V79H1V1H79m1-1H0V80H80V0Z"/><rect y="64" width="80" height="16"/><path class="cls-3" d="M24,70V71H23V70Zm0,1V72H23V71Zm0,1V73H23V72Zm0,1V74H23V73Zm0,1V75H23V74Zm1-5V70H24V69Zm0,6V76H24V75Zm1-6V70H25V69Zm0,6V76H25V75Zm1-6V70H26V69Zm0,6V76H26V75Zm1-6V70H27V69Zm0,1V71H27V70Zm0,5V76H27V75Z"/><path class="cls-3" d="M30,71V72H29V71Zm0,1V73H29V72Zm0,1V74H29V73Zm0,1V75H29V74Zm1,1V76H30V75Zm1,0V76H31V75Zm1,0V76H32V75Zm1-4V72H33V71Zm0,1V73H33V72Zm0,1V74H33V73Zm0,1V75H33V74Zm0,1V76H33V75Z"/><path class="cls-3" d="M36,72V73H35V72Zm0,3V76H35V75Zm1-4V72H36V71Zm0,2V74H36V73Zm0,2V76H36V75Zm1-4V72H37V71Zm0,2V74H37V73Zm0,2V76H37V75Zm1-4V72H38V71Zm0,3V75H38V74Z"/><path class="cls-3" d="M41,69V70H40V69Zm0,1V71H40V70Zm0,1V72H40V71Zm0,1V73H40V72Zm0,1V74H40V73Zm0,1V75H40V74Zm1-3V72H41V71Zm0,4V76H41V75Zm1-4V72H42V71Zm0,4V76H42V75Zm1-4V72H43V71Zm0,4V76H43V75Z"/><path class="cls-3" d="M46,72V73H45V72Zm0,1V74H45V73Zm0,1V75H45V74Zm1-3V72H46V71Zm0,4V76H46V75Zm1-4V72H47V71Zm0,4V76H47V75Zm1-4V72H48V71Zm0,4V76H48V75Zm1-3V73H49V72Zm0,1V74H49V73Zm0,1V75H49V74Z"/><path class="cls-3" d="M52,71V72H51V71Zm0,1V73H51V72Zm0,1V74H51V73Zm0,1V75H51V74Zm0,1V76H51V75Zm1-4V72H52V71Zm1,0V72H53V71Zm1,0V72H54V71Zm0,1V73H54V72Zm0,1V74H54V73Zm0,1V75H54V74Zm0,1V76H54V75Zm1-4V72H55V71Zm1,0V72H56V71Zm1,1V73H57V72Zm0,1V74H57V73Zm0,1V75H57V74Zm0,1V76H57V75Z"/><path class="cls-4" d="M10.38,25H23.63A3.37,3.37,0,0,1,27,28.38V41.63A3.37,3.37,0,0,1,23.63,45H10.38A3.37,3.37,0,0,1,7,41.63V28.38A3.38,3.38,0,0,1,10.38,25Z"/><rect class="cls-5" x="29" y="32" width="14" height="4"/><rect class="cls-6" x="69" y="32" width="4" height="4"/><rect class="cls-7" x="29" y="38" width="28" height="1"/><rect class="cls-8" x="46" y="35" width="1" height="1"/><rect class="cls-8" x="50" y="35" width="1" height="1"/><rect class="cls-8" x="54" y="35" width="1" height="1"/><rect class="cls-8" x="58" y="35" width="1" height="1"/><rect class="cls-8" x="62" y="35" width="1" height="1"/><rect class="cls-8" x="66" y="35" width="1" height="1"/><path class="cls-1" d="M16,32V33H15V32Zm0,1V34H15V33Zm0,1V35H15V34Zm0,1V36H15V35Zm0,1V37H15V36Zm1-5V32H16V31Zm0,6V38H16V37Zm1-6V32H17V31Zm0,6V38H17V37Zm1-6V32H18V31Zm0,6V38H18V37Zm1-6V32H19V31Zm0,1V33H19V32Zm0,5V38H19V37Z"/></svg>