<svg xmlns="http://www.w3.org/2000/svg" width="80" height="80" viewBox="0 0 80 80"><defs><style>.cls-1{fill:#fff;}.cls-2{fill:#d8d8d8;}.cls-3{fill:#f2f2f2;}.cls-4{fill:#09090a;opacity:0.9;}.cls-5{fill:gray;}.cls-6{fill:#4d4d4d;}.cls-7{fill:#b3b3b3;}.cls-8{fill:#e6e6e6;}</style></defs><title>df</title><g id="menu-style-2"><rect class="cls-1" x="0.5" y="0.5" width="79" height="79"/><path class="cls-2" d="M79,1V79H1V1H79m1-1H0V80H80V0Z"/><rect y="64" width="80" height="16"/><path class="cls-3" d="M25,70V71H24V70Zm0,1V72H24V71Zm0,4V76H24V75Zm1-6V70H25V69Zm0,3V73H25V72Zm0,3V76H25V75Zm1-6V70H26V69Zm0,3V73H26V72Zm0,3V76H26V75Zm1-6V70H27V69Zm0,3V73H27V72Zm0,3V76H27V75Zm1-6V70H28V69Zm0,4V74H28V73Zm0,1V75H28V74Z"/><path class="cls-3" d="M31,69V70H30V69Zm0,1V71H30V70Zm0,1V72H30V71Zm0,1V73H30V72Zm0,1V74H30V73Zm0,1V75H30V74Zm1-3V72H31V71Zm0,4V76H31V75Zm1-4V72H32V71Zm0,4V76H32V75Zm1-4V72H33V71Zm0,4V76H33V75Z"/><path class="cls-3" d="M35,77V78H34V77Zm1-6V72H35V71Zm0,1V73H35V72Zm0,1V74H35V73Zm0,4V78H35V77Zm1-3V75H36V74Zm0,2V77H36V76Zm1-1V76H37V75Zm1-1V75H38V74Zm1-3V72H39V71Zm0,1V73H39V72Zm0,1V74H39V73Z"/><path class="cls-3" d="M42,68V69H41V68Zm0,1V70H41V69Zm0,1V71H41V70Zm0,1V72H41V71Zm0,1V73H41V72Zm0,1V74H41V73Zm0,1V75H41V74Zm1,1V76H42V75Zm1,0V76H43V75Z"/><path class="cls-3" d="M45,72V73H44V72Zm0,1V74H44V73Zm0,1V75H44V74Zm1-3V72H45V71Zm0,2V74H45V73Zm0,2V76H45V75Zm1-4V72H46V71Zm0,2V74H46V73Zm0,2V76H46V75Zm1-4V72H47V71Zm0,2V74H47V73Zm0,2V76H47V75Zm1-3V73H48V72Zm0,1V74H48V73Zm0,2V76H48V75Z"/><path class="cls-3" d="M53,69V70H52V69Zm0,5V75H52V74Zm0,1V76H52V75Zm1-6V70H53V69Zm0,4V74H53V73Zm0,2V76H53V75Zm1-6V70H54V69Zm0,3V73H54V72Zm0,3V76H54V75Zm1-6V70H55V69Zm0,3V73H55V72Zm0,3V76H55V75Zm1-5V71H56V70Zm0,1V72H56V71Zm0,4V76H56V75Z"/><path class="cls-4" d="M33.38,7H46.63A3.38,3.38,0,0,1,50,10.38V23.63A3.37,3.37,0,0,1,46.63,27H33.38A3.37,3.37,0,0,1,30,23.63V10.38A3.38,3.38,0,0,1,33.38,7Z"/><rect class="cls-5" x="33" y="30" width="14" height="4"/><rect class="cls-6" x="38" y="49" width="4" height="4"/><rect class="cls-7" x="26" y="56" width="28" height="1"/><rect class="cls-8" x="39" y="45" width="2" height="1"/><rect class="cls-8" x="39" y="41" width="2" height="1"/><rect class="cls-8" x="39" y="37" width="2" height="1"/><path class="cls-1" d="M37.88,15l1.51,3H35.87l2-3M38,13l-4,6h7l-3-6Z"/><path class="cls-1" d="M42.88,15.75,44.23,18H41.08l1.8-2.25M43,14l-4,5h7l-3-5Z"/></g></svg>