<svg xmlns="http://www.w3.org/2000/svg" width="80" height="80" viewBox="0 0 80 80"><defs><style>.cls-1{fill:#fff;}.cls-2{fill:#d8d8d8;}.cls-3{fill:#f2f2f2;}.cls-4{fill:#262626;}.cls-5{opacity:0.6;}.cls-6{fill:#b3b3b3;}</style></defs><title>df</title><g id="portfolio-slider-tab-style-4"><rect class="cls-1" x="0.5" y="0.5" width="79" height="79"/><path class="cls-2" d="M79,1V79H1V1H79m1-1H0V80H80V0Z"/><rect y="64" width="80" height="16"/><path class="cls-3" d="M25,70V71H24V70Zm0,1V72H24V71Zm0,4V76H24V75Zm1-6V70H25V69Zm0,3V73H25V72Zm0,3V76H25V75Zm1-6V70H26V69Zm0,3V73H26V72Zm0,3V76H26V75Zm1-6V70H27V69Zm0,3V73H27V72Zm0,3V76H27V75Zm1-6V70H28V69Zm0,4V74H28V73Zm0,1V75H28V74Z"/><path class="cls-3" d="M31,69V70H30V69Zm0,1V71H30V70Zm0,1V72H30V71Zm0,1V73H30V72Zm0,1V74H30V73Zm0,1V75H30V74Zm1-3V72H31V71Zm0,4V76H31V75Zm1-4V72H32V71Zm0,4V76H32V75Zm1-4V72H33V71Zm0,4V76H33V75Z"/><path class="cls-3" d="M35,77V78H34V77Zm1-6V72H35V71Zm0,1V73H35V72Zm0,1V74H35V73Zm0,4V78H35V77Zm1-3V75H36V74Zm0,2V77H36V76Zm1-1V76H37V75Zm1-1V75H38V74Zm1-3V72H39V71Zm0,1V73H39V72Zm0,1V74H39V73Z"/><path class="cls-3" d="M42,68V69H41V68Zm0,1V70H41V69Zm0,1V71H41V70Zm0,1V72H41V71Zm0,1V73H41V72Zm0,1V74H41V73Zm0,1V75H41V74Zm1,1V76H42V75Zm1,0V76H43V75Z"/><path class="cls-3" d="M45,72V73H44V72Zm0,1V74H44V73Zm0,1V75H44V74Zm1-3V72H45V71Zm0,2V74H45V73Zm0,2V76H45V75Zm1-4V72H46V71Zm0,2V74H46V73Zm0,2V76H46V75Zm1-4V72H47V71Zm0,2V74H47V73Zm0,2V76H47V75Zm1-3V73H48V72Zm0,1V74H48V73Zm0,2V76H48V75Z"/><path class="cls-3" d="M53,72V73H52V72Zm0,1V74H52V73Zm1-2V72H53V71Zm0,2V74H53V73Zm1-3V71H54V70Zm0,3V74H54V73Zm1-4V70H55V69Zm0,4V74H55V73Zm1-4V70H56V69Zm0,1V71H56V70Zm0,1V72H56V71Zm0,1V73H56V72Zm0,1V74H56V73Zm0,1V75H56V74Zm0,1V76H56V75Z"/><rect class="cls-4" x="5" y="8" width="33" height="48"/><g class="cls-5"><rect class="cls-1" x="5" y="43" width="33" height="13"/></g><rect class="cls-1" x="8" y="46" width="16" height="4"/><rect class="cls-1" x="8" y="52" width="8" height="1"/><path class="cls-1" d="M18.88,24l1.51,3H16.87l2-3M19,22l-4,6h7l-3-6Z"/><path class="cls-1" d="M23.88,24.75,25.23,27H22.08l1.8-2.25M24,23l-4,5h7l-3-5Z"/><path class="cls-2" d="M74,9V55H43V9H74m1-1H42V56H75V8Z"/><path class="cls-6" d="M55.88,31l1.51,3H53.87l2-3M56,29l-4,6h7l-3-6Z"/><path class="cls-6" d="M60.88,31.75,62.23,34H59.08l1.8-2.25M61,30l-4,5h7l-3-5Z"/></g></svg>