<svg xmlns="http://www.w3.org/2000/svg" width="80" height="80" viewBox="0 0 80 80"><defs><style>.cls-1{fill:#fff;}.cls-2{fill:#d8d8d8;}.cls-3{fill:#f2f2f2;}.cls-4{fill:#262626;}.cls-5{fill:gray;}.cls-6{fill:#b3b3b3;}</style></defs><title>df</title><g id="product-banner-info-product"><rect class="cls-1" x="0.5" y="0.5" width="79" height="79"/><path class="cls-2" d="M79,1V79H1V1H79m1-1H0V80H80V0Z"/><rect y="64" width="80" height="16"/><path class="cls-3" d="M23,69V70H22V69Zm0,1V71H22V70Zm0,1V72H22V71Zm0,1V73H22V72Zm0,1V74H22V73Zm0,1V75H22V74Zm0,1V76H22V75Zm1-6V70H23V69Zm0,3V73H23V72Zm1-3V70H24V69Zm0,3V73H24V72Zm1-3V70H25V69Zm0,3V73H25V72Zm1-2V71H26V70Zm0,1V72H26V71Z"/><path class="cls-3" d="M29,71V72H28V71Zm0,1V73H28V72Zm0,1V74H28V73Zm0,1V75H28V74Zm0,1V76H28V75Zm1-3V73H29V72Zm1-1V72H30V71Zm1,0V72H31V71Z"/><path class="cls-3" d="M33,72V73H32V72Zm0,1V74H32V73Zm0,1V75H32V74Zm1-3V72H33V71Zm0,4V76H33V75Zm1-4V72H34V71Zm0,4V76H34V75Zm1-4V72H35V71Zm0,4V76H35V75Zm1-3V73H36V72Zm0,1V74H36V73Zm0,1V75H36V74Z"/><path class="cls-3" d="M39,72V73H38V72Zm0,1V74H38V73Zm0,1V75H38V74Zm1-3V72H39V71Zm0,4V76H39V75Zm1-4V72H40V71Zm0,4V76H40V75Zm1-4V72H41V71Zm0,4V76H41V75Zm1-7V69H42V68Zm0,1V70H42V69Zm0,1V71H42V70Zm0,1V72H42V71Zm0,1V73H42V72Zm0,1V74H42V73Zm0,1V75H42V74Zm0,1V76H42V75Z"/><path class="cls-3" d="M45,71V72H44V71Zm0,1V73H44V72Zm0,1V74H44V73Zm0,1V75H44V74Zm1,1V76H45V75Zm1,0V76H46V75Zm1,0V76H47V75Zm1-4V72H48V71Zm0,1V73H48V72Zm0,1V74H48V73Zm0,1V75H48V74Zm0,1V76H48V75Z"/><path class="cls-3" d="M51,72V73H50V72Zm0,1V74H50V73Zm0,1V75H50V74Zm1-3V72H51V71Zm0,4V76H51V75Zm1-4V72H52V71Zm0,4V76H52V75Zm1-4V72H53V71Zm0,4V76H53V75Zm1-4V72H54V71Zm0,4V76H54V75Z"/><path class="cls-3" d="M57,69V70H56V69Zm0,1V71H56V70Zm0,1V72H56V71Zm0,1V73H56V72Zm0,1V74H56V73Zm0,1V75H56V74Zm1-3V72H57V71Zm0,4V76H57V75Zm1-4V72H58V71Zm0,4V76H58V75Zm1-4V72H59V71Zm0,4V76H59V75Z"/><rect class="cls-4" x="21" y="6" width="50" height="52"/><rect class="cls-5" x="9" y="24" width="16" height="4"/><rect class="cls-6" x="9" y="30" width="19" height="1"/><rect class="cls-6" x="9" y="33" width="19" height="1"/><rect class="cls-6" x="9" y="36" width="19" height="1"/><rect class="cls-6" x="9" y="39" width="8" height="1"/><path class="cls-1" d="M45,28V29h-.92V28Zm0,1V30h-.92V29Zm0,1V31h-.92V30Zm0,1V32h-.92V31Zm0,1V33h-.92V32Zm0,1V34h-.92V33Zm0,1V35h-.92V34Zm1-6V29h-.92V28Zm0,3V32h-.92V31Zm1-3V29h-.92V28Zm0,3V32h-.92V31Zm1-3V29h-.92V28Zm0,3V32h-.92V31Zm1-2V30h-.92V29Zm0,1V31h-.92V30Z"/></g></svg>