<svg xmlns="http://www.w3.org/2000/svg" width="80" height="80" viewBox="0 0 80 80"><defs><style>.cls-1{fill:#fff;}.cls-2{fill:#d8d8d8;}.cls-3{fill:#f2f2f2;}</style></defs><title>df</title><g id="product-layout-inherit"><rect class="cls-1" x="0.5" y="0.5" width="79" height="79"/><path class="cls-2" d="M79,1V79H1V1H79m1-1H0V80H80V0Z"/><rect y="64" width="80" height="16"/><path class="cls-3" d="M25,69V70H24V69Zm0,6V76H24V75Zm1-6V70H25V69Zm0,1V71H25V70Zm0,1V72H25V71Zm0,1V73H25V72Zm0,1V74H25V73Zm0,1V75H25V74Zm0,1V76H25V75Zm1-6V70H26V69Zm0,6V76H26V75Z"/><path class="cls-3" d="M29,71V72H28V71Zm0,1V73H28V72Zm0,1V74H28V73Zm0,1V75H28V74Zm0,1V76H28V75Zm1-4V72H29V71Zm1,0V72H30V71Zm1,0V72H31V71Zm1,1V73H32V72Zm0,1V74H32V73Zm0,1V75H32V74Zm0,1V76H32V75Z"/><path class="cls-3" d="M35,68V69H34V68Zm0,1V70H34V69Zm0,1V71H34V70Zm0,1V72H34V71Zm0,1V73H34V72Zm0,1V74H34V73Zm0,1V75H34V74Zm0,1V76H34V75Zm1-4V72H35V71Zm1,0V72H36V71Zm1,0V72H37V71Zm1,1V73H38V72Zm0,1V74H38V73Zm0,1V75H38V74Zm0,1V76H38V75Z"/><path class="cls-3" d="M41,72V73H40V72Zm0,1V74H40V73Zm0,1V75H40V74Zm1-3V72H41V71Zm0,2V74H41V73Zm0,2V76H41V75Zm1-4V72H42V71Zm0,2V74H42V73Zm0,2V76H42V75Zm1-4V72H43V71Zm0,2V74H43V73Zm0,2V76H43V75Zm1-3V73H44V72Zm0,1V74H44V73Zm0,2V76H44V75Z"/><path class="cls-3" d="M47,71V72H46V71Zm0,1V73H46V72Zm0,1V74H46V73Zm0,1V75H46V74Zm0,1V76H46V75Zm1-3V73H47V72Zm1-1V72H48V71Zm1,0V72H49V71Z"/><path class="cls-3" d="M51,68V69H50V68Zm0,3V72H50V71Zm0,1V73H50V72Zm0,1V74H50V73Zm0,1V75H50V74Zm0,1V76H50V75Z"/><path class="cls-3" d="M53,69V70H52V69Zm0,1V71H52V70Zm0,1V72H52V71Zm0,1V73H52V72Zm0,1V74H52V73Zm0,1V75H52V74Zm1-3V72H53V71Zm0,4V76H53V75Zm1-4V72H54V71Zm0,4V76H54V75Zm1-4V72H55V71Zm0,4V76H55V75Z"/><rect class="cls-2" x="30" y="25.5" width="20" height="4"/><rect class="cls-2" x="30" y="34.5" width="20" height="4"/></g></svg>