<?xml version="1.0" encoding="utf-8"?>
<!-- Generator: Adobe Illustrator 21.0.0, SVG Export Plug-In . SVG Version: 6.00 Build 0)  -->
<svg version="1.1" xmlns="http://www.w3.org/2000/svg" xmlns:xlink="http://www.w3.org/1999/xlink" x="0px" y="0px" width="80px"
	 height="80px" viewBox="0 0 80 80" style="enable-background:new 0 0 80 80;" xml:space="preserve">
<style type="text/css">
	.st0{fill:#FFFFFF;}
	.st1{fill:#D8D8D8;}
	.st2{fill:#F2F2F2;}
	.st3{opacity:0.9;fill:#09090A;}
	.st4{fill:#808080;}
	.st5{fill:#4D4D4D;}
	.st6{fill:#B3B3B3;}
	.st7{fill:#E6E6E6;}
	.st8{fill:#CCCCCC;}
	.st9{fill:#262626;}
	.st10{opacity:0.2;}
	.st11{fill:url(#SVGID_1_);}
	.st12{fill:url(#SVGID_2_);}
	.st13{fill:url(#SVGID_3_);}
	.st14{fill:url(#SVGID_4_);}
	.st15{fill:none;stroke:#000000;stroke-width:0.5;stroke-linecap:round;stroke-linejoin:round;stroke-miterlimit:10;}
	.st16{opacity:0.9;}
	.st17{fill:#09090A;}
	.st18{opacity:0.8;fill:#D8D8D8;}
	.st19{opacity:0.8;fill:#FFFFFF;}
	.st20{opacity:0.85;fill:#FFFFFF;}
	.st21{fill:#22B573;}
	.st22{fill:#F15A24;}
	.st23{fill:#29ABE2;}
	.st24{fill:#0000FF;}
	.st25{fill:none;stroke:#999999;stroke-width:0.75;stroke-linecap:round;stroke-linejoin:round;stroke-miterlimit:10;}
	.st26{opacity:0.3;fill:#22B573;}
	.st27{opacity:0.3;fill:#F15A24;}
	.st28{opacity:0.3;fill:#29ABE2;}
	.st29{opacity:0.3;fill:#0000FF;}
	.st30{fill:none;stroke:#FFFFFF;stroke-width:0.5;stroke-linecap:round;stroke-linejoin:round;stroke-miterlimit:10;}
	.st31{fill:none;stroke:#FFFFFF;stroke-miterlimit:10;}
	.st32{opacity:0.6;}
	.st33{fill:none;stroke:#1A1A1A;stroke-width:0.5;stroke-linecap:round;stroke-linejoin:round;stroke-miterlimit:10;}
	.st34{fill:#808080;fill-opacity:0.7;}
	.st35{opacity:0.5;}
	.st36{fill:#808080;fill-opacity:0.5;}
	.st37{fill:#808080;fill-opacity:0.3;}
	.st38{fill:#808080;fill-opacity:0.61;}
	.st39{fill:#808080;fill-opacity:0.6;}
	.st40{fill:#808080;fill-opacity:0.4;}
	.st41{fill:#606060;fill-opacity:0.7;}
	.st42{fill:#808080;fill-opacity:0.65;}
</style>
<g id="menu-custom">
</g>
<g id="menu-product">
</g>
<g id="menu-style-1">
</g>
<g id="menu-style-2">
</g>
<g id="countdown-style-1">
</g>
<g id="countdown-style-2">
</g>
<g id="modal-style-1">
</g>
<g id="modal-style-2">
</g>
<g id="product-showcase-style-1">
</g>
<g id="product-showcase-style-2">
</g>
<g id="video-popup-style-1">
</g>
<g id="video-popup-style-2">
</g>
<g id="video-popup-style-3">
</g>
<g id="design-none">
</g>
<g id="design-image">
</g>
<g id="design-video">
</g>
<g id="brandcat-showcase-style-1">
</g>
<g id="brandcat-showcase-style-2">
</g>
<g id="brandcat-showcase-style-4">
</g>
<g id="brandcat-showcase-style-3">
</g>
<g id="testimonial-style-1">
</g>
<g id="testimonial-style-2">
</g>
<g id="testimonial-style-3">
</g>
<g id="testimonial-style-4">
</g>
<g id="team-member-style-1">
</g>
<g id="team-member-style-2">
</g>
<g id="team-member-style-3">
</g>
<g id="layout-full">
</g>
<g id="layout-left">
</g>
<g id="layout-right">
</g>
<g id="inherit">
</g>
<g id="disable">
</g>
<g id="page-title-default">
</g>
<g id="page-title-style-1">
</g>
<g id="page-title-style-2">
</g>
<g id="page-title-style-3-trina">
</g>
<g id="product-banner-info-custom">
</g>
<g id="product-banner-info-product">
</g>
<g id="product-banner-info-inherit">
</g>
<g id="product-banner-info-style-1">
</g>
<g id="product-banner-info-style-2">
</g>
<g id="product-banner-info-style-3">
</g>
<g id="product-banner-info-style-4">
</g>
<g id="product-layout-inherit">
</g>
<g id="product-layout-1-elaina">
</g>
<g id="product-layout-2-ellen">
</g>
<g id="product-layout-3-ellinor">
</g>
<g id="product-layout-4-ella">
</g>
<g id="product-layout-5-esmeralda">
</g>
<g id="product-layout-6-eunika">
</g>
<g id="icon-box-style-1">
</g>
<g id="icon-box-style-2">
</g>
<g id="icon-box-style-3">
</g>
<g id="icon-list-style-1">
</g>
<g id="icon-list-style-2">
</g>
<g id="icon-list-style-3">
</g>
<g id="brand-logo-grey">
</g>
<g id="brand-logo-opacity">
</g>
<g id="post-slider-tab-style-1">
</g>
<g id="post-slider-tab-style-2">
</g>
<g id="post-slider-tab-style-3">
</g>
<g id="post-list-style-1">
</g>
<g id="post-list-style-2">
</g>
<g id="portfolio-slider-tab-style-1">
</g>
<g id="portfolio-slider-tab-style-2">
</g>
<g id="portfolio-slider-tab-style-3">
</g>
<g id="portfolio-slider-tab-style-4">
</g>
<g id="portfolio-slider-tab-style-5">
</g>
<g id="hotspot-text">
</g>
<g id="hotspot-lightbox">
</g>
<g id="hotspot-video">
</g>
<g id="shape-disable">
</g>
<g id="shape-style-1">
</g>
<g id="shape-style-2">
</g>
<g id="shape-style-3">
</g>
<g id="shape-style-4">
</g>
<g id="shape-style-5">
</g>
<g id="shape-style-6">
</g>
<g id="shape-style-7">
</g>
<g id="shape-style-8">
</g>
<g id="shape-style-9">
</g>
<g id="shape-style-10">
</g>
<g id="shape-style-11">
</g>
<g id="shape-style-12">
</g>
<g id="shape-style-13">
</g>
<g id="shape-style-14">
</g>
<g id="shape-bottom-style-1">
	<g>
		<g>
			<path class="st1" d="M79,1v78H1V1H79 M80,0H0v80h80V0L80,0z"/>
		</g>
	</g>
	<g>
		<g>
			<rect y="64" width="80" height="16"/>
		</g>
	</g>
	<g>
		<path class="st0" d="M22,70V71H21V70H22z M22,71V72H21V71H22z M22,75V76H21V75H22z M23,69V70H22V69H23z M23,72V73H22V72H23z
			 M23,75V76H22V75H23z M24,69V70H23V69H24z M24,72V73H23V72H24z M24,75V76H23V75H24z M25,69V70H24V69H25z M25,72V73H24V72H25z
			 M25,75V76H24V75H25z M26,69V70H25V69H26z M26,73V74H25V73H26z M26,74V75H25V74H26z"/>
		<path class="st0" d="M28,69V70H27V69H28z M28,70V71H27V70H28z M28,71V72H27V71H28z M28,72V73H27V72H28z M28,73V74H27V73H28z
			 M28,74V75H27V74H28z M29,71V72H28V71H29z M29,75V76H28V75H29z M30,71V72H29V71H30z M30,75V76H29V75H30z M31,71V72H30V71H31z
			 M31,75V76H30V75H31z"/>
		<path class="st0" d="M32,77V78H31V77H32z M33,71V72H32V71H33z M33,72V73H32V72H33z M33,73V74H32V73H33z M33,77V78H32V77H33z
			 M34,74V75H33V74H34z M34,76V77H33V76H34z M35,75V76H34V75H35z M36,74V75H35V74H36z M37,71V72H36V71H37z M37,72V73H36V72H37z
			 M37,73V74H36V73H37z"/>
		<path class="st0" d="M39,68V69H38V68H39z M39,69V70H38V69H39z M39,70V71H38V70H39z M39,71V72H38V71H39z M39,72V73H38V72H39z
			 M39,73V74H38V73H39z M39,74V75H38V74H39z M40,75V76H39V75H40z M41,75V76H40V75H41z"/>
		<path class="st0" d="M42,72V73H41V72H42z M42,73V74H41V73H42z M42,74V75H41V74H42z M43,71V72H42V71H43z M43,73V74H42V73H43z
			 M43,75V76H42V75H43z M44,71V72H43V71H44z M44,73V74H43V73H44z M44,75V76H43V75H44z M45,71V72H44V71H45z M45,73V74H44V73H45z
			 M45,75V76H44V75H45z M46,72V73H45V72H46z M46,73V74H45V73H46z M46,75V76H45V75H46z"/>
		<path class="st0" d="M50,69V70H49V69H50z M50,75V76H49V75H50z M51,69V70H50V69H51z M51,75V76H50V75H51z M52,69V70H51V69H52z
			 M52,70V71H51V70H52z M52,71V72H51V71H52z M52,72V73H51V72H52z M52,73V74H51V73H52z M52,74V75H51V74H52z M52,75V76H51V75H52z
			 M53,75V76H52V75H53z M54,75V76H53V75H54z"/>
	</g>
	<path class="st4" d="M3,3v29.2v1.7v4.3c0,0,6.6-3.1,20.2-3.1c9.8,0,23.8,6,33.6,6C70.4,41,77,38.1,77,38.1v-4.3v-1.7V3H3z"/>
	<path class="st0" d="M56,69V70H55V69H56z M56,70V71H55V70H56z M56,71V72H55V71H56z M56,72V73H55V72H56z M56,75V76H55V75H56z M57,69
		V70H56V69H57z M57,72V73H56V72H57z M57,75V76H56V75H57z M58,69V70H57V69H58z M58,72V73H57V72H58z M58,75V76H57V75H58z M59,69V70H58
		V69H59z M59,72V73H58V72H59z M59,75V76H58V75H59z M60,69V70H59V69H60z M60,73V74H59V73H60z M60,74V75H59V74H60z"/>
</g>
<g id="shape-bottom-style-2">
</g>
<g id="shape-bottom-style-3">
</g>
<g id="shape-bottom-style-4">
</g>
<g id="shape-bottom-style-5">
</g>
<g id="shape-bottom-style-6">
</g>
<g id="shape-bottom-style-7">
</g>
<g id="shape-bottom-style-8">
</g>
<g id="shape-bottom-style-9">
</g>
<g id="shape-bottom-style-10">
</g>
<g id="shape-bottom-style-11">
</g>
<g id="shape-bottom-style-12">
</g>
<g id="shape-bottom-style-13">
</g>
<g id="shape-bottom-style-14">
</g>
</svg>
