<svg xmlns="http://www.w3.org/2000/svg" width="80" height="80" viewBox="0 0 80 80"><defs><style>.cls-1{fill:#d8d8d8;}.cls-2{fill:#fff;}.cls-3,.cls-5{fill:gray;}.cls-3{fill-opacity:0.7;}.cls-4{opacity:0.5;}</style></defs><title>df</title><g id="shape-style-7"><path class="cls-1" d="M79,1V79H1V1H79m1-1H0V80H80V0Z"/><rect y="64" width="80" height="16"/><path class="cls-2" d="M25,70V71H24V70Zm0,1V72H24V71Zm0,4V76H24V75Zm1-6V70H25V69Zm0,3V73H25V72Zm0,3V76H25V75Zm1-6V70H26V69Zm0,3V73H26V72Zm0,3V76H26V75Zm1-6V70H27V69Zm0,3V73H27V72Zm0,3V76H27V75Zm1-6V70H28V69Zm0,4V74H28V73Zm0,1V75H28V74Z"/><path class="cls-2" d="M31,69V70H30V69Zm0,1V71H30V70Zm0,1V72H30V71Zm0,1V73H30V72Zm0,1V74H30V73Zm0,1V75H30V74Zm1-3V72H31V71Zm0,4V76H31V75Zm1-4V72H32V71Zm0,4V76H32V75Zm1-4V72H33V71Zm0,4V76H33V75Z"/><path class="cls-2" d="M35,77V78H34V77Zm1-6V72H35V71Zm0,1V73H35V72Zm0,1V74H35V73Zm0,4V78H35V77Zm1-3V75H36V74Zm0,2V77H36V76Zm1-1V76H37V75Zm1-1V75H38V74Zm1-3V72H39V71Zm0,1V73H39V72Zm0,1V74H39V73Z"/><path class="cls-2" d="M42,68V69H41V68Zm0,1V70H41V69Zm0,1V71H41V70Zm0,1V72H41V71Zm0,1V73H41V72Zm0,1V74H41V73Zm0,1V75H41V74Zm1,1V76H42V75Zm1,0V76H43V75Z"/><path class="cls-2" d="M45,72V73H44V72Zm0,1V74H44V73Zm0,1V75H44V74Zm1-3V72H45V71Zm0,2V74H45V73Zm0,2V76H45V75Zm1-4V72H46V71Zm0,2V74H46V73Zm0,2V76H46V75Zm1-4V72H47V71Zm0,2V74H47V73Zm0,2V76H47V75Zm1-3V73H48V72Zm0,1V74H48V73Zm0,2V76H48V75Z"/><path class="cls-2" d="M53,69V70H52V69Zm1,0V70H53V69Zm0,4V74H53V73Zm0,1V75H53V74Zm0,1V76H53V75Zm1-6V70H54V69Zm0,3V73H54V72Zm1-3V70H55V69Zm0,2V72H55V71Zm1-2V70H56V69Zm0,1V71H56V70Z"/><rect class="cls-3" x="3" y="3" width="74" height="34"/><g class="cls-4"><polygon class="cls-5" points="3 49 3 3 77 3 77 25 3 49"/></g><g class="cls-4"><polygon class="cls-5" points="77 49 77 3 3 3 3 25 77 49"/></g></g></svg>