<svg xmlns="http://www.w3.org/2000/svg" width="80" height="80" viewBox="0 0 80 80"><defs><style>.cls-1{fill:#d8d8d8;}.cls-2{fill:#fff;}.cls-3,.cls-4,.cls-6,.cls-7{fill:gray;}.cls-3{fill-opacity:0.4;}.cls-4,.cls-5{fill-opacity:0.7;}.cls-5{fill:#606060;}.cls-7{fill-opacity:0.65;}</style></defs><title>df</title><g id="shape-style-14"><path class="cls-1" d="M79,1V79H1V1H79m1-1H0V80H80V0Z"/><rect y="64" width="80" height="16"/><path class="cls-2" d="M22,70V71H21V70Zm0,1V72H21V71Zm0,4V76H21V75Zm1-6V70H22V69Zm0,3V73H22V72Zm0,3V76H22V75Zm1-6V70H23V69Zm0,3V73H23V72Zm0,3V76H23V75Zm1-6V70H24V69Zm0,3V73H24V72Zm0,3V76H24V75Zm1-6V70H25V69Zm0,4V74H25V73Zm0,1V75H25V74Z"/><path class="cls-2" d="M28,69V70H27V69Zm0,1V71H27V70Zm0,1V72H27V71Zm0,1V73H27V72Zm0,1V74H27V73Zm0,1V75H27V74Zm1-3V72H28V71Zm0,4V76H28V75Zm1-4V72H29V71Zm0,4V76H29V75Zm1-4V72H30V71Zm0,4V76H30V75Z"/><path class="cls-2" d="M32,77V78H31V77Zm1-6V72H32V71Zm0,1V73H32V72Zm0,1V74H32V73Zm0,4V78H32V77Zm1-3V75H33V74Zm0,2V77H33V76Zm1-1V76H34V75Zm1-1V75H35V74Zm1-3V72H36V71Zm0,1V73H36V72Zm0,1V74H36V73Z"/><path class="cls-2" d="M39,68V69H38V68Zm0,1V70H38V69Zm0,1V71H38V70Zm0,1V72H38V71Zm0,1V73H38V72Zm0,1V74H38V73Zm0,1V75H38V74Zm1,1V76H39V75Zm1,0V76H40V75Z"/><path class="cls-2" d="M42,72V73H41V72Zm0,1V74H41V73Zm0,1V75H41V74Zm1-3V72H42V71Zm0,2V74H42V73Zm0,2V76H42V75Zm1-4V72H43V71Zm0,2V74H43V73Zm0,2V76H43V75Zm1-4V72H44V71Zm0,2V74H44V73Zm0,2V76H44V75Zm1-3V73H45V72Zm0,1V74H45V73Zm0,2V76H45V75Z"/><path class="cls-2" d="M50,69V70H49V69Zm0,6V76H49V75Zm1-6V70H50V69Zm0,6V76H50V75Zm1-6V70H51V69Zm0,1V71H51V70Zm0,1V72H51V71Zm0,1V73H51V72Zm0,1V74H51V73Zm0,1V75H51V74Zm0,1V76H51V75Zm1,0V76H52V75Zm1,0V76H53V75Z"/><path class="cls-2" d="M56,72V73H55V72Zm0,1V74H55V73Zm1-2V72H56V71Zm0,2V74H56V73Zm1-3V71H57V70Zm0,3V74H57V73Zm1-4V70H58V69Zm0,4V74H58V73Zm1-4V70H59V69Zm0,1V71H59V70Zm0,1V72H59V71Zm0,1V73H59V72Zm0,1V74H59V73Zm0,1V75H59V74Zm0,1V76H59V75Z"/><path class="cls-3" d="M24.61,29.75c6.9-3.76,9.36-4.29,20.13,0,13.39,5.33,19.24,9.4,28.42,7.47,1.19-.25,2.49-.59,3.85-1V18l-68.38.68L3,23.07V39.23C10.45,39.82,20.34,32.07,24.61,29.75Z"/><path class="cls-4" d="M13.73,36.86c6.7,4.07,12-7.7,19.76-8.73,4-.53,10.53,5.54,17.39,8,5.18,1.85,13-1.41,22.42-5.4a8.11,8.11,0,0,1,3.7-.53V21.71L3,22.28v5.48A48.57,48.57,0,0,0,13.73,36.86Z"/><path class="cls-5" d="M4.55,20.95C10.47,30.65,17,27.68,24.9,31.09c8.44,3.63,12,3.92,19.83-.89,6.78-4.16,29.75-5.85,29.75-5.85L61.76,18H3v6.6Z"/><path class="cls-6" d="M7.81,27.83c7.22,4.57,11.77,2.29,15.84.3C29.58,25.21,35.19,24,43.26,27c8.41,3.16,11.1,2.37,20.28.44A15.28,15.28,0,0,1,77,30.8V3H3V26A12.61,12.61,0,0,1,7.81,27.83Z"/><path class="cls-7" d="M11.14,33.08C14.47,30,25.91,19.19,27.2,20.21c3.77,3,20.42,3.4,21,3.11C55.16,19.84,71.57,34.57,77,39.72V18L3,18.74V37.66C5.87,37.24,8.74,35.32,11.14,33.08Z"/></g></svg>