<svg xmlns="http://www.w3.org/2000/svg" width="80" height="80" viewBox="0 0 80 80"><defs><style>.cls-1{fill:#d8d8d8;}.cls-2{fill:#fff;}.cls-3,.cls-4,.cls-5{fill:gray;}.cls-4{fill-opacity:0.61;}.cls-5{fill-opacity:0.6;}</style></defs><title>df</title><g id="shape-style-13"><path class="cls-1" d="M79,1V79H1V1H79m1-1H0V80H80V0Z"/><rect y="64" width="80" height="16"/><path class="cls-2" d="M22,70V71H21V70Zm0,1V72H21V71Zm0,4V76H21V75Zm1-6V70H22V69Zm0,3V73H22V72Zm0,3V76H22V75Zm1-6V70H23V69Zm0,3V73H23V72Zm0,3V76H23V75Zm1-6V70H24V69Zm0,3V73H24V72Zm0,3V76H24V75Zm1-6V70H25V69Zm0,4V74H25V73Zm0,1V75H25V74Z"/><path class="cls-2" d="M28,69V70H27V69Zm0,1V71H27V70Zm0,1V72H27V71Zm0,1V73H27V72Zm0,1V74H27V73Zm0,1V75H27V74Zm1-3V72H28V71Zm0,4V76H28V75Zm1-4V72H29V71Zm0,4V76H29V75Zm1-4V72H30V71Zm0,4V76H30V75Z"/><path class="cls-2" d="M32,77V78H31V77Zm1-6V72H32V71Zm0,1V73H32V72Zm0,1V74H32V73Zm0,4V78H32V77Zm1-3V75H33V74Zm0,2V77H33V76Zm1-1V76H34V75Zm1-1V75H35V74Zm1-3V72H36V71Zm0,1V73H36V72Zm0,1V74H36V73Z"/><path class="cls-2" d="M39,68V69H38V68Zm0,1V70H38V69Zm0,1V71H38V70Zm0,1V72H38V71Zm0,1V73H38V72Zm0,1V74H38V73Zm0,1V75H38V74Zm1,1V76H39V75Zm1,0V76H40V75Z"/><path class="cls-2" d="M42,72V73H41V72Zm0,1V74H41V73Zm0,1V75H41V74Zm1-3V72H42V71Zm0,2V74H42V73Zm0,2V76H42V75Zm1-4V72H43V71Zm0,2V74H43V73Zm0,2V76H43V75Zm1-4V72H44V71Zm0,2V74H44V73Zm0,2V76H44V75Zm1-3V73H45V72Zm0,1V74H45V73Zm0,2V76H45V75Z"/><path class="cls-2" d="M50,69V70H49V69Zm0,6V76H49V75Zm1-6V70H50V69Zm0,6V76H50V75Zm1-6V70H51V69Zm0,1V71H51V70Zm0,1V72H51V71Zm0,1V73H51V72Zm0,1V74H51V73Zm0,1V75H51V74Zm0,1V76H51V75Zm1,0V76H52V75Zm1,0V76H53V75Z"/><path class="cls-2" d="M56,69V70H55V69Zm0,6V76H55V75Zm1-6V70H56V69Zm0,3V73H56V72Zm0,3V76H56V75Zm1-6V70H57V69Zm0,2V72H57V71Zm0,1V73H57V72Zm0,3V76H57V75Zm1-6V70H58V69Zm0,1V71H58V70Zm0,2V73H58V72Zm0,3V76H58V75Zm1-6V70H59V69Zm0,4V74H59V73Zm0,1V75H59V74Z"/><path class="cls-3" d="M3,3V34.6A241.73,241.73,0,0,1,39.41,32C63.07,32,77,34.4,77,34.4V3Z"/><path class="cls-4" d="M3,37.56C16.27,36.32,28.7,33.65,40,33c16.95-1,37,2.37,37,2.37V31.3H3Z"/><path class="cls-5" d="M3,35.69A156.67,156.67,0,0,1,54.8,35C70.44,37.4,77,37.66,77,37.66V31H3Z"/></g></svg>