<svg xmlns="http://www.w3.org/2000/svg" width="80" height="80" viewBox="0 0 80 80"><defs><style>.cls-1{fill:#d8d8d8;}.cls-2{fill:#fff;}.cls-3,.cls-4{fill:gray;}.cls-4{fill-opacity:0.5;}</style></defs><title>df</title><g id="shape-style-11"><path class="cls-1" d="M79,1V79H1V1H79m1-1H0V80H80V0Z"/><rect y="64" width="80" height="16"/><path class="cls-2" d="M22,70V71H21V70Zm0,1V72H21V71Zm0,4V76H21V75Zm1-6V70H22V69Zm0,3V73H22V72Zm0,3V76H22V75Zm1-6V70H23V69Zm0,3V73H23V72Zm0,3V76H23V75Zm1-6V70H24V69Zm0,3V73H24V72Zm0,3V76H24V75Zm1-6V70H25V69Zm0,4V74H25V73Zm0,1V75H25V74Z"/><path class="cls-2" d="M28,69V70H27V69Zm0,1V71H27V70Zm0,1V72H27V71Zm0,1V73H27V72Zm0,1V74H27V73Zm0,1V75H27V74Zm1-3V72H28V71Zm0,4V76H28V75Zm1-4V72H29V71Zm0,4V76H29V75Zm1-4V72H30V71Zm0,4V76H30V75Z"/><path class="cls-2" d="M32,77V78H31V77Zm1-6V72H32V71Zm0,1V73H32V72Zm0,1V74H32V73Zm0,4V78H32V77Zm1-3V75H33V74Zm0,2V77H33V76Zm1-1V76H34V75Zm1-1V75H35V74Zm1-3V72H36V71Zm0,1V73H36V72Zm0,1V74H36V73Z"/><path class="cls-2" d="M39,68V69H38V68Zm0,1V70H38V69Zm0,1V71H38V70Zm0,1V72H38V71Zm0,1V73H38V72Zm0,1V74H38V73Zm0,1V75H38V74Zm1,1V76H39V75Zm1,0V76H40V75Z"/><path class="cls-2" d="M42,72V73H41V72Zm0,1V74H41V73Zm0,1V75H41V74Zm1-3V72H42V71Zm0,2V74H42V73Zm0,2V76H42V75Zm1-4V72H43V71Zm0,2V74H43V73Zm0,2V76H43V75Zm1-4V72H44V71Zm0,2V74H44V73Zm0,2V76H44V75Zm1-3V73H45V72Zm0,1V74H45V73Zm0,2V76H45V75Z"/><path class="cls-2" d="M50,69V70H49V69Zm0,6V76H49V75Zm1-6V70H50V69Zm0,6V76H50V75Zm1-6V70H51V69Zm0,1V71H51V70Zm0,1V72H51V71Zm0,1V73H51V72Zm0,1V74H51V73Zm0,1V75H51V74Zm0,1V76H51V75Zm1,0V76H52V75Zm1,0V76H53V75Z"/><path class="cls-2" d="M56,69V70H55V69Zm0,6V76H55V75Zm1-6V70H56V69Zm0,6V76H56V75Zm1-6V70H57V69Zm0,1V71H57V70Zm0,1V72H57V71Zm0,1V73H57V72Zm0,1V74H57V73Zm0,1V75H57V74Zm0,1V76H57V75Zm1,0V76H58V75Zm1,0V76H59V75Z"/><path class="cls-3" d="M3,3V47.94c16.08.94,22.27-9.5,29.94-11.5s12.9,2.21,19,2.13c5.93-.07,9.64-2.73,15.86-5.15A15.06,15.06,0,0,1,77,32.6V3Z"/><path class="cls-4" d="M77,31.22H14.41l-.15,4s.21.22-.09.46a.13.13,0,0,0,0,.19.14.14,0,0,0,.08,0c.76.15,4,1.72,7.22,3.2,18.16,8.24,25-7.16,32.09-7.65C61.73,30.95,69,37.36,77,34.62Z"/></g></svg>