<svg xmlns="http://www.w3.org/2000/svg" width="80" height="80" viewBox="0 0 80 80"><defs><style>.cls-1{fill:#d8d8d8;}.cls-2,.cls-3{fill:gray;}.cls-3{opacity:0.85;}.cls-4{fill:#fff;}</style></defs><title>shape-bottom-style-4</title><g id="shape-bottom-style-4"><path class="cls-1" d="M79,1V79H1V1H79m1-1H0V80H80V0Z"/><rect y="64" width="80" height="16"/><polygon class="cls-2" points="77 3 40 24 3 3 77 3"/><polygon class="cls-3" points="77 3 77 45 40 24 77 3"/><path class="cls-4" d="M25,70.08V71h-.92v-.92Zm0,1V72h-.92v-.92Zm0,4V76h-.92v-.92Zm1-6V70h-.92v-.92Zm0,3V73h-.92v-.92Zm0,3V76h-.92v-.92Zm1-6V70h-.92v-.92Zm0,3V73h-.92v-.92Zm0,3V76h-.92v-.92Zm1-6V70h-.92v-.92Zm0,3V73h-.92v-.92Zm0,3V76h-.92v-.92Zm1-6V70h-.92v-.92Zm0,4V74h-.92v-.92Zm0,1V75h-.92v-.92Z"/><path class="cls-4" d="M31,69.08V70h-.92v-.92Zm0,1V71h-.92v-.92Zm0,1V72h-.92v-.92Zm0,1V73h-.92v-.92Zm0,1V74h-.92v-.92Zm0,1V75h-.92v-.92Zm1-3V72h-.92v-.92Zm0,4V76h-.92v-.92Zm1-4V72h-.92v-.92Zm0,4V76h-.92v-.92Zm1-4V72h-.92v-.92Zm0,4V76h-.92v-.92Z"/><path class="cls-4" d="M35,77.08V78h-.92v-.92Zm1-6V72h-.92v-.92Zm0,1V73h-.92v-.92Zm0,1V74h-.92v-.92Zm0,4V78h-.92v-.92Zm1-3V75h-.92v-.92Zm0,2V77h-.92v-.92Zm1-1V76h-.92v-.92Zm1-1V75h-.92v-.92Zm1-3V72h-.92v-.92Zm0,1V73h-.92v-.92Zm0,1V74h-.92v-.92Z"/><path class="cls-4" d="M42,68.08V69h-.92v-.92Zm0,1V70h-.92v-.92Zm0,1V71h-.92v-.92Zm0,1V72h-.92v-.92Zm0,1V73h-.92v-.92Zm0,1V74h-.92v-.92Zm0,1V75h-.92v-.92Zm1,1V76h-.92v-.92Zm1,0V76h-.92v-.92Z"/><path class="cls-4" d="M45,72.08V73h-.92v-.92Zm0,1V74h-.92v-.92Zm0,1V75h-.92v-.92Zm1-3V72h-.92v-.92Zm0,2V74h-.92v-.92Zm0,2V76h-.92v-.92Zm1-4V72h-.92v-.92Zm0,2V74h-.92v-.92Zm0,2V76h-.92v-.92Zm1-4V72h-.92v-.92Zm0,2V74h-.92v-.92Zm0,2V76h-.92v-.92Zm1-3V73h-.92v-.92Zm0,1V74h-.92v-.92Zm0,2V76h-.92v-.92Z"/><path class="cls-4" d="M53,69.08V70h-.92v-.92Zm0,6V76h-.92v-.92Zm1-6V70h-.92v-.92Zm0,6V76h-.92v-.92Zm1-6V70h-.92v-.92Zm0,1V71h-.92v-.92Zm0,1V72h-.92v-.92Zm0,1V73h-.92v-.92Zm0,1V74h-.92v-.92Zm0,1V75h-.92v-.92Zm0,1V76h-.92v-.92Zm1,0V76h-.92v-.92Zm1,0V76h-.92v-.92Z"/><path class="cls-4" d="M59,70.08V71h-.92v-.92Zm0,1V72h-.92v-.92Zm0,2V74h-.92v-.92Zm0,1V75h-.92v-.92Zm1-5V70h-.92v-.92Zm0,3V73h-.92v-.92Zm0,3V76h-.92v-.92Zm1-6V70h-.92v-.92Zm0,3V73h-.92v-.92Zm0,3V76h-.92v-.92Zm1-6V70h-.92v-.92Zm0,3V73h-.92v-.92Zm0,3V76h-.92v-.92Zm1-5V71h-.92v-.92Zm0,1V72h-.92v-.92Zm0,2V74h-.92v-.92Zm0,1V75h-.92v-.92Z"/></g></svg>