<svg xmlns="http://www.w3.org/2000/svg" xmlns:xlink="http://www.w3.org/1999/xlink" width="80" height="80" viewBox="0 0 80 80"><defs><style>.cls-1{fill:#d8d8d8;}.cls-2{fill:#fff;}.cls-3{fill:url(#linear-gradient);}</style><linearGradient id="linear-gradient" x1="40" y1="39.08" x2="40" y2="4.38" gradientUnits="userSpaceOnUse"><stop offset="0" stop-opacity="0"/><stop offset="0.1" stop-color="#191919" stop-opacity="0.19"/><stop offset="0.29" stop-color="#3e3e3e" stop-opacity="0.48"/><stop offset="0.47" stop-color="#5b5b5b" stop-opacity="0.71"/><stop offset="0.65" stop-color="#6f6f6f" stop-opacity="0.87"/><stop offset="0.83" stop-color="#7c7c7c" stop-opacity="0.97"/><stop offset="1" stop-color="gray"/></linearGradient></defs><title>shape-bottom-style-2</title><g id="shape-bottom-style-2"><path class="cls-1" d="M79,1V79H1V1H79m1-1H0V80H80V0Z"/><rect y="64" width="80" height="16"/><path class="cls-2" d="M25,70.09V71H24v-.92Zm0,1V72H24v-.92Zm0,4V76H24v-.92Zm1-6V70H25v-.92Zm0,3V73H25v-.92Zm0,3V76H25v-.92Zm1-6V70H26v-.92Zm0,3V73H26v-.92Zm0,3V76H26v-.92Zm1-6V70H27v-.92Zm0,3V73H27v-.92Zm0,3V76H27v-.92Zm1-6V70H28v-.92Zm0,4V74H28v-.92Zm0,1V75H28v-.92Z"/><path class="cls-2" d="M31,69.09V70H30v-.92Zm0,1V71H30v-.92Zm0,1V72H30v-.92Zm0,1V73H30v-.92Zm0,1V74H30v-.92Zm0,1V75H30v-.92Zm1-3V72H31v-.92Zm0,4V76H31v-.92Zm1-4V72H32v-.92Zm0,4V76H32v-.92Zm1-4V72H33v-.92Zm0,4V76H33v-.92Z"/><path class="cls-2" d="M35,77.09V78H34v-.92Zm1-6V72H35v-.92Zm0,1V73H35v-.92Zm0,1V74H35v-.92Zm0,4V78H35v-.92Zm1-3V75H36v-.92Zm0,2V77H36v-.92Zm1-1V76H37v-.92Zm1-1V75H38v-.92Zm1-3V72H39v-.92Zm0,1V73H39v-.92Zm0,1V74H39v-.92Z"/><path class="cls-2" d="M42,68.09V69H41v-.92Zm0,1V70H41v-.92Zm0,1V71H41v-.92Zm0,1V72H41v-.92Zm0,1V73H41v-.92Zm0,1V74H41v-.92Zm0,1V75H41v-.92Zm1,1V76H42v-.92Zm1,0V76H43v-.92Z"/><path class="cls-2" d="M45,72.09V73H44v-.92Zm0,1V74H44v-.92Zm0,1V75H44v-.92Zm1-3V72H45v-.92Zm0,2V74H45v-.92Zm0,2V76H45v-.92Zm1-4V72H46v-.92Zm0,2V74H46v-.92Zm0,2V76H46v-.92Zm1-4V72H47v-.92Zm0,2V74H47v-.92Zm0,2V76H47v-.92Zm1-3V73H48v-.92Zm0,1V74H48v-.92Zm0,2V76H48v-.92Z"/><path class="cls-2" d="M53,69.09V70H52v-.92Zm0,6V76H52v-.92Zm1-6V70H53v-.92Zm0,6V76H53v-.92Zm1-6V70H54v-.92Zm0,1V71H54v-.92Zm0,1V72H54v-.92Zm0,1V73H54v-.92Zm0,1V74H54v-.92Zm0,1V75H54v-.92Zm0,1V76H54v-.92Zm1,0V76H55v-.92Zm1,0V76H56v-.92Z"/><path class="cls-2" d="M59,71.09V72H58v-.92Zm0,1V73H58v-.92Zm0,1V74H58v-.92Zm0,1V75H58v-.92Zm1-4V71H59v-.92Zm0,2V73H59v-.92Zm0,3V76H59v-.92Zm1-6V70H60v-.92Zm0,3V73H60v-.92Zm0,3V76H60v-.92Zm1-6V70H61v-.92Zm0,3V73H61v-.92Zm0,3V76H61v-.92Zm1-6V70H62v-.92Zm0,4V74H62v-.92Zm0,1V75H62v-.92Z"/><rect class="cls-3" x="3" y="3" width="74" height="36"/></g></svg>