<svg xmlns="http://www.w3.org/2000/svg" width="80" height="80" viewBox="0 0 80 80"><defs><style>.cls-1{fill:#d8d8d8;}.cls-2{fill:#fff;}.cls-3,.cls-4{fill:gray;}.cls-3{fill-opacity:0.3;}</style></defs><title>df</title><g id="shape-style-12"><path class="cls-1" d="M79,1V79H1V1H79m1-1H0V80H80V0Z"/><rect y="64" width="80" height="16"/><path class="cls-2" d="M22,70V71H21V70Zm0,1V72H21V71Zm0,4V76H21V75Zm1-6V70H22V69Zm0,3V73H22V72Zm0,3V76H22V75Zm1-6V70H23V69Zm0,3V73H23V72Zm0,3V76H23V75Zm1-6V70H24V69Zm0,3V73H24V72Zm0,3V76H24V75Zm1-6V70H25V69Zm0,4V74H25V73Zm0,1V75H25V74Z"/><path class="cls-2" d="M28,69V70H27V69Zm0,1V71H27V70Zm0,1V72H27V71Zm0,1V73H27V72Zm0,1V74H27V73Zm0,1V75H27V74Zm1-3V72H28V71Zm0,4V76H28V75Zm1-4V72H29V71Zm0,4V76H29V75Zm1-4V72H30V71Zm0,4V76H30V75Z"/><path class="cls-2" d="M32,77V78H31V77Zm1-6V72H32V71Zm0,1V73H32V72Zm0,1V74H32V73Zm0,4V78H32V77Zm1-3V75H33V74Zm0,2V77H33V76Zm1-1V76H34V75Zm1-1V75H35V74Zm1-3V72H36V71Zm0,1V73H36V72Zm0,1V74H36V73Z"/><path class="cls-2" d="M39,68V69H38V68Zm0,1V70H38V69Zm0,1V71H38V70Zm0,1V72H38V71Zm0,1V73H38V72Zm0,1V74H38V73Zm0,1V75H38V74Zm1,1V76H39V75Zm1,0V76H40V75Z"/><path class="cls-2" d="M42,72V73H41V72Zm0,1V74H41V73Zm0,1V75H41V74Zm1-3V72H42V71Zm0,2V74H42V73Zm0,2V76H42V75Zm1-4V72H43V71Zm0,2V74H43V73Zm0,2V76H43V75Zm1-4V72H44V71Zm0,2V74H44V73Zm0,2V76H44V75Zm1-3V73H45V72Zm0,1V74H45V73Zm0,2V76H45V75Z"/><path class="cls-2" d="M50,69V70H49V69Zm0,6V76H49V75Zm1-6V70H50V69Zm0,6V76H50V75Zm1-6V70H51V69Zm0,1V71H51V70Zm0,1V72H51V71Zm0,1V73H51V72Zm0,1V74H51V73Zm0,1V75H51V74Zm0,1V76H51V75Zm1,0V76H52V75Zm1,0V76H53V75Z"/><path class="cls-2" d="M56,69V70H55V69Zm0,5V75H55V74Zm0,1V76H55V75Zm1-6V70H56V69Zm0,4V74H56V73Zm0,2V76H56V75Zm1-6V70H57V69Zm0,3V73H57V72Zm0,3V76H57V75Zm1-6V70H58V69Zm0,3V73H58V72Zm0,3V76H58V75Zm1-5V71H59V70Zm0,1V72H59V71Zm0,4V76H59V75Z"/><path class="cls-3" d="M3.15,31.12,3,51.72c11.45,2.66,22.89-10,30.65-12.11,7.58-2.09,11,2.36,17.13,2.29C56.69,41.83,61.27,38,67.69,36A18.85,18.85,0,0,1,77,35.14v-4Z"/><path class="cls-3" d="M3.15,32.08,3,50.69c11.59,3.18,22.3-10.63,29.91-13.15S44.65,41,50.78,40.94c5.91-.07,10.72-4,16.91-6.43,4.82-1.89,7.69-1.23,9.31-.78V32.08Z"/><path class="cls-4" d="M3,3V33.16l.07,14.9c16,.94,22.19-9.54,29.84-11.54s12.85,2.22,19,2.14c5.91-.07,9.61-2.74,15.8-5.17A14.84,14.84,0,0,1,77,32.7V3Z"/></g></svg>