<svg xmlns="http://www.w3.org/2000/svg" width="80" height="80" viewBox="0 0 80 80"><defs><style>.cls-1{fill:#d8d8d8;}.cls-2{fill:#fff;}.cls-3{fill:gray;}</style></defs><title>df</title><g id="shape-style-10"><path class="cls-1" d="M79,1V79H1V1H79m1-1H0V80H80V0Z"/><rect y="64" width="80" height="16"/><path class="cls-2" d="M22,70V71H21V70Zm0,1V72H21V71Zm0,4V76H21V75Zm1-6V70H22V69Zm0,3V73H22V72Zm0,3V76H22V75Zm1-6V70H23V69Zm0,3V73H23V72Zm0,3V76H23V75Zm1-6V70H24V69Zm0,3V73H24V72Zm0,3V76H24V75Zm1-6V70H25V69Zm0,4V74H25V73Zm0,1V75H25V74Z"/><path class="cls-2" d="M28,69V70H27V69Zm0,1V71H27V70Zm0,1V72H27V71Zm0,1V73H27V72Zm0,1V74H27V73Zm0,1V75H27V74Zm1-3V72H28V71Zm0,4V76H28V75Zm1-4V72H29V71Zm0,4V76H29V75Zm1-4V72H30V71Zm0,4V76H30V75Z"/><path class="cls-2" d="M32,77V78H31V77Zm1-6V72H32V71Zm0,1V73H32V72Zm0,1V74H32V73Zm0,4V78H32V77Zm1-3V75H33V74Zm0,2V77H33V76Zm1-1V76H34V75Zm1-1V75H35V74Zm1-3V72H36V71Zm0,1V73H36V72Zm0,1V74H36V73Z"/><path class="cls-2" d="M39,68V69H38V68Zm0,1V70H38V69Zm0,1V71H38V70Zm0,1V72H38V71Zm0,1V73H38V72Zm0,1V74H38V73Zm0,1V75H38V74Zm1,1V76H39V75Zm1,0V76H40V75Z"/><path class="cls-2" d="M42,72V73H41V72Zm0,1V74H41V73Zm0,1V75H41V74Zm1-3V72H42V71Zm0,2V74H42V73Zm0,2V76H42V75Zm1-4V72H43V71Zm0,2V74H43V73Zm0,2V76H43V75Zm1-4V72H44V71Zm0,2V74H44V73Zm0,2V76H44V75Zm1-3V73H45V72Zm0,1V74H45V73Zm0,2V76H45V75Z"/><path class="cls-2" d="M50,69V70H49V69Zm0,6V76H49V75Zm1-6V70H50V69Zm0,6V76H50V75Zm1-6V70H51V69Zm0,1V71H51V70Zm0,1V72H51V71Zm0,1V73H51V72Zm0,1V74H51V73Zm0,1V75H51V74Zm0,1V76H51V75Zm1,0V76H52V75Zm1,0V76H53V75Z"/><path class="cls-2" d="M56,70V71H55V70Zm0,1V72H55V71Zm0,1V73H55V72Zm0,1V74H55V73Zm0,1V75H55V74Zm1-5V70H56V69Zm0,2V72H56V71Zm0,4V76H56V75Zm1-6V70H57V69Zm0,3V73H57V72Zm0,3V76H57V75Zm1-6V70H58V69Zm0,4V74H58V73Zm0,2V76H58V75Zm1-5V71H59V70Zm0,1V72H59V71Zm0,1V73H59V72Zm0,1V74H59V73Zm0,1V75H59V74Z"/><path class="cls-3" d="M3,3V43.09a4.41,4.41,0,0,0,6.63-.93,6.6,6.6,0,0,0,7.94-1.7,3.12,3.12,0,0,0,5.78.08,2.06,2.06,0,0,0,2.41-.15,1.94,1.94,0,0,0,2.8,1,8,8,0,0,0,11.18.69,3.6,3.6,0,0,0,4.48.83,2.54,2.54,0,1,0,4.9,1.32,1.77,1.77,0,0,0,2.36-.84v0A5.33,5.33,0,0,0,60,41.28a3.89,3.89,0,0,0,4.85.9A9.22,9.22,0,0,0,77,44.36V3Z"/></g></svg>