<svg xmlns="http://www.w3.org/2000/svg" width="80" height="80" viewBox="0 0 80 80"><defs><style>.cls-1{fill:#d8d8d8;}.cls-2{fill:#fff;}.cls-3,.cls-4{fill:gray;}.cls-4{opacity:0.85;}</style></defs><title>shape-bottom-style-3</title><g id="shape-bottom-style-3"><path class="cls-1" d="M79,1V79H1V1H79m1-1H0V80H80V0Z"/><rect y="64" width="80" height="16"/><path class="cls-2" d="M25,70v.92h-.92V70Zm0,1v.92h-.92V71Zm0,4v.92h-.92V75Zm1-6v.92h-.92V69Zm0,3v.92h-.92V72Zm0,3v.92h-.92V75Zm1-6v.92h-.92V69Zm0,3v.92h-.92V72Zm0,3v.92h-.92V75Zm1-6v.92h-.92V69Zm0,3v.92h-.92V72Zm0,3v.92h-.92V75Zm1-6v.92h-.92V69Zm0,4v.92h-.92V73Zm0,1v.92h-.92V74Z"/><path class="cls-2" d="M31,69v.92h-.92V69Zm0,1v.92h-.92V70Zm0,1v.92h-.92V71Zm0,1v.92h-.92V72Zm0,1v.92h-.92V73Zm0,1v.92h-.92V74Zm1-3v.92h-.92V71Zm0,4v.92h-.92V75Zm1-4v.92h-.92V71Zm0,4v.92h-.92V75Zm1-4v.92h-.92V71Zm0,4v.92h-.92V75Z"/><path class="cls-2" d="M35,77v.92h-.92V77Zm1-6v.92h-.92V71Zm0,1v.92h-.92V72Zm0,1v.92h-.92V73Zm0,4v.92h-.92V77Zm1-3v.92h-.92V74Zm0,2v.92h-.92V76Zm1-1v.92h-.92V75Zm1-1v.92h-.92V74Zm1-3v.92h-.92V71Zm0,1v.92h-.92V72Zm0,1v.92h-.92V73Z"/><path class="cls-2" d="M42,68v.92h-.92V68Zm0,1v.92h-.92V69Zm0,1v.92h-.92V70Zm0,1v.92h-.92V71Zm0,1v.92h-.92V72Zm0,1v.92h-.92V73Zm0,1v.92h-.92V74Zm1,1v.92h-.92V75Zm1,0v.92h-.92V75Z"/><path class="cls-2" d="M45,72v.92h-.92V72Zm0,1v.92h-.92V73Zm0,1v.92h-.92V74Zm1-3v.92h-.92V71Zm0,2v.92h-.92V73Zm0,2v.92h-.92V75Zm1-4v.92h-.92V71Zm0,2v.92h-.92V73Zm0,2v.92h-.92V75Zm1-4v.92h-.92V71Zm0,2v.92h-.92V73Zm0,2v.92h-.92V75Zm1-3v.92h-.92V72Zm0,1v.92h-.92V73Zm0,2v.92h-.92V75Z"/><path class="cls-2" d="M53,69v.92h-.92V69Zm0,6v.92h-.92V75Zm1-6v.92h-.92V69Zm0,6v.92h-.92V75Zm1-6v.92h-.92V69Zm0,1v.92h-.92V70Zm0,1v.92h-.92V71Zm0,1v.92h-.92V72Zm0,1v.92h-.92V73Zm0,1v.92h-.92V74Zm0,1v.92h-.92V75Zm1,0v.92h-.92V75Zm1,0v.92h-.92V75Z"/><path class="cls-2" d="M59,69v.92h-.92V69Zm1,0v.92h-.92V69Zm0,4v.92h-.92V73Zm0,1v.92h-.92V74Zm0,1v.92h-.92V75Zm1-6v.92h-.92V69Zm0,3v.92h-.92V72Zm1-3v.92h-.92V69Zm0,2v.92h-.92V71Zm1-2v.92h-.92V69Zm0,1v.92h-.92V70Z"/><polygon class="cls-3" points="3 3 40 24 77 3 3 3"/><polygon class="cls-4" points="3 3 3 45 40 24 3 3"/></g></svg>