<svg xmlns="http://www.w3.org/2000/svg" width="80" height="80" viewBox="0 0 80 80"><defs><style>.cls-1{fill:#fff;}.cls-2{fill:#d8d8d8;}.cls-3{opacity:0.9;}.cls-4{fill:#09090a;}.cls-5{fill:#f2f2f2;}.cls-6{fill:gray;}.cls-7{fill:#b3b3b3;}</style></defs><title>df</title><g id="testimonial-style-3"><rect class="cls-1" x="0.5" y="0.5" width="79" height="79"/><path class="cls-2" d="M79,1V79H1V1H79m1-1H0V80H80V0Z"/><g class="cls-3"><polygon class="cls-4" points="72 9 8 9 8 36 37.93 36 40 38.07 42.07 36 72 36 72 9"/></g><rect y="64" width="80" height="16"/><path class="cls-5" d="M25,70V71H24V70Zm0,1V72H24V71Zm0,4V76H24V75Zm1-6V70H25V69Zm0,3V73H25V72Zm0,3V76H25V75Zm1-6V70H26V69Zm0,3V73H26V72Zm0,3V76H26V75Zm1-6V70H27V69Zm0,3V73H27V72Zm0,3V76H27V75Zm1-6V70H28V69Zm0,4V74H28V73Zm0,1V75H28V74Z"/><path class="cls-5" d="M31,69V70H30V69Zm0,1V71H30V70Zm0,1V72H30V71Zm0,1V73H30V72Zm0,1V74H30V73Zm0,1V75H30V74Zm1-3V72H31V71Zm0,4V76H31V75Zm1-4V72H32V71Zm0,4V76H32V75Zm1-4V72H33V71Zm0,4V76H33V75Z"/><path class="cls-5" d="M35,77V78H34V77Zm1-6V72H35V71Zm0,1V73H35V72Zm0,1V74H35V73Zm0,4V78H35V77Zm1-3V75H36V74Zm0,2V77H36V76Zm1-1V76H37V75Zm1-1V75H38V74Zm1-3V72H39V71Zm0,1V73H39V72Zm0,1V74H39V73Z"/><path class="cls-5" d="M42,68V69H41V68Zm0,1V70H41V69Zm0,1V71H41V70Zm0,1V72H41V71Zm0,1V73H41V72Zm0,1V74H41V73Zm0,1V75H41V74Zm1,1V76H42V75Zm1,0V76H43V75Z"/><path class="cls-5" d="M45,72V73H44V72Zm0,1V74H44V73Zm0,1V75H44V74Zm1-3V72H45V71Zm0,2V74H45V73Zm0,2V76H45V75Zm1-4V72H46V71Zm0,2V74H46V73Zm0,2V76H46V75Zm1-4V72H47V71Zm0,2V74H47V73Zm0,2V76H47V75Zm1-3V73H48V72Zm0,1V74H48V73Zm0,2V76H48V75Z"/><path class="cls-5" d="M53,69V70H52V69Zm0,6V76H52V75Zm1-6V70H53V69Zm0,3V73H53V72Zm0,3V76H53V75Zm1-6V70H54V69Zm0,2V72H54V71Zm0,1V73H54V72Zm0,3V76H54V75Zm1-6V70H55V69Zm0,1V71H55V70Zm0,2V73H55V72Zm0,3V76H55V75Zm1-6V70H56V69Zm0,4V74H56V73Zm0,1V75H56V74Z"/><rect class="cls-6" x="32" y="53" width="16" height="4"/><rect class="cls-1" x="14" y="19" width="52" height="1"/><rect class="cls-1" x="14" y="15" width="52" height="1"/><rect class="cls-1" x="14" y="22" width="52" height="1"/><rect class="cls-1" x="14" y="25" width="52" height="1"/><rect class="cls-1" x="23" y="28" width="34" height="1"/><rect class="cls-7" x="36" y="59" width="8" height="1"/><path class="cls-1" d="M9.54,10.77v.5H9v-.5Zm0,.54v.5H9v-.5Zm0,2.17V14H9v-.5Zm.54-3.25v.5h-.5v-.5Zm0,1.63v.5h-.5v-.5Zm0,1.63V14h-.5v-.5Zm.54-3.25v.5h-.5v-.5Zm0,1.63v.5h-.5v-.5Zm0,1.63V14h-.5v-.5Zm.54-3.25v.5h-.5v-.5Zm0,1.63v.5h-.5v-.5Zm0,1.08v.5h-.5v-.5Zm.54-2.17v.5h-.5v-.5Zm0,.54v.5h-.5v-.5Zm0,.54v.5h-.5v-.5Zm0,.54v.5h-.5v-.5Z"/><path class="cls-1" d="M12.79,10.77v.5h-.5v-.5Zm0,.54v.5h-.5v-.5Zm0,2.17V14h-.5v-.5Zm.54-3.25v.5h-.5v-.5Zm0,1.63v.5h-.5v-.5Zm0,1.63V14h-.5v-.5Zm.54-3.25v.5h-.5v-.5Zm0,1.63v.5h-.5v-.5Zm0,1.63V14h-.5v-.5Zm.54-3.25v.5h-.5v-.5Zm0,1.63v.5h-.5v-.5Zm0,1.08v.5h-.5v-.5ZM15,10.77v.5h-.5v-.5Zm0,.54v.5h-.5v-.5Zm0,.54v.5h-.5v-.5Zm0,.54v.5h-.5v-.5Z"/><rect x="35" y="40" width="10" height="10" rx="5" ry="5"/></g></svg>