<svg xmlns="http://www.w3.org/2000/svg" width="32" height="32" viewBox="0 0 32 32"><defs><style>.cls-1{fill:#ececec;}</style></defs><title>df</title><g id="Layer_56" data-name="Layer 56"><circle class="cls-1" cx="16" cy="16" r="14.5"/><path d="M16.5,16.5H9a.5.5,0,0,1,0-1h7.5a.5.5,0,0,1,0,1Z"/><path d="M16.5,21.5H12a.5.5,0,0,1,0-1h4.5a.5.5,0,0,1,0,1Z"/><path d="M16.5,11.5H12a.5.5,0,0,1,0-1h4.5a.5.5,0,0,1,0,1Z"/><path d="M21.5,18a2,2,0,1,1,2-2A2,2,0,0,1,21.5,18Zm0-3a1,1,0,1,0,1,1A1,1,0,0,0,21.5,15Z"/><path d="M21.5,23a2,2,0,1,1,2-2A2,2,0,0,1,21.5,23Zm0-3a1,1,0,1,0,1,1A1,1,0,0,0,21.5,20Z"/><path d="M21.5,13a2,2,0,1,1,2-2A2,2,0,0,1,21.5,13Zm0-3a1,1,0,1,0,1,1A1,1,0,0,0,21.5,10Z"/></g></svg>