<svg xmlns="http://www.w3.org/2000/svg" width="32" height="32" viewBox="0 0 32 32"><defs><style>.cls-1{fill:#ececec;}</style></defs><title>df</title><g id="Layer_46" data-name="Layer 46"><circle class="cls-1" cx="16" cy="16" r="14.5"/><circle cx="13" cy="26" r="1"/><circle cx="16" cy="26" r="1"/><circle cx="19" cy="26" r="1"/><path d="M23,23H9a1,1,0,0,1-1-1V11a1,1,0,0,1,1-1H23a1,1,0,0,1,1,1V22A1,1,0,0,1,23,23ZM10,21H22V12H10Z"/><path d="M5,10H1v2H4v9H1v2H5a1,1,0,0,0,1-1V11A1,1,0,0,0,5,10Z"/><path d="M31,21H28V12h3V10H27a1,1,0,0,0-1,1V22a1,1,0,0,0,1,1h4Z"/></g></svg>