<svg xmlns="http://www.w3.org/2000/svg" width="32" height="32" viewBox="0 0 32 32"><defs><style>.cls-1{fill:#ececec;}</style></defs><title>df</title><g id="Layer_50" data-name="Layer 50"><circle class="cls-1" cx="16" cy="16" r="14.5"/><path d="M9,29H7.65A3.46,3.46,0,0,0,8,27.5,3.5,3.5,0,1,0,4.5,31c.11,0,.22,0,.33,0A1,1,0,0,0,5,31H9a1,1,0,0,0,0-2ZM3,27.5A1.5,1.5,0,1,1,4.5,29,1.5,1.5,0,0,1,3,27.5Z"/><path d="M26,29H23.65A3.46,3.46,0,0,0,24,27.5,3.5,3.5,0,1,0,20.5,31c.11,0,.22,0,.33,0A1,1,0,0,0,21,31h5a1,1,0,0,0,0-2Zm-7-1.5A1.5,1.5,0,1,1,20.5,29,1.5,1.5,0,0,1,19,27.5Z"/><path d="M2,10.24A1,1,0,0,0,3,11H6V9H3.78l-.5-2h23L23.87,18,5.79,17,5,13.76A1,1,0,1,0,3,14.24l1,4a1,1,0,0,0,.92.76l18.48,1-.23,1H5a1,1,0,0,0,0,2H24a1,1,0,0,0,1-.78L28.91,4.5l1.79-1.79a1,1,0,0,0-1.41-1.41l-2,2a1,1,0,0,0-.27.49L26.75,5H2A1,1,0,0,0,1,6.24Z"/><path d="M29.8,9a.63.63,0,0,0-.18.06.76.76,0,0,0-.18.09l-.15.12A1,1,0,0,0,29,10a.83.83,0,0,0,.08.38,1.15,1.15,0,0,0,.21.33,1.53,1.53,0,0,0,.15.12.76.76,0,0,0,.18.09l.18.06.2,0a1.05,1.05,0,0,0,.71-.29,1.15,1.15,0,0,0,.21-.33A.84.84,0,0,0,31,10a1.05,1.05,0,0,0-.29-.71A1,1,0,0,0,29.8,9Z"/><path d="M1.62,22.92A1,1,0,0,0,2,23l.2,0,.18-.06a.76.76,0,0,0,.18-.09l.15-.12A1.05,1.05,0,0,0,3,22a1.14,1.14,0,0,0,0-.19.59.59,0,0,0-.06-.19.57.57,0,0,0-.09-.17l-.12-.16a1,1,0,0,0-1.42,0A1,1,0,0,0,1,22a1,1,0,0,0,.29.71A1,1,0,0,0,1.62,22.92Z"/><path d="M28.8,29a.63.63,0,0,0-.18.06.76.76,0,0,0-.18.09l-.15.12a1.15,1.15,0,0,0-.21.33A.83.83,0,0,0,28,30a1,1,0,0,0,.29.71A1,1,0,0,0,29,31a1,1,0,0,0,.38-.08,1.17,1.17,0,0,0,.33-.21,1,1,0,0,0,0-1.42A1,1,0,0,0,28.8,29Z"/><path d="M8,9H9v2H9L8,12H9v2H6V9Zm0,1H7v1H8Zm0,2H7v1H8Z"/><path d="M13,12v2H12V12H11v2H10V9h3v2H12v1Zm-1-2H11v1h1Z"/><path d="M17,9v1h0v4H16V12H15v2H14V10h0V9Zm-1,1H15v1h1Z"/><path d="M20,11V9h1v5H20V12l-1-1v3H18V9h1v1m.58.6"/><path d="M24,9v1h1v3H24v1H22V9Zm0,1H23v3h1Z"/></g></svg>