<svg xmlns="http://www.w3.org/2000/svg" width="32" height="32" viewBox="0 0 32 32"><defs><style>.cls-1{fill:#ececec;}</style></defs><title>df</title><g id="Layer_66" data-name="Layer 66"><circle class="cls-1" cx="16" cy="16" r="14.5"/><path d="M21.39,8.23,20.22,9.48a7.78,7.78,0,0,1-4.68,14.29l.31-.32h0L17,22.23l-1.07-1-2.31,2.42h0l-1,1,1.07,1h0L16.11,28l1-1-1.57-1.49A9.47,9.47,0,0,0,21.39,8.23Z"/><path d="M8.34,14.79a7.78,7.78,0,0,1,8.12-6.56l-.31.32h0L15,9.77l1.07,1,2.31-2.42h0l1-1-1.07-1h0L15.89,4l-1,1,1.57,1.49a9.47,9.47,0,0,0-5.85,17.23l1.16-1.26A7.8,7.8,0,0,1,8.34,14.79Z"/></g></svg>