<svg xmlns="http://www.w3.org/2000/svg" width="32" height="32" viewBox="0 0 32 32"><defs><style>.cls-1{fill:#ececec;}</style></defs><title>df</title><g id="Layer_48" data-name="Layer 48"><circle class="cls-1" cx="16" cy="16" r="14.5"/><path d="M6,19V13H7V12h5v3H10V13H8v5h4v2H7"/><path d="M19,12v2H15v1h3v1H15v4H13V12Z"/><path d="M21,20H20V18h1V17h1V16h1V15h1V14H20V12h6v2h0v1l-1,1-1,1-1,1h0l-1,1h0Z"/><path d="M30,31H2a1,1,0,0,1-1-1V2A1,1,0,0,1,2,1H30a1,1,0,0,1,1,1V30A1,1,0,0,1,30,31ZM3,29H29V3H3Z"/></g></svg>