<svg xmlns="http://www.w3.org/2000/svg" width="32" height="32" viewBox="0 0 32 32"><defs><style>.cls-1{fill:#ececec;}</style></defs><title>df</title><g id="Layer_28" data-name="Layer 28"><circle class="cls-1" cx="16" cy="16" r="14.5"/><path d="M23.5,14H8.5a.5.5,0,0,1,0-1h15a.5.5,0,0,1,0,1Z"/><path d="M23.5,17H8.5a.5.5,0,0,1,0-1h15a.5.5,0,0,1,0,1Z"/><path d="M23.5,20H8.5a.5.5,0,0,1,0-1h15a.5.5,0,0,1,0,1Z"/><path d="M17.5,23h-9a.5.5,0,0,1,0-1h9a.5.5,0,0,1,0,1Z"/><circle cx="13" cy="26" r="1"/><circle cx="16" cy="26" r="1"/><circle cx="19" cy="26" r="1"/><path d="M13,9,12,8V6l1-1h1l1,1v4l-1,1H12V10h2V9Zm1-3H13V8h1Z"/><path d="M18,9,17,8V6l1-1h1l1,1v4l-1,1H17V10h2V9Zm1-3H18V8h1Z"/></g></svg>