<svg xmlns="http://www.w3.org/2000/svg" width="32" height="32" viewBox="0 0 32 32"><defs><style>.cls-1{fill:#ececec;}</style></defs><title>df</title><g id="Layer_26" data-name="Layer 26"><circle class="cls-1" cx="16" cy="16" r="14.5"/><path d="M16,17a1,1,0,0,1-.41-.09l-11-5a1,1,0,0,1,0-1.82l11-5a1,1,0,0,1,.83,0l11,5a1,1,0,0,1,0,1.82l-11,5A1,1,0,0,1,16,17ZM7.42,11,16,14.9,24.58,11,16,7.1Z"/><path d="M16,22a1,1,0,0,1-.41-.09l-11-5a1,1,0,1,1,.83-1.82L16,19.9l10.59-4.81a1,1,0,1,1,.83,1.82l-11,5A1,1,0,0,1,16,22Z"/><path d="M16,27a1,1,0,0,1-.41-.09l-11-5a1,1,0,1,1,.83-1.82L16,24.9l10.59-4.81a1,1,0,1,1,.83,1.82l-11,5A1,1,0,0,1,16,27Z"/></g></svg>