<svg xmlns="http://www.w3.org/2000/svg" width="32" height="32" viewBox="0 0 32 32"><defs><style>.cls-1{fill:#ececec;}</style></defs><title>df</title><g id="Layer_20" data-name="Layer 20"><circle class="cls-1" cx="16" cy="16" r="14.5"/><path d="M30,8H26V5a1,1,0,0,0-1-1H2A1,1,0,0,0,1,5V23a1,1,0,0,0,1,1H5v3a1,1,0,0,0,1,1H30a1,1,0,0,0,1-1V9A1,1,0,0,0,30,8ZM3,6H24V22H3ZM29,26H7V24H25a1,1,0,0,0,1-1V10h3Z"/><path d="M18.83,12.45A1,1,0,0,0,17.9,12a1,1,0,0,0-.83.62l-1.32,3.3-3.94-5.51A1,1,0,0,0,11,10a1,1,0,0,0-.82.47l-5,8A1,1,0,0,0,6,20H22a1,1,0,0,0,.83-1.55ZM7.8,18l3.25-5.2L14.77,18Zm9.27,0,1.15-2.86L20.13,18Z"/><path d="M20.5,12A2.5,2.5,0,1,0,18,9.5,2.5,2.5,0,0,0,20.5,12Zm0-3a.5.5,0,1,1-.5.5A.5.5,0,0,1,20.5,9Z"/></g></svg>