<svg xmlns="http://www.w3.org/2000/svg" width="32" height="32" viewBox="0 0 32 32"><defs><style>.cls-1{fill:#ececec;}</style></defs><title>df</title><g id="Layer_2" data-name="Layer 2"><circle class="cls-1" cx="16" cy="16" r="14.5"/><path d="M8,3V8H3V3H8M9,1H2A1,1,0,0,0,1,2V9a1,1,0,0,0,1,1H9a1,1,0,0,0,1-1V2A1,1,0,0,0,9,1Z"/><path d="M29,3V8H24V3h5m1-2H23a1,1,0,0,0-1,1V9a1,1,0,0,0,1,1h7a1,1,0,0,0,1-1V2a1,1,0,0,0-1-1Z"/><path d="M8,24v5H3V24H8m1-2H2a1,1,0,0,0-1,1v7a1,1,0,0,0,1,1H9a1,1,0,0,0,1-1V23a1,1,0,0,0-1-1Z"/><path d="M29,24v5H24V24h5m1-2H23a1,1,0,0,0-1,1v7a1,1,0,0,0,1,1h7a1,1,0,0,0,1-1V23a1,1,0,0,0-1-1Z"/><rect x="10" y="4" width="12" height="2"/><rect x="10" y="26" width="12" height="2"/><rect x="26" y="10" width="2" height="12"/><rect x="4" y="10" width="2" height="12"/></g></svg>