<svg xmlns="http://www.w3.org/2000/svg" width="32" height="32" viewBox="0 0 32 32"><defs><style>.cls-1{fill:#ececec;}</style></defs><title>df</title><g id="Layer_19" data-name="Layer 19"><circle class="cls-1" cx="16" cy="16" r="14.5"/><path d="M10.86,12.46l9.35,12.15a1,1,0,1,0,1.58-1.22l-2.51-3.26L24,15.41l5,5V17.59l-4.29-4.29a1,1,0,0,0-1.41,0l-5.24,5.24-6.26-8.14a1,1,0,0,0-.7-.39,1,1,0,0,0-.76.25L3,16.77v2.68Z"/><path d="M30,29H2a1,1,0,0,1-1-1V4A1,1,0,0,1,2,3H30a1,1,0,0,1,1,1V28A1,1,0,0,1,30,29ZM3,27H29V5H3Z"/></g></svg>