<svg xmlns="http://www.w3.org/2000/svg" width="32" height="32" viewBox="0 0 32 32"><defs><style>.cls-1{fill:#ececec;}</style></defs><title>df</title><g id="Layer_51" data-name="Layer 51"><circle class="cls-1" cx="16" cy="16" r="14.5"/><path d="M9,29H7.65A3.46,3.46,0,0,0,8,27.5,3.5,3.5,0,1,0,4.5,31c.11,0,.22,0,.33,0A1,1,0,0,0,5,31H9a1,1,0,0,0,0-2ZM3,27.5A1.5,1.5,0,1,1,4.5,29,1.5,1.5,0,0,1,3,27.5Z"/><path d="M26,29H23.65A3.46,3.46,0,0,0,24,27.5,3.5,3.5,0,1,0,20.5,31c.11,0,.22,0,.33,0A1,1,0,0,0,21,31h5a1,1,0,0,0,0-2Zm-7-1.5A1.5,1.5,0,1,1,20.5,29,1.5,1.5,0,0,1,19,27.5Z"/><path d="M2,10.24A1,1,0,0,0,3,11H6A1,1,0,0,0,6,9H3.78l-.5-2h23L23.87,18,5.79,17,5,13.76A1,1,0,1,0,3,14.24l1,4a1,1,0,0,0,.92.76l18.48,1-.23,1H5a1,1,0,0,0,0,2H24a1,1,0,0,0,1-.78L28.91,4.5l1.79-1.79a1,1,0,0,0-1.41-1.41l-2,2a1,1,0,0,0-.27.49L26.75,5H2A1,1,0,0,0,1,6.24Z"/><path d="M30.71,9.29A1,1,0,0,0,29,10a1.38,1.38,0,0,0,0,.2.65.65,0,0,0,.06.18.74.74,0,0,0,.09.18,1.68,1.68,0,0,0,.12.15,1,1,0,0,0,1.42,0A1,1,0,0,0,31,10a1,1,0,0,0-.08-.38A.93.93,0,0,0,30.71,9.29Z"/><path d="M1.62,22.92A1,1,0,0,0,2,23l.19,0a.62.62,0,0,0,.19-.06.56.56,0,0,0,.17-.09l.16-.12a1,1,0,0,0,0-1.42l-.16-.12a.56.56,0,0,0-.17-.09A.61.61,0,0,0,2.19,21a.93.93,0,0,0-.57.06,1,1,0,0,0-.33.21,1,1,0,0,0,0,1.42A1,1,0,0,0,1.62,22.92Z"/><path d="M28.29,29.29A1,1,0,0,0,28,30a1.38,1.38,0,0,0,0,.2.65.65,0,0,0,.06.18.74.74,0,0,0,.09.18,1.68,1.68,0,0,0,.12.15,1,1,0,0,0,1.42,0l.12-.15a.78.78,0,0,0,.09-.18A.62.62,0,0,0,30,30.2a1.26,1.26,0,0,0,0-.2,1,1,0,0,0-1.71-.71Z"/><path d="M9,14h2v1H8V9H9Z"/><path d="M15,9v6H12V14h0V9Zm-1,1H13v4h1Z"/><path d="M23,9v6H20V14h0V9Zm-1,1H21v4h1Z"/><path d="M16,15V14h0V9h3v1H17v4h1V12h1v3Z"/></g></svg>