<svg xmlns="http://www.w3.org/2000/svg" width="32" height="32" viewBox="0 0 32 32"><defs><style>.cls-1{fill:#ececec;}</style></defs><title>df</title><g id="Layer_14" data-name="Layer 14"><circle class="cls-1" cx="16.5" cy="16.5" r="14.5"/><path d="M9,29H7.65A3.46,3.46,0,0,0,8,27.5,3.5,3.5,0,1,0,4.5,31c.11,0,.22,0,.33,0A.94.94,0,0,0,5,31H9a1,1,0,0,0,0-2ZM3,27.5A1.5,1.5,0,1,1,4.5,29,1.5,1.5,0,0,1,3,27.5Z"/><path d="M26,29H23.65A3.46,3.46,0,0,0,24,27.5,3.5,3.5,0,1,0,20.5,31c.11,0,.22,0,.33,0A.94.94,0,0,0,21,31h5a1,1,0,0,0,0-2Zm-7-1.5A1.5,1.5,0,1,1,20.5,29,1.5,1.5,0,0,1,19,27.5Z"/><path d="M2,10.24A1,1,0,0,0,3,11H6A1,1,0,0,0,6,9H3.78l-.5-2h23L23.87,18,5.79,17,5,13.76A1,1,0,0,0,3,14.24l1,4a1,1,0,0,0,.92.76l18.48,1-.23,1H5a1,1,0,0,0,0,2H24a1,1,0,0,0,1-.78L28.91,4.5l1.79-1.79a1,1,0,0,0-1.41-1.41l-2,2a1,1,0,0,0-.27.49L26.75,5H2A1,1,0,0,0,1,6.24Z"/><path d="M30.71,9.29a1,1,0,0,0-1.42,0A1.05,1.05,0,0,0,29,10a1.45,1.45,0,0,0,0,.2.63.63,0,0,0,.06.18.76.76,0,0,0,.09.18l.12.15A1.05,1.05,0,0,0,30,11l.2,0,.18-.06a.76.76,0,0,0,.18-.09l.15-.12.12-.15a.76.76,0,0,0,.09-.18A.65.65,0,0,0,31,10.2a1.54,1.54,0,0,0,0-.2,1,1,0,0,0-.08-.38A1.16,1.16,0,0,0,30.71,9.29Z"/><path d="M2,23a1,1,0,0,0,.38-.08,1.15,1.15,0,0,0,.33-.21,1,1,0,0,0,.21-1.09,1.16,1.16,0,0,0-.21-.33,1,1,0,0,0-.9-.27.62.62,0,0,0-.19.06.74.74,0,0,0-.18.09,1.55,1.55,0,0,0-.15.12,1.15,1.15,0,0,0-.21.33A1,1,0,0,0,2,23Z"/><path d="M29.71,29.29a1,1,0,0,0-1.42,0,1.15,1.15,0,0,0-.21.33A1,1,0,0,0,29,31a.84.84,0,0,0,.38-.08,1.15,1.15,0,0,0,.33-.21A1,1,0,0,0,30,30a.84.84,0,0,0-.08-.38A1,1,0,0,0,29.71,29.29Z"/><path d="M12,9v1H9v1h3v4H8V14h3V12H8V9h4Z"/><path d="M15,9v2h1V10h1V9h1v1H17v1H16v1h1v1h1v2H17V13H16V12H15v3H14V9Z"/><path d="M24,15H20V9l1,0v5h2V9l1,0Z"/></g></svg>