<svg xmlns="http://www.w3.org/2000/svg" width="32" height="32" viewBox="0 0 32 32"><defs><style>.cls-1{fill:#ececec;}</style></defs><title>df</title><g id="Layer_53" data-name="Layer 53"><circle class="cls-1" cx="16" cy="16" r="14.5"/><path d="M30,8H26V5a1,1,0,0,0-1-1H2A1,1,0,0,0,1,5V23a1,1,0,0,0,1,1H5v3a1,1,0,0,0,1,1H30a1,1,0,0,0,1-1V9A1,1,0,0,0,30,8ZM3,22V6H24V22Zm26,4H7V24H25a1,1,0,0,0,1-1V10h3Z"/><circle cx="11" cy="14" r="1"/><circle cx="14" cy="14" r="1"/><circle cx="17" cy="14" r="1"/></g></svg>