<svg xmlns="http://www.w3.org/2000/svg" width="32" height="32" viewBox="0 0 32 32"><defs><style>.cls-1{fill:#ececec;}</style></defs><title>df</title><g id="Layer_60" data-name="Layer 60"><circle class="cls-1" cx="16" cy="16" r="14.5"/><path d="M30,31H2a1,1,0,0,1-1-1V2A1,1,0,0,1,2,1H30a1,1,0,0,1,1,1V30A1,1,0,0,1,30,31ZM3,29H29V3H3Z"/><path d="M15,15h7.5a.5.5,0,0,0,0-1H15a.5.5,0,0,0,0,1Z"/><path d="M22.5,16H15a.5.5,0,0,0,0,1h7.5a.5.5,0,0,0,0-1Z"/><path d="M19.5,18H15a.5.5,0,0,0,0,1h4.5a.5.5,0,0,0,0-1Z"/><path d="M9.5,20a4,4,0,1,1,4-4A4,4,0,0,1,9.5,20Zm0-6a2,2,0,1,0,2,2A2,2,0,0,0,9.5,14Z"/></g></svg>