<svg xmlns="http://www.w3.org/2000/svg" width="32" height="32" viewBox="0 0 32 32"><defs><style>.cls-1{fill:#ececec;}</style></defs><title>df</title><g id="Layer_62" data-name="Layer 62"><circle class="cls-1" cx="16" cy="16" r="14.5"/><path d="M30,26H2a1,1,0,0,1-1-1V7A1,1,0,0,1,2,6H30a1,1,0,0,1,1,1V25A1,1,0,0,1,30,26ZM3,24H29V8H3Z"/><path d="M9,14H7v6H6V14H4V13H9Z"/><path d="M27,14H25v6H24V14H22V13h5Z"/><path d="M15,13v1H11v1h3v1H11v3h4v1H10V13Z"/><path d="M18,14v1h1V14h1V13h1v2H20v1H19v1h1v1h1v2H20V19H19V17H18v2H17v1H16V18h1V17h1V16H17V15H16V13h1v1Z"/></g></svg>