<svg xmlns="http://www.w3.org/2000/svg" width="32" height="32" viewBox="0 0 32 32"><defs><style>.cls-1{fill:#ececec;}</style></defs><title>df</title><g id="Layer_47" data-name="Layer 47"><circle class="cls-1" cx="16" cy="16" r="14.5"/><path d="M30,31H2a1,1,0,0,1-1-1V2A1,1,0,0,1,2,1H30a1,1,0,0,1,1,1V30A1,1,0,0,1,30,31ZM3,29H29V3H3Z"/><path d="M10,14H8v6H7V14H5V13h5Z"/><path d="M27,14H25v6H24V14H22V13h5Z"/><path d="M15,13v1H12v1h3v1H12v3h3v1H11V13Z"/><path d="M18,14v1h1V14h1V13h1v2H20v1H19v1h1v1h1v2H20V19H19V17H18v2H17v1H16V18h1V17h1V16H17V15H16V13h1v1Z"/></g><g id="Layer_50" data-name="Layer 50"><rect x="3" y="16" width="3" height="2"/><rect x="26" y="16" width="3" height="2"/></g></svg>