<svg xmlns="http://www.w3.org/2000/svg" width="32" height="32" viewBox="0 0 32 32"><defs><style>.cls-1{fill:#ececec;}</style></defs><title>df</title><g id="Layer_32" data-name="Layer 32"><circle class="cls-1" cx="16" cy="16" r="14.5"/><path d="M18.47,27.25a1,1,0,0,1-.71-.29L5,14.23a1,1,0,0,1-.29-.75L5.1,6.05a1,1,0,0,1,1-1l7.42-.35a1,1,0,0,1,.75.29L27,17.77a1,1,0,0,1,0,1.41L19.18,27A1,1,0,0,1,18.47,27.25ZM6.77,13.13,18.47,24.84l6.36-6.36L13.13,6.77l-6.07.29Z"/><path d="M12.34,12.34a2.41,2.41,0,1,1,0-3.41A2.42,2.42,0,0,1,12.34,12.34ZM9.78,9.78a1.21,1.21,0,1,0,1.71,0A1.21,1.21,0,0,0,9.78,9.78Z"/></g></svg>