<svg xmlns="http://www.w3.org/2000/svg" width="32" height="32" viewBox="0 0 32 32"><defs><style>.cls-1{fill:#ececec;}</style></defs><title>df</title><g id="Layer_43" data-name="Layer 43"><circle class="cls-1" cx="16" cy="16" r="14.5"/><path d="M25.75,23H6.25a.5.5,0,0,1,0-1h19.5a.5.5,0,0,1,0,1Z"/><path d="M25.75,20H6.25a.5.5,0,0,1,0-1h19.5a.5.5,0,0,1,0,1Z"/><path d="M25.75,17H6.25a.5.5,0,0,1,0-1h19.5a.5.5,0,0,1,0,1Z"/><path d="M25.75,14H13.5a.5.5,0,0,1,0-1H25.75a.5.5,0,0,1,0,1Z"/><path d="M25.75,11H13.5a.5.5,0,0,1,0-1H25.75a.5.5,0,0,1,0,1Z"/><path d="M25.75,8H13.5a.5.5,0,0,1,0-1H25.75a.5.5,0,0,1,0,1Z"/><path d="M15.5,26H6.25a.5.5,0,0,1,0-1H15.5a.5.5,0,0,1,0,1Z"/><path d="M11,9H9v5H8V9H6V8h5Z"/><path d="M30,31H2a1,1,0,0,1-1-1V2A1,1,0,0,1,2,1H30a1,1,0,0,1,1,1V30A1,1,0,0,1,30,31ZM3,29H29V3H3Z"/></g></svg>