<svg xmlns="http://www.w3.org/2000/svg" width="32" height="32" viewBox="0 0 32 32"><defs><style>.cls-1{fill:#ececec;}</style></defs><title>df</title><g id="Layer_13" data-name="Layer 13"><circle class="cls-1" cx="16" cy="16" r="14.5"/><path d="M7,6a1,1,0,0,1-.23-2L14.56,2.2A1,1,0,1,1,15,4.15L7.23,6Z"/><path d="M18.43,18a3,3,0,0,0-3.92-2.38L12.81,12.8a.5.5,0,1,0-.86.52l1.69,2.8a3,3,0,0,0-.59.59,3,3,0,0,0,4.84,3.54h0A3,3,0,0,0,18.43,18Zm-2.16,1a1,1,0,1,1-.22-1.4,1,1,0,0,1,.22,1.4Z"/><path d="M7,18.46A.51.51,0,0,0,6.49,18L5,18q0,.5,0,1l1.52,0A.5.5,0,0,0,7,18.46Z"/><path d="M15,8l0,1.52a.5.5,0,0,0,.5.49h0A.5.5,0,0,0,16,9.49L16,8l-.52,0Z"/><path d="M25.95,18l-1.46,0a.5.5,0,0,0,0,1h0L26,19C26,18.65,26,18.31,25.95,18Z"/><path d="M15.46,27a.5.5,0,0,0-.49.51L15,29q.5,0,1,0l0-1.46A.49.49,0,0,0,15.46,27Z"/><path d="M28.62,6.42,22.17,1.69A1,1,0,1,0,21,3.31l2.42,1.77-1.83,2.5a12.48,12.48,0,0,0-16.2,3.51A12.51,12.51,0,1,0,23.23,8.7L25,6.26,27.44,8a1,1,0,0,0,1.18-1.61ZM25.84,16.86a10.5,10.5,0,1,1-12-8.77A10.62,10.62,0,0,1,15.49,8a10.51,10.51,0,0,1,10.35,8.9Z"/></g></svg>