<svg xmlns="http://www.w3.org/2000/svg" width="32" height="32" viewBox="0 0 32 32"><defs><style>.cls-1{fill:#ececec;}</style></defs><title>df</title><g id="Layer_57" data-name="Layer 57"><circle class="cls-1" cx="16" cy="16" r="14.5"/><path d="M23,14H9a1,1,0,0,1-1-1V2A1,1,0,0,1,9,1H23a1,1,0,0,1,1,1V13A1,1,0,0,1,23,14ZM10,12H22V3H10Z"/><path d="M5,1H1V3H4v9H1v2H5a1,1,0,0,0,1-1V2A1,1,0,0,0,5,1Z"/><path d="M31,12H28V3h3V1H27a1,1,0,0,0-1,1V13a1,1,0,0,0,1,1h4Z"/><path d="M16,16H8.5a.5.5,0,0,1,0-1H16a.5.5,0,0,1,0,1Z"/><path d="M13,18H8.5a.5.5,0,0,1,0-1H13a.5.5,0,0,1,0,1Z"/><path d="M31,15H26.5a.5.5,0,0,0,0,1H31Z"/><path d="M31,17H26.5a.5.5,0,0,0,0,1H31Z"/><path d="M10,31V22H22v9h2V21a1,1,0,0,0-1-1H9a1,1,0,0,0-1,1V31Z"/><path d="M28,31V22h3V20H27a1,1,0,0,0-1,1V31Z"/><path d="M4,31H6V21a1,1,0,0,0-1-1H1v2H4Z"/></g></svg>