<svg id="Layer_1" data-name="Layer 1" xmlns="http://www.w3.org/2000/svg" width="32" height="32" viewBox="0 0 32 32"><defs><style>.cls-1{fill:#ececec;}</style></defs><title>df</title><circle class="cls-1" cx="16" cy="16" r="14.5"/><path d="M9,29H7.65A3.46,3.46,0,0,0,8,27.5,3.5,3.5,0,1,0,4.5,31c.11,0,.22,0,.33,0A.94.94,0,0,0,5,31H9a1,1,0,0,0,0-2ZM4.5,29A1.5,1.5,0,1,1,6,27.5,1.5,1.5,0,0,1,4.5,29Z"/><path d="M2,10.24A1,1,0,0,0,3,11H25.42L25,13H20a1,1,0,0,0,0,2h4.53l-.66,3L5.79,17,5,13.76A1,1,0,0,0,3,14.24l1,4a1,1,0,0,0,.92.76l18.48,1-.23,1H5a1,1,0,0,0,0,2H24a1,1,0,0,0,1-.78L28.91,4.5l1.79-1.79a1,1,0,0,0-1.41-1.41l-2,2a1,1,0,0,0-.27.49L26.75,5H2A1,1,0,0,0,1,6.24ZM26.31,7l-.44,2H3.78l-.5-2Z"/><path d="M17,15a1,1,0,0,0,.71-.29,1.16,1.16,0,0,0,.21-.33A.84.84,0,0,0,18,14a1,1,0,1,0-2,0,1,1,0,0,0,.08.38,1.16,1.16,0,0,0,.21.33A1,1,0,0,0,17,15Z"/><path d="M30.71,9.29a1,1,0,0,0-1.42,0,1,1,0,0,0-.21.33.95.95,0,0,0,0,.76,1.16,1.16,0,0,0,.21.33,1,1,0,0,0,1.42,0,1.16,1.16,0,0,0,.21-.33.94.94,0,0,0,0-.76A1,1,0,0,0,30.71,9.29Z"/><path d="M1.62,22.92A1,1,0,0,0,2,23a1,1,0,0,0,.38-.08,1.16,1.16,0,0,0,.33-.21,1,1,0,0,0,0-1.42,1.16,1.16,0,0,0-.33-.21.92.92,0,0,0-.76,0,1.15,1.15,0,0,0-.33.21,1,1,0,0,0,0,1.42A1.16,1.16,0,0,0,1.62,22.92Z"/><path d="M26,29H23.65A3.46,3.46,0,0,0,24,27.5,3.5,3.5,0,1,0,20.5,31c.11,0,.22,0,.33,0A.94.94,0,0,0,21,31h5a1,1,0,0,0,0-2Zm-5.5,0A1.5,1.5,0,1,1,22,27.5,1.5,1.5,0,0,1,20.5,29Z"/><path d="M29.71,29.29a1.16,1.16,0,0,0-.33-.21A1,1,0,0,0,28.8,29a.63.63,0,0,0-.18.06.56.56,0,0,0-.17.09l-.16.12a1.15,1.15,0,0,0-.21.33A1,1,0,0,0,28,30a1,1,0,0,0,1,1,1,1,0,0,0,.38-.08,1,1,0,0,0,.33-.21,1,1,0,0,0,.12-.16.55.55,0,0,0,.09-.17A.65.65,0,0,0,30,30.2a1.38,1.38,0,0,0,0-.2,1,1,0,0,0-.08-.38A1.16,1.16,0,0,0,29.71,29.29Z"/></svg>