<svg xmlns="http://www.w3.org/2000/svg" width="32" height="32" viewBox="0 0 32 32"><defs><style>.cls-1{fill:#ececec;}</style></defs><title>df</title><g id="Layer_58" data-name="Layer 58"><circle class="cls-1" cx="16" cy="16" r="14.5"/><rect x="6" y="13" width="2" height="1"/><rect x="6" y="15" width="2" height="1"/><path d="M30,4H7A1,1,0,0,0,6,5v5H8V6H29V24H8V17H6v8a1,1,0,0,0,1,1H30a1,1,0,0,0,1-1V5A1,1,0,0,0,30,4Z"/><rect x="6" y="11" width="2" height="1"/><circle cx="13" cy="29" r="1"/><circle cx="16" cy="29" r="1"/><circle cx="19" cy="29" r="1"/><path d="M9,16H1.5a.5.5,0,0,0,0,1H9a.5.5,0,0,0,0-1Z"/><path d="M1.5,11H12a.5.5,0,0,0,0-1H1.5a.5.5,0,0,0,0,1Z"/><path d="M12,12H1.5a.5.5,0,0,0,0,1H12a.5.5,0,0,0,0-1Z"/><path d="M12,14H1.5a.5.5,0,0,0,0,1H12a.5.5,0,0,0,0-1Z"/><path d="M4.5,18h-3a.5.5,0,0,0,0,1h3a.5.5,0,0,0,0-1Z"/></g></svg>