<svg xmlns="http://www.w3.org/2000/svg" width="32" height="32" viewBox="0 0 32 32"><defs><style>.cls-1{fill:#ececec;}</style></defs><title>df</title><g id="Layer_12" data-name="Layer 12"><circle class="cls-1" cx="16" cy="16" r="14.5"/><path d="M23.5,10.88a4.94,4.94,0,1,1,4.94-4.94A5,5,0,0,1,23.5,10.88Zm0-7.68a2.74,2.74,0,1,0,2.74,2.74A2.76,2.76,0,0,0,23.5,3.2Z"/><path d="M13.13,14.54,20.47,9.8a5,5,0,0,1-1.39-1.72L12,12.68A5,5,0,0,1,13.13,14.54Z"/><path d="M8.5,21.12a4.94,4.94,0,1,1,4.94-4.94A5,5,0,0,1,8.5,21.12Zm0-7.68a2.74,2.74,0,1,0,2.74,2.74A2.76,2.76,0,0,0,8.5,13.44Z"/><path d="M20.15,22.47l-7-4.57a5,5,0,0,1-1.21,1.83l7,4.55A5,5,0,0,1,20.15,22.47Z"/><path d="M23.5,31a4.94,4.94,0,1,1,4.94-4.94A5,5,0,0,1,23.5,31Zm0-7.68a2.74,2.74,0,1,0,2.74,2.74A2.76,2.76,0,0,0,23.5,23.32Z"/></g></svg>