<svg xmlns="http://www.w3.org/2000/svg" width="32" height="32" viewBox="0 0 32 32"><defs><style>.cls-1{fill:#ececec;}</style></defs><title>df</title><g id="Layer_4" data-name="Layer 4"><circle class="cls-1" cx="16" cy="16" r="14.5"/><path d="M16,10a2.5,2.5,0,1,1,2.5-2.5A2.5,2.5,0,0,1,16,10Zm0-3a.5.5,0,1,0,.5.5A.5.5,0,0,0,16,7Z"/><path d="M30,16.92A1,1,0,0,0,29,16H20.8l-1.43,2h8.71l.83,10H3.09l.83-10h8.71L11.2,16H3a1,1,0,0,0-1,.92l-1,12A1,1,0,0,0,2,30H30a1,1,0,0,0,1-1.08Z"/><path d="M16,22a1,1,0,0,1-.81-.42l-5-6.94A8.66,8.66,0,0,1,8,9,8,8,0,0,1,24,9a8.66,8.66,0,0,1-2.23,5.64l-5,6.94A1,1,0,0,1,16,22ZM16,3a6,6,0,0,0-6,6,6.61,6.61,0,0,0,1.71,4.29l.11.13L16,19.28l4.19-5.86.11-.13A6.71,6.71,0,0,0,22,9,6,6,0,0,0,16,3Z"/></g></svg>