<svg xmlns="http://www.w3.org/2000/svg" width="32" height="32" viewBox="0 0 32 32"><defs><style>.cls-1{fill:#ececec;}</style></defs><title>df</title><g id="Layer_59" data-name="Layer 59"><circle class="cls-1" cx="16" cy="16" r="14.5"/><rect x="24" y="15" width="2" height="1"/><rect x="24" y="19" width="2" height="1"/><path d="M24,21v4H3V7H24v7h2V6a1,1,0,0,0-1-1H2A1,1,0,0,0,1,6V26a1,1,0,0,0,1,1H25a1,1,0,0,0,1-1V21Z"/><rect x="24" y="17" width="2" height="1"/><path d="M26.5,20H19a.5.5,0,0,0,0,1h7.5a.5.5,0,0,0,0-1Z"/><path d="M19,15H29.5a.5.5,0,0,0,0-1H19a.5.5,0,0,0,0,1Z"/><path d="M29.5,16H19a.5.5,0,0,0,0,1H29.5a.5.5,0,0,0,0-1Z"/><path d="M29.5,18H19a.5.5,0,0,0,0,1H29.5a.5.5,0,0,0,0-1Z"/><path d="M22,22H19a.5.5,0,0,0,0,1h3a.5.5,0,0,0,0-1Z"/></g></svg>