<svg xmlns="http://www.w3.org/2000/svg" width="32" height="32" viewBox="0 0 32 32"><defs><style>.cls-1{fill:#ececec;}</style></defs><title>df</title><g id="Layer_10" data-name="Layer 10"><circle class="cls-1" cx="16" cy="16" r="14.5"/><path d="M12,19V18h3V14H12V13h4v5l-1,1Z"/><path d="M21,13v1H18v1h2l1,1v2l-1,1H17V18h3V16H18l-1-1V14l1-1Z"/><path d="M27.92,9.62a1,1,0,0,0-.22-.32l-8-8A1,1,0,0,0,19,1H5A1,1,0,0,0,4,2V30a1,1,0,0,0,1,1H27a1,1,0,0,0,1-1V10A1,1,0,0,0,27.92,9.62ZM20,4.41,24.59,9H20ZM6,29V3H18v7a1,1,0,0,0,1,1h7V29Z"/><path d="M8,26.5a.5.5,0,0,1,.5-.5h8a.5.5,0,0,1,0,1h-8A.5.5,0,0,1,8,26.5Z"/></g></svg>