<svg xmlns="http://www.w3.org/2000/svg" width="32" height="32" viewBox="0 0 32 32"><defs><style>.cls-1{fill:#ececec;}</style></defs><title>df</title><g id="Layer_6" data-name="Layer 6"><circle class="cls-1" cx="16" cy="16" r="14.5"/><path d="M9,29H7.65A3.46,3.46,0,0,0,8,27.5,3.5,3.5,0,1,0,4.5,31c.11,0,.22,0,.33,0A1,1,0,0,0,5,31H9a1,1,0,0,0,0-2ZM3,27.5A1.5,1.5,0,1,1,4.5,29,1.5,1.5,0,0,1,3,27.5Z"/><path d="M26,29H23.65A3.46,3.46,0,0,0,24,27.5,3.5,3.5,0,1,0,20.5,31c.11,0,.22,0,.33,0A1,1,0,0,0,21,31h5a1,1,0,0,0,0-2Zm-7-1.5A1.5,1.5,0,1,1,20.5,29,1.5,1.5,0,0,1,19,27.5Z"/><path d="M2,10.24A1,1,0,0,0,3,11H6A1,1,0,0,0,6,9H3.78l-.5-2h23L23.87,18,5.79,17,5,13.76A1,1,0,1,0,3,14.24l1,4a1,1,0,0,0,.92.76l18.48,1-.23,1H5a1,1,0,0,0,0,2H24a1,1,0,0,0,1-.78L28.91,4.5l1.79-1.79a1,1,0,0,0-1.41-1.41l-2,2a1,1,0,0,0-.27.49L26.75,5H2A1,1,0,0,0,1,6.24Z"/><path d="M29.62,9.08a1,1,0,0,0-.33.21A1,1,0,0,0,29,10a1,1,0,0,0,.29.71,1,1,0,0,0,1.42,0A1,1,0,0,0,31,10a1.05,1.05,0,0,0-.29-.71A1,1,0,0,0,29.62,9.08Z"/><path d="M1.08,22.38a.74.74,0,0,0,.09.18,1.68,1.68,0,0,0,.12.15l.15.12a.76.76,0,0,0,.18.09L1.8,23,2,23l.19,0a.62.62,0,0,0,.19-.06.56.56,0,0,0,.17-.09l.16-.12a1,1,0,0,0,0-1.42l-.16-.12a.56.56,0,0,0-.17-.09A.61.61,0,0,0,2.19,21a1,1,0,0,0-.9.27A1,1,0,0,0,1,22a1.25,1.25,0,0,0,0,.19A.62.62,0,0,0,1.08,22.38Z"/><path d="M28.62,29.08a1,1,0,0,0-.33.21,1,1,0,0,0,0,1.42,1,1,0,0,0,.33.21A1,1,0,0,0,29,31a1,1,0,0,0,.71-1.71A1,1,0,0,0,28.62,29.08Z"/><path d="M11,9v2H10V10H8v4h3v1H8L7,14V10L8,9Z"/><path d="M15,9l1,1v5H15V13H13v2l-1,0V10l1-1Zm0,1H13v2h2Z"/><path d="M21,13v2H20V13l-1-1H18v3H17V9h3l1,1v1l-1,1Zm-1-3H18v1h2Z"/><path d="M25,10H24v5H23V10H22V9h3Z"/></g></svg>