<svg xmlns="http://www.w3.org/2000/svg" width="32" height="32" viewBox="0 0 32 32"><defs><style>.cls-1{fill:#ececec;}</style></defs><title>df</title><g id="Layer_31" data-name="Layer 31"><circle class="cls-1" cx="16" cy="16" r="14.5"/><path d="M24.5,10H17a.5.5,0,0,1,0-1h7.5a.5.5,0,0,1,0,1Z"/><path d="M21.5,12H17a.5.5,0,0,1,0-1h4.5a.5.5,0,0,1,0,1Z"/><path d="M14,15H7a1,1,0,0,1-1-1V7A1,1,0,0,1,7,6h7a1,1,0,0,1,1,1v7A1,1,0,0,1,14,15ZM8,13h5V8H8Z"/><path d="M24.5,21H17a.5.5,0,0,1,0-1h7.5a.5.5,0,0,1,0,1Z"/><path d="M21.5,23H17a.5.5,0,0,1,0-1h4.5a.5.5,0,0,1,0,1Z"/><path d="M14,26H7a1,1,0,0,1-1-1V18a1,1,0,0,1,1-1h7a1,1,0,0,1,1,1v7A1,1,0,0,1,14,26ZM8,24h5V19H8Z"/></g></svg>