<svg xmlns="http://www.w3.org/2000/svg" width="32" height="32" viewBox="0 0 32 32"><defs><style>.cls-1{fill:#ececec;}</style></defs><title>df</title><g id="Layer_70" data-name="Layer 70"><circle class="cls-1" cx="16" cy="16" r="14.5"/><path d="M30,31H2a1,1,0,0,1-1-1V2A1,1,0,0,1,2,1H30a1,1,0,0,1,1,1V30A1,1,0,0,1,30,31ZM3,29H29V3H3Z"/><rect x="5" y="5" width="10" height="10" rx="2" ry="2"/><rect x="5" y="17" width="10" height="10" rx="2" ry="2"/><rect x="17" y="5" width="10" height="22" rx="2" ry="2"/></g></svg>