<svg xmlns="http://www.w3.org/2000/svg" width="32" height="32" viewBox="0 0 32 32"><defs><style>.cls-1{fill:#ececec;}</style></defs><title>df</title><g id="Layer_8" data-name="Layer 8"><circle class="cls-1" cx="16" cy="16" r="14.5"/><path d="M30.8,13.4l-3-4A1,1,0,0,0,27,9H20V7a1,1,0,0,0-1-1H3A1,1,0,0,0,3,8H18V21H11.65a3.5,3.5,0,1,0,.3,2h9.6a3.48,3.48,0,0,0,6.9,0H30a1,1,0,0,0,1-1V14A1,1,0,0,0,30.8,13.4ZM8.5,24A1.5,1.5,0,1,1,10,22.5,1.5,1.5,0,0,1,8.5,24ZM25,24a1.5,1.5,0,1,1,1.5-1.5A1.5,1.5,0,0,1,25,24Zm4-3h-.85a3.48,3.48,0,0,0-6.3,0H20V11h6.5L29,14.33Z"/><path d="M25,12.5H22a.5.5,0,0,0-.5.5v3a.5.5,0,0,0,.5.5h5a.5.5,0,0,0,.42-.78l-2-3A.5.5,0,0,0,25,12.5Zm-2.5,3v-2h2.23l1.33,2Z"/><path d="M9,12H4a1,1,0,0,1,0-2H9a1,1,0,0,1,0,2Z"/><path d="M9,18H6a1,1,0,0,1,0-2H9a1,1,0,0,1,0,2Z"/><path d="M9,15H1a1,1,0,0,1,0-2H9a1,1,0,0,1,0,2Z"/></g></svg>