<svg xmlns="http://www.w3.org/2000/svg" width="32" height="32" viewBox="0 0 32 32"><defs><style>.cls-1{fill:#ececec;}</style></defs><title>df</title><g id="Layer_29" data-name="Layer 29"><circle class="cls-1" cx="16" cy="16" r="14.5"/><path d="M13.75,22H6.25a.5.5,0,0,1,0-1h7.5a.5.5,0,0,1,0,1Z"/><path d="M12.25,24H7.75a.5.5,0,0,1,0-1h4.5a.5.5,0,0,1,0,1Z"/><path d="M25.75,20h-7.5a.5.5,0,0,1,0-1h7.5a.5.5,0,0,1,0,1Z"/><path d="M24.25,22h-4.5a.5.5,0,0,1,0-1h4.5a.5.5,0,0,1,0,1Z"/><rect x="5" y="7" width="10" height="12" rx="1.08" ry="1.08"/><rect x="17" y="9" width="10" height="8" rx="1.08" ry="1.08"/></g></svg>