<svg xmlns="http://www.w3.org/2000/svg" width="32" height="32" viewBox="0 0 32 32"><defs><style>.cls-1{fill:#ececec;}</style></defs><title>df</title><g id="Layer_27" data-name="Layer 27"><circle class="cls-1" cx="16" cy="16" r="14.5"/><path d="M9,29H7.65A3.46,3.46,0,0,0,8,27.5,3.5,3.5,0,1,0,4.5,31c.11,0,.22,0,.33,0A.94.94,0,0,0,5,31H9a1,1,0,0,0,0-2ZM3,27.5A1.5,1.5,0,1,1,4.5,29,1.5,1.5,0,0,1,3,27.5Z"/><path d="M26,29H23.65A3.46,3.46,0,0,0,24,27.5,3.5,3.5,0,1,0,20.5,31c.11,0,.22,0,.33,0A.94.94,0,0,0,21,31h5a1,1,0,0,0,0-2Zm-7-1.5A1.5,1.5,0,1,1,20.5,29,1.5,1.5,0,0,1,19,27.5Z"/><path d="M2,10.24A1,1,0,0,0,3,11H6A1,1,0,0,0,6,9H3.78l-.5-2h23L23.87,18,5.79,17,5,13.76A1,1,0,0,0,3,14.24l1,4a1,1,0,0,0,.92.76l18.48,1-.23,1H5a1,1,0,0,0,0,2H24a1,1,0,0,0,1-.78L28.91,4.5l1.79-1.79a1,1,0,0,0-1.41-1.41l-2,2a1,1,0,0,0-.27.49L26.75,5H2A1,1,0,0,0,1,6.24Z"/><path d="M30.55,9.17a.54.54,0,0,0-.17-.09A.65.65,0,0,0,30.2,9a1,1,0,0,0-.91.27A1.05,1.05,0,0,0,29,10a1,1,0,0,0,.29.71,1.15,1.15,0,0,0,.33.21A1,1,0,0,0,31,10a1.05,1.05,0,0,0-.29-.71A1,1,0,0,0,30.55,9.17Z"/><path d="M1.29,22.71a1,1,0,0,0,1.09.21,1.15,1.15,0,0,0,.33-.21,1.17,1.17,0,0,0,.21-.33A.84.84,0,0,0,3,22a1.05,1.05,0,0,0-.29-.71,1,1,0,0,0-1.09-.21,1,1,0,0,0-.33.21A1.05,1.05,0,0,0,1,22a1,1,0,0,0,.08.38A1.16,1.16,0,0,0,1.29,22.71Z"/><path d="M29.71,29.29a1.15,1.15,0,0,0-.33-.21,1,1,0,0,0-.76,0,.9.9,0,0,0-.54.54,1,1,0,0,0,1.3,1.3,1.15,1.15,0,0,0,.33-.21,1.17,1.17,0,0,0,.21-.33.94.94,0,0,0,0-.76A1,1,0,0,0,29.71,29.29Z"/><path d="M12,14l-1,1H9L8,14V9L9,9v5h2V9h1Z"/><path d="M17,13v2H16V13l-1-1H14v3H13V9h3l1,1v1l-1,1Zm-1-3H14v1h2Z"/><path d="M19,14h3v1H18l0-6h1Z"/></g></svg>