<svg xmlns="http://www.w3.org/2000/svg" width="32" height="32" viewBox="0 0 32 32"><defs><style>.cls-1{fill:#ececec;}</style></defs><title>df</title><g id="Layer_30" data-name="Layer 30"><circle class="cls-1" cx="16" cy="16" r="14.5"/><path d="M26.48,29.18l-.15,0-.19-.05a.49.49,0,0,1-.18-.86V26.87a.52.52,0,0,1,1,0v1.81a.49.49,0,0,1-.21.4A.54.54,0,0,1,26.48,29.18Zm-2.19-.64-.15,0-2-.58a.5.5,0,0,1-.35-.62.53.53,0,0,1,.65-.33l2,.58a.5.5,0,0,1,.35.62A.52.52,0,0,1,24.28,28.54Zm-4-1.16-.15,0-2-.58a.5.5,0,0,1-.35-.62.53.53,0,0,1,.65-.33l2,.58a.5.5,0,0,1,.35.62A.52.52,0,0,1,20.27,27.38Zm-4-1.16-.15,0-2-.58a.5.5,0,0,1-.35-.62.53.53,0,0,1,.65-.33l2,.58a.5.5,0,0,1,.35.62A.52.52,0,0,1,16.26,26.22Zm10.21-.85a.51.51,0,0,1-.52-.5v-2a.52.52,0,0,1,1,0v2A.51.51,0,0,1,26.48,25.37Zm-14.22-.31-.15,0-2-.58a.5.5,0,0,1-.35-.62.53.53,0,0,1,.65-.33l2,.58a.5.5,0,0,1,.35.62A.52.52,0,0,1,12.25,25.06Zm-4-1.16-.15,0-2-.58a.5.5,0,0,1-.35-.62.53.53,0,0,1,.65-.33l2,.58a.5.5,0,0,1,.35.62A.52.52,0,0,1,8.24,23.9ZM5.52,21.82a.51.51,0,0,1-.52-.5v-2a.52.52,0,0,1,1,0v2A.51.51,0,0,1,5.52,21.82Zm21-.46a.51.51,0,0,1-.52-.5v-2a.52.52,0,0,1,1,0v2A.51.51,0,0,1,26.48,21.37Zm-21-3.54a.51.51,0,0,1-.52-.5v-2a.52.52,0,0,1,1,0v2A.51.51,0,0,1,5.52,17.82Zm21-.46a.51.51,0,0,1-.52-.5v-2a.52.52,0,0,1,1,0v2A.51.51,0,0,1,26.48,17.37Zm-21-3.54a.51.51,0,0,1-.52-.5v-2a.52.52,0,0,1,1,0v2A.51.51,0,0,1,5.52,13.82Zm21-.46a.51.51,0,0,1-.52-.5v-2a.52.52,0,0,1,1,0v2A.51.51,0,0,1,26.48,13.37Zm-21-3.54A.51.51,0,0,1,5,9.32v-2a.52.52,0,0,1,1,0v2A.51.51,0,0,1,5.52,9.82Zm20.42-.08-.15,0-2-.58a.5.5,0,0,1-.35-.62.53.53,0,0,1,.65-.33l2,.58a.5.5,0,0,1,.35.62A.52.52,0,0,1,25.95,9.74Zm-4-1.16-.15,0-2-.58a.5.5,0,0,1-.35-.62A.53.53,0,0,1,20.09,7l2,.58a.5.5,0,0,1,.35.62A.52.52,0,0,1,21.94,8.58Zm-4-1.16-.15,0-2-.58a.5.5,0,0,1-.35-.62.53.53,0,0,1,.65-.33l2,.58a.5.5,0,0,1,.35.62A.52.52,0,0,1,17.93,7.42Zm-4-1.16-.15,0-2-.58A.5.5,0,0,1,11.41,5a.53.53,0,0,1,.65-.33l2,.58a.5.5,0,0,1,.35.62A.52.52,0,0,1,13.92,6.25Zm-8.4-.43A.51.51,0,0,1,5,5.32v-2a.49.49,0,0,1,.21-.4.54.54,0,0,1,.46-.08L6.05,3a.5.5,0,0,1,.35.62A.51.51,0,0,1,6,3.91V5.32A.51.51,0,0,1,5.52,5.82Zm4.39-.73-.15,0-2-.58a.5.5,0,0,1-.35-.62.53.53,0,0,1,.65-.33l2,.58a.5.5,0,0,1,.35.62A.52.52,0,0,1,9.91,5.09Z"/><path d="M31,3V23l-1,1S9,28.49,2,30H2L1,29V9L2,8,30,2M3,10V28l26-6V4Z"/></g></svg>