<svg xmlns="http://www.w3.org/2000/svg" width="32" height="32" viewBox="0 0 32 32"><defs><style>.cls-1{fill:#ececec;}</style></defs><title>df</title><g id="Layer_68" data-name="Layer 68"><circle class="cls-1" cx="16" cy="16" r="14.5"/><path d="M9,29H7.65A3.46,3.46,0,0,0,8,27.5,3.5,3.5,0,1,0,4.5,31c.11,0,.22,0,.33,0A1,1,0,0,0,5,31H9a1,1,0,0,0,0-2ZM3,27.5A1.5,1.5,0,1,1,4.5,29,1.5,1.5,0,0,1,3,27.5Z"/><path d="M26,29H23.65A3.46,3.46,0,0,0,24,27.5,3.5,3.5,0,1,0,20.5,31c.11,0,.22,0,.33,0A1,1,0,0,0,21,31h5a1,1,0,0,0,0-2Zm-7-1.5A1.5,1.5,0,1,1,20.5,29,1.5,1.5,0,0,1,19,27.5Z"/><path d="M2,10.24A1,1,0,0,0,3,11H6A1,1,0,0,0,6,9H3.78l-.5-2h23L23.87,18,5.79,17,5,13.76A1,1,0,1,0,3,14.24l1,4a1,1,0,0,0,.92.76l18.48,1-.23,1H5a1,1,0,0,0,0,2H24a1,1,0,0,0,1-.78L28.91,4.5l1.79-1.79a1,1,0,0,0-1.41-1.41l-2,2a1,1,0,0,0-.27.49L26.75,5H2A1,1,0,0,0,1,6.24Z"/><path d="M29.8,9a.63.63,0,0,0-.18.06.76.76,0,0,0-.18.09l-.15.12a1,1,0,0,0,0,1.42l.15.12a.76.76,0,0,0,.18.09l.18.06.2,0a1,1,0,0,0,.71-1.71A1,1,0,0,0,29.8,9Z"/><path d="M1.08,22.38a.54.54,0,0,0,.09.17,1,1,0,0,0,.12.16,1,1,0,0,0,.33.21A1,1,0,0,0,2,23l.19,0a.62.62,0,0,0,.19-.06.56.56,0,0,0,.17-.09l.16-.12.12-.16a.56.56,0,0,0,.09-.17A.62.62,0,0,0,3,22.2,1.26,1.26,0,0,0,3,22a.85.85,0,0,0-.08-.38,1,1,0,0,0-.21-.33,1,1,0,0,0-.16-.12.56.56,0,0,0-.17-.09A.61.61,0,0,0,2.19,21a.93.93,0,0,0-.57.06,1,1,0,0,0-.33.21,1,1,0,0,0-.21.33A1,1,0,0,0,1,22a1.38,1.38,0,0,0,0,.2A.65.65,0,0,0,1.08,22.38Z"/><path d="M29.71,29.29a1,1,0,0,0-.16-.12.56.56,0,0,0-.17-.09.61.61,0,0,0-.19-.06.85.85,0,0,0-.39,0,.63.63,0,0,0-.18.06.76.76,0,0,0-.18.09,1.53,1.53,0,0,0-.15.12,1.15,1.15,0,0,0-.21.33A.83.83,0,0,0,28,30a1,1,0,0,0,.29.71,1.53,1.53,0,0,0,.15.12.76.76,0,0,0,.18.09l.18.06.2,0,.19,0a.62.62,0,0,0,.19-.06.56.56,0,0,0,.17-.09,1,1,0,0,0,.16-.12A1.05,1.05,0,0,0,30,30a.85.85,0,0,0-.08-.38A1.15,1.15,0,0,0,29.71,29.29Z"/><circle cx="16" cy="12" r="6.5"/><path class="cls-1" d="M16,6a6,6,0,1,1-6,6,6,6,0,0,1,6-6m0-1a7,7,0,1,0,7,7,7,7,0,0,0-7-7Z"/><polygon class="cls-1" points="16 7 17 10 20 10 18 12 19 15 16 14 13 15 14 12 12 10 15 10 16 7"/></g></svg>