<svg xmlns="http://www.w3.org/2000/svg" width="32" height="32" viewBox="0 0 32 32"><defs><style>.cls-1{fill:#ececec;}</style></defs><title>df</title><g id="Layer_23" data-name="Layer 23"><circle class="cls-1" cx="16" cy="16" r="14.5"/><path d="M13,19.5a.5.5,0,0,1-.5-.5V16.5H11a.5.5,0,0,1-.42-.78l2-3a.5.5,0,0,1,.28-.2l.13,0a.5.5,0,0,1,.25.07h0l.07.05a.51.51,0,0,1,.1.12l2,3a.5.5,0,0,1-.42.78H13.5V19A.5.5,0,0,1,13,19.5Zm.5-4h.57l-.57-.85Zm-1.57,0h.57v-.85Z"/><path d="M19,19.5a.5.5,0,0,1-.25-.07h0l-.07-.05a.51.51,0,0,1-.1-.12l-2-3A.5.5,0,0,1,17,15.5h1.5V13a.5.5,0,0,1,1,0v2.5H21a.5.5,0,0,1,.42.78l-2,3a.5.5,0,0,1-.28.2Zm.5-3v.85l.57-.85Zm-1.57,0,.57.85V16.5Z"/><path d="M30,26H2a1,1,0,0,1-1-1V7A1,1,0,0,1,2,6H30a1,1,0,0,1,1,1V25A1,1,0,0,1,30,26ZM3,24H29V8H3Z"/></g></svg>