<svg xmlns="http://www.w3.org/2000/svg" width="32" height="32" viewBox="0 0 32 32"><defs><style>.cls-1{fill:#ececec;}</style></defs><title>df</title><g id="Layer_7" data-name="Layer 7"><circle class="cls-1" cx="16" cy="16" r="14.5"/><path d="M9,29H7.65A3.46,3.46,0,0,0,8,27.5,3.5,3.5,0,1,0,4.5,31c.11,0,.22,0,.33,0A.94.94,0,0,0,5,31H9a1,1,0,0,0,0-2ZM3,27.5A1.5,1.5,0,1,1,4.5,29,1.5,1.5,0,0,1,3,27.5Z"/><path d="M26,29H23.65A3.46,3.46,0,0,0,24,27.5,3.5,3.5,0,1,0,20.5,31c.11,0,.22,0,.33,0A.94.94,0,0,0,21,31h5a1,1,0,0,0,0-2Zm-7-1.5A1.5,1.5,0,1,1,20.5,29,1.5,1.5,0,0,1,19,27.5Z"/><path d="M2,10.24A1,1,0,0,0,3,11H6A1,1,0,0,0,6,9H3.78l-.5-2h23L23.87,18,5.79,17,5,13.76A1,1,0,0,0,3,14.24l1,4a1,1,0,0,0,.92.76l18.48,1-.23,1H5a1,1,0,0,0,0,2H24a1,1,0,0,0,1-.78L28.91,4.5l1.79-1.79a1,1,0,0,0-1.41-1.41l-2,2a1,1,0,0,0-.27.49L26.75,5H2A1,1,0,0,0,1,6.24Z"/><path d="M29.62,9.08a1,1,0,0,0-.33.21A1.05,1.05,0,0,0,29,10a1.32,1.32,0,0,0,0,.2.63.63,0,0,0,.06.18.76.76,0,0,0,.09.18l.12.15a1,1,0,0,0,1.42,0l.12-.15a.76.76,0,0,0,.09-.18A.65.65,0,0,0,31,10.2a1.38,1.38,0,0,0,0-.2,1.05,1.05,0,0,0-.29-.71A1,1,0,0,0,29.62,9.08Z"/><path d="M2,23a1.05,1.05,0,0,0,.71-.29,1,1,0,0,0,0-1.42,1,1,0,0,0-1.42,0,1,1,0,0,0,0,1.42A1.05,1.05,0,0,0,2,23Z"/><path d="M28.62,29.08a1.15,1.15,0,0,0-.33.21A1.05,1.05,0,0,0,28,30a1,1,0,0,0,.08.38.9.9,0,0,0,.54.54A1,1,0,0,0,29,31a1.05,1.05,0,0,0,.71-.29,1.16,1.16,0,0,0,.21-.33A1,1,0,0,0,30,30a1.05,1.05,0,0,0-.29-.71A1,1,0,0,0,28.62,29.08Z"/><path d="M14,9V8h2V9h2v1H14v1h4v3l-1,1H16v1H14V15H12V13h4V12H12V10Z"/></g></svg>