<svg xmlns="http://www.w3.org/2000/svg" width="32" height="32" viewBox="0 0 32 32"><defs><style>.cls-1{fill:#ececec;}</style></defs><title>df</title><g id="Layer_40" data-name="Layer 40"><circle class="cls-1" cx="16" cy="16" r="14.5"/><path d="M19.75,13h-7.5a.5.5,0,0,1,0-1h7.5a.5.5,0,0,1,0,1Z"/><path d="M18.25,15h-4.5a.5.5,0,0,1,0-1h4.5a.5.5,0,0,1,0,1Z"/><path d="M19.75,8h-7.5a.5.5,0,0,1,0-1h7.5a.5.5,0,0,1,0,1Z"/><path d="M18.25,10h-4.5a.5.5,0,0,1,0-1h4.5a.5.5,0,0,1,0,1Z"/><path d="M19.75,18h-7.5a.5.5,0,0,1,0-1h7.5a.5.5,0,0,1,0,1Z"/><path d="M18.25,20h-4.5a.5.5,0,0,1,0-1h4.5a.5.5,0,0,1,0,1Z"/><path d="M19.75,23h-7.5a.5.5,0,0,1,0-1h7.5a.5.5,0,0,1,0,1Z"/><path d="M18.25,25h-4.5a.5.5,0,0,1,0-1h4.5a.5.5,0,0,1,0,1Z"/><path d="M25,31H7a1,1,0,0,1-1-1V2A1,1,0,0,1,7,1H25a1,1,0,0,1,1,1V30A1,1,0,0,1,25,31ZM8,29H24V3H8Z"/></g></svg>