<svg xmlns="http://www.w3.org/2000/svg" width="32" height="32" viewBox="0 0 32 32"><defs><style>.cls-1{fill:#ececec;}</style></defs><title>df</title><g id="Layer_9" data-name="Layer 9"><circle class="cls-1" cx="16" cy="16" r="14.5"/><path d="M6,12a5,5,0,1,1,5-5A5,5,0,0,1,6,12ZM6,4A3,3,0,1,0,9,7,3,3,0,0,0,6,4Z"/><path d="M17,12a5,5,0,1,1,5-5A5,5,0,0,1,17,12Zm0-8a3,3,0,1,0,3,3A3,3,0,0,0,17,4Z"/><polygon points="6 19 6 21 3 21 3 22 6 22 6 24 3 24 3 25 6 25 6 27 7 27 7 16 6 16 6 18 3 18 3 19 6 19"/><polygon points="17 24 17 22 20 22 20 21 17 21 17 19 20 19 20 18 17 18 17 16 16 16 16 27 17 27 17 25 20 25 20 24 17 24"/><path d="M30.63,15.22a1,1,0,0,0-.84-.2L22,16.75V15a1,1,0,0,0-1-1H2a1,1,0,0,0-1,1V28a1,1,0,0,0,1,1H21a1,1,0,0,0,1-1V26.25L29.78,28,30,28a1,1,0,0,0,1-1V16A1,1,0,0,0,30.63,15.22ZM20,27H3V16H20V27Zm9-1.25L22,24.2V18.8l7-1.56Z"/></g></svg>