<svg xmlns="http://www.w3.org/2000/svg" width="32" height="32" viewBox="0 0 32 32"><defs><style>.cls-1{fill:#ececec;}</style></defs><title>df</title><g id="Layer_61" data-name="Layer 61"><circle class="cls-1" cx="16" cy="16" r="14.5"/><path d="M30,31H2a1,1,0,0,1-1-1V2A1,1,0,0,1,2,1H30a1,1,0,0,1,1,1V30A1,1,0,0,1,30,31ZM3,29H29V3H3Z"/><path d="M23.5,19H8.5a.5.5,0,0,1,0-1h15a.5.5,0,0,1,0,1Z"/><path d="M23.5,21H8.5a.5.5,0,0,1,0-1h15a.5.5,0,0,1,0,1Z"/><path d="M18.25,23h-4.5a.5.5,0,0,1,0-1h4.5a.5.5,0,0,1,0,1Z"/><path d="M16,16a4,4,0,1,1,4-4A4,4,0,0,1,16,16Zm0-6a2,2,0,1,0,2,2A2,2,0,0,0,16,10Z"/></g></svg>