<svg xmlns="http://www.w3.org/2000/svg" width="32" height="32" viewBox="0 0 32 32"><defs><style>.cls-1{fill:#ececec;}</style></defs><title>df</title><g id="Layer_15" data-name="Layer 15"><circle class="cls-1" cx="16" cy="16" r="14.5"/><path d="M7,6a1,1,0,0,1-.23-2L14.56,2.2A1,1,0,1,1,15,4.15L7.23,6Z"/><path d="M28.63,6.42,22.17,1.69A1,1,0,0,0,21,3.31l2.42,1.77-1.83,2.5a12.48,12.48,0,0,0-16.2,3.51A12.51,12.51,0,1,0,23.24,8.7L25,6.26,27.44,8a1,1,0,1,0,1.18-1.61ZM25.84,16.86a10.5,10.5,0,1,1-12-8.77A10.62,10.62,0,0,1,15.49,8a10.51,10.51,0,0,1,10.35,8.9Z"/><path d="M11,15v6H10V16H9V15Z"/><path d="M17,21H13V20h0V19h1V18h1V17h1V16H14v1H13V16l1-1h2l1,1v1h0v1H16v1H15v1h2Z"/><path d="M23,16v4l-1,1H20l-1-1V19h1v1h2V18H20V17h2V16H19V15h3"/></g></svg>