<svg xmlns="http://www.w3.org/2000/svg" width="32" height="32" viewBox="0 0 32 32"><defs><style>.cls-1{fill:#ececec;}</style></defs><title>df</title><g id="Layer_5" data-name="Layer 5"><circle class="cls-1" cx="16" cy="16" r="14.5"/><path d="M9,29H7.65A3.46,3.46,0,0,0,8,27.5,3.5,3.5,0,1,0,4.5,31c.11,0,.22,0,.33,0A1,1,0,0,0,5,31H9a1,1,0,0,0,0-2ZM3,27.5A1.5,1.5,0,1,1,4.5,29,1.5,1.5,0,0,1,3,27.5Z"/><path d="M26,29H23.65A3.46,3.46,0,0,0,24,27.5,3.5,3.5,0,1,0,20.5,31c.11,0,.22,0,.33,0A1,1,0,0,0,21,31h5a1,1,0,0,0,0-2Zm-7-1.5A1.5,1.5,0,1,1,20.5,29,1.5,1.5,0,0,1,19,27.5Z"/><path d="M2,10.24A1,1,0,0,0,3,11H6A1,1,0,0,0,6,9H3.78l-.5-2h23L23.87,18,5.79,17,5,13.76A1,1,0,1,0,3,14.24l1,4a1,1,0,0,0,.92.76l18.48,1-.23,1H5a1,1,0,0,0,0,2H24a1,1,0,0,0,1-.78L28.91,4.5l1.79-1.79a1,1,0,0,0-1.41-1.41l-2,2a1,1,0,0,0-.27.49L26.75,5H2A1,1,0,0,0,1,6.24Z"/><path d="M29.29,9.29a1,1,0,0,0,0,1.42A1,1,0,0,0,30,11a1,1,0,0,0,.71-1.71A1,1,0,0,0,29.29,9.29Z"/><path d="M2,23l.19,0a.62.62,0,0,0,.19-.06.56.56,0,0,0,.17-.09l.16-.12a1,1,0,0,0,0-1.42l-.16-.12a.56.56,0,0,0-.17-.09A.61.61,0,0,0,2.19,21a1,1,0,0,0-.9.27.93.93,0,0,0-.21.33A.83.83,0,0,0,1,22a1,1,0,0,0,.29.71A1.05,1.05,0,0,0,2,23Z"/><path d="M28.29,29.29A1,1,0,0,0,28,30a1,1,0,0,0,.29.71l.15.12a.76.76,0,0,0,.18.09l.18.06.2,0a1,1,0,1,0-.71-1.71Z"/><path d="M11,9l1,1v5H11V13H9v2H8V10L9,9Zm0,1H9v2h2Z"/><path d="M17,9l1,1v4l-1,1H14V9Zm0,1H15v4h2Z"/><path d="M23,9l1,1v4l-1,1H20V9Zm0,1H21v4h2Z"/></g></svg>