<svg xmlns="http://www.w3.org/2000/svg" width="32" height="32" viewBox="0 0 32 32"><defs><style>.cls-1{fill:#ececec;}</style></defs><title>df</title><g id="Layer_63" data-name="Layer 63"><circle class="cls-1" cx="16" cy="16" r="14.5"/><path d="M10.86,12.46l9.35,12.15a1,1,0,1,0,1.58-1.22l-2.51-3.26L24,15.41l5,5V17.59l-4.29-4.29a1,1,0,0,0-1.41,0l-5.24,5.24-6.26-8.14a1,1,0,0,0-.7-.39,1,1,0,0,0-.76.25L3,16.77v2.68Z"/><path d="M24,5a3,3,0,1,0,3,3A3,3,0,0,0,24,5Zm1.6,3.4H24.4V9.6a.4.4,0,1,1-.8,0V8.4H22.4a.4.4,0,1,1,0-.8h1.2V6.4a.4.4,0,0,1,.8,0V7.6h1.2a.4.4,0,1,1,0,.8Z"/><path d="M10,19a3,3,0,1,0,3,3A3,3,0,0,0,10,19Zm1.6,3.4H10.4v1.2a.4.4,0,0,1-.8,0V22.4H8.4a.4.4,0,1,1,0-.8H9.6V20.4a.4.4,0,0,1,.8,0v1.2h1.2a.4.4,0,1,1,0,.8Z"/><path d="M30,31H2a1,1,0,0,1-1-1V2A1,1,0,0,1,2,1H30a1,1,0,0,1,1,1V30A1,1,0,0,1,30,31ZM3,29H29V3H3Z"/></g></svg>