<svg xmlns="http://www.w3.org/2000/svg" width="32" height="32" viewBox="0 0 32 32"><defs><style>.cls-1{fill:#ececec;}</style></defs><title>df</title><g id="Layer_73" data-name="Layer 73"><circle class="cls-1" cx="16" cy="16" r="14.5"/><path d="M30,8H26V5a1,1,0,0,0-1-1H2A1,1,0,0,0,1,5V23a1,1,0,0,0,1,1H5v3a1,1,0,0,0,1,1H30a1,1,0,0,0,1-1V9A1,1,0,0,0,30,8ZM3,6H24V22H3ZM29,26H7V24H25a1,1,0,0,0,1-1V10h3Z"/><polygon points="6 11 6 13 3 13 3 14 6 14 6 16 3 16 3 17 6 17 6 22 7 22 7 6 6 6 6 10 3 10 3 11 6 11"/><polygon points="21 16 21 14 24 14 24 13 21 13 21 11 24 11 24 10 21 10 21 6 20 6 20 22 21 22 21 17 24 17 24 16 21 16"/><polygon points="11 10 11 18 17 14 11 10"/></g></svg>