<svg xmlns="http://www.w3.org/2000/svg" width="32" height="32" viewBox="0 0 32 32"><defs><style>.cls-1{fill:#ececec;}</style></defs><title>df</title><g id="Layer_11" data-name="Layer 11"><circle class="cls-1" cx="16" cy="16" r="14.5"/><path d="M9,14v2h1V14h1v5H10V17H9v2H8V14Z"/><path d="M15,15H14v4H13V15H12V14h3Z"/><path d="M18,17l-1-1v3H16V14h1v1l1,1,1-1V14h1v5H19V16"/><path d="M22,18h2v1H21V14h1Z"/><path d="M27.92,9.62a1,1,0,0,0-.22-.32l-8-8A1,1,0,0,0,19,1H5A1,1,0,0,0,4,2V30a1,1,0,0,0,1,1H27a1,1,0,0,0,1-1V10A1,1,0,0,0,27.92,9.62ZM20,4.41,24.59,9H20ZM6,29V3H18v7a1,1,0,0,0,1,1h7V29Z"/><path d="M8,26.5a.5.5,0,0,1,.5-.5h8a.5.5,0,0,1,0,1h-8A.5.5,0,0,1,8,26.5Z"/></g></svg>