<svg xmlns="http://www.w3.org/2000/svg" width="32" height="32" viewBox="0 0 32 32"><defs><style>.cls-1{fill:#ececec;}</style></defs><title>df</title><g id="Layer_22" data-name="Layer 22"><circle class="cls-1" cx="16" cy="16" r="14.5"/><path d="M25.5,15a1,1,0,0,1,0,2H15.33a3,3,0,0,0,0-2H25.5m0-1h-13a2,2,0,0,1,0,4h13a2,2,0,0,0,0-4Z"/><rect x="4.5" y="14" width="10" height="4" rx="2" ry="2"/><path d="M25.5,8a1,1,0,0,1,0,2H23.83a3,3,0,0,0,0-2H25.5m0-1H21a2,2,0,0,1,0,4h4.5a2,2,0,0,0,0-4Z"/><path d="M25.5,22a1,1,0,0,1,0,2H19.33a3,3,0,0,0,0-2H25.5m0-1h-9a2,2,0,0,1,0,4h9a2,2,0,0,0,0-4Z"/><rect x="4.5" y="7" width="18.5" height="4" rx="2" ry="2"/><rect x="4.5" y="21" width="14" height="4" rx="2" ry="2"/></g></svg>