<svg xmlns="http://www.w3.org/2000/svg" width="32" height="32" viewBox="0 0 32 32"><defs><style>.cls-1{fill:#ececec;}</style></defs><title>df</title><g id="Layer_33" data-name="Layer 33"><circle class="cls-1" cx="16" cy="16" r="14.5"/><path d="M30,26H2a1,1,0,0,1-1-1V7A1,1,0,0,1,2,6H30a1,1,0,0,1,1,1V25A1,1,0,0,1,30,26ZM3,24H29V8H3Z"/><path d="M15,6.5v-1a1,1,0,0,1,2,0v1a1,1,0,0,1-2,0Z"/><path d="M15,22V20.32a1,1,0,1,1,2,0V22a1,1,0,1,1-2,0Zm0-5.18V15.14a1,1,0,0,1,2,0v1.73a1,1,0,0,1-2,0Zm0-5.18V10a1,1,0,0,1,2,0v1.73a1,1,0,0,1-2,0Z"/><path d="M15,26.5v-1a1,1,0,0,1,2,0v1a1,1,0,0,1-2,0Z"/></g></svg>