<svg xmlns="http://www.w3.org/2000/svg" width="32" height="32" viewBox="0 0 32 32"><defs><style>.cls-1{fill:#ececec;}</style></defs><title>df</title><g id="Layer_39" data-name="Layer 39"><circle class="cls-1" cx="16" cy="16" r="14.5"/><path d="M19.75,15h-7.5a.5.5,0,0,1,0-1h7.5a.5.5,0,0,1,0,1Z"/><path d="M16.75,17h-4.5a.5.5,0,0,1,0-1h4.5a.5.5,0,0,1,0,1Z"/><path d="M19.75,20h-7.5a.5.5,0,0,1,0-1h7.5a.5.5,0,0,1,0,1Z"/><path d="M16.75,22h-4.5a.5.5,0,0,1,0-1h4.5a.5.5,0,0,1,0,1Z"/><path d="M19.75,25h-7.5a.5.5,0,0,1,0-1h7.5a.5.5,0,0,1,0,1Z"/><path d="M16.75,27h-4.5a.5.5,0,0,1,0-1h4.5a.5.5,0,0,1,0,1Z"/><path d="M25,1H7A1,1,0,0,0,6,2V30a1,1,0,0,0,1,1H25a1,1,0,0,0,1-1V2A1,1,0,0,0,25,1ZM24,3v8H8V3ZM8,29V12H24V29Z"/><path d="M13,8,12,7V5l1-1h1l1,1V9l-1,1H12V9h2V8Zm1-3H13V7h1Z"/><path d="M18,8,17,7V5l1-1h1l1,1V9l-1,1H17V9h2V8Zm1-3H18V7h1Z"/></g></svg>