<svg xmlns="http://www.w3.org/2000/svg" width="32" height="32" viewBox="0 0 32 32"><defs><style>.cls-1{fill:#ececec;}</style></defs><title>df</title><g id="Layer_55" data-name="Layer 55"><circle class="cls-1" cx="16" cy="16" r="14.5"/><path d="M30,8H26V5a1,1,0,0,0-1-1H2A1,1,0,0,0,1,5V23a1,1,0,0,0,1,1H5v3a1,1,0,0,0,1,1H30a1,1,0,0,0,1-1V9A1,1,0,0,0,30,8ZM3,6H24V22H3ZM29,26H7V24H25a1,1,0,0,0,1-1V10h3Z"/><polygon points="18 13 15 13 15 10 13 10 13 13 10 13 10 15 13 15 13 18 15 18 15 15 18 15 18 13"/></g></svg>