<svg xmlns="http://www.w3.org/2000/svg" width="32" height="32" viewBox="0 0 32 32"><defs><style>.cls-1{fill:#ececec;}</style></defs><title>df</title><g id="Layer_25" data-name="Layer 25"><circle class="cls-1" cx="16" cy="16" r="14.5"/><path d="M26.36,17.49l-2.37-4a1,1,0,0,0-1.72,0L20.75,16l-1.52-2.55a1,1,0,0,0-1.72,0L16,16l-1.52-2.55a1,1,0,0,0-1.72,0L11.25,16,9.73,13.49a1,1,0,0,0-1.72,0l-2.37,4a1,1,0,0,0,1.72,1L8.88,16l1.52,2.55a1,1,0,0,0,1.72,0L13.63,16l1.52,2.55a1,1,0,0,0,1.72,0L18.38,16l1.52,2.55a1,1,0,0,0,1.72,0L23.13,16l1.52,2.55a1,1,0,0,0,1.72-1Z"/></g></svg>